<svg xmlns="http://www.w3.org/2000/svg" xmlns:xlink="http://www.w3.org/1999/xlink" width="500" zoomAndPan="magnify" viewBox="0 0 375 225" height="300" preserveAspectRatio="xMidYMid meet" version="1.0"><defs><filter x="0%" y="0%" width="100%" height="100%" id="fe4e2cf8c2"><feColorMatrix values="0 0 0 0 1 0 0 0 0 1 0 0 0 0 1 0 0 0 1 0" color-interpolation-filters="sRGB"/></filter><mask id="6736e88a7f"><g filter="url(#fe4e2cf8c2)"><rect x="-37.5" width="450" fill="#000000" y="-22.5" height="270" fill-opacity="0.94"/></g></mask><clipPath id="5571482179"><rect x="0" width="301" y="0" height="225"/></clipPath></defs><g mask="url(#6736e88a7f)"><g transform="matrix(1, 0, 0, 1, 37, -0.000000000000008531)"><g clip-path="url(#5571482179)"><path fill="#ffffff" d="M 282.09375 142.703125 C 283.316406 143.398438 284.535156 143.707031 285.855469 143.707031 L 285.902344 143.707031 C 287.21875 143.707031 288.4375 143.398438 289.660156 142.703125 C 290.855469 142.082031 291.828125 141.097656 292.460938 139.902344 C 293.121094 138.765625 293.464844 137.460938 293.464844 136.144531 C 293.464844 134.789062 293.15625 133.523438 292.460938 132.300781 C 291.800781 131.078125 290.84375 130.160156 289.625 129.5 C 288.402344 128.839844 287.183594 128.496094 285.902344 128.496094 L 285.855469 128.496094 C 284.550781 128.53125 283.28125 128.878906 282.144531 129.5 C 280.921875 130.160156 280 131.078125 279.304688 132.300781 C 278.636719 133.472656 278.289062 134.800781 278.300781 136.144531 C 278.300781 137.410156 278.613281 138.679688 279.304688 139.902344 C 279.917969 141.097656 280.898438 142.082031 282.09375 142.703125 Z M 280.382812 132.960938 C 280.933594 131.964844 281.746094 131.152344 282.742188 130.601562 C 283.746094 130.074219 284.789062 129.773438 285.839844 129.773438 L 285.890625 129.773438 C 286.941406 129.773438 287.984375 130.074219 288.988281 130.601562 C 289.984375 131.152344 290.796875 131.976562 291.347656 132.960938 C 291.921875 133.964844 292.171875 135.019531 292.171875 136.15625 C 292.171875 137.257812 291.898438 138.347656 291.347656 139.304688 C 290.808594 140.273438 290.007812 141.085938 289.027344 141.625 C 288.066406 142.175781 286.980469 142.464844 285.878906 142.453125 L 285.828125 142.453125 C 284.726562 142.453125 283.640625 142.164062 282.679688 141.625 C 281.710938 141.085938 280.910156 140.285156 280.371094 139.304688 C 279.796875 138.296875 279.496094 137.257812 279.496094 136.15625 C 279.507812 135.019531 279.820312 133.964844 280.382812 132.960938 Z M 280.382812 132.960938 " fill-opacity="1" fill-rule="evenodd"/><path fill="#ffffff" d="M 283.832031 136.847656 L 284.621094 136.847656 C 285.097656 136.847656 285.445312 136.933594 285.675781 137.160156 C 285.757812 137.207031 285.804688 137.246094 285.855469 137.292969 C 286.199219 137.605469 286.597656 138.214844 287.074219 139.039062 L 287.816406 140.34375 L 289.398438 140.34375 L 288.4375 138.730469 C 287.960938 137.988281 287.515625 137.410156 287.21875 137.113281 C 287.015625 136.921875 286.773438 136.777344 286.523438 136.683594 C 287.21875 136.632812 287.792969 136.371094 288.222656 135.941406 C 288.667969 135.496094 288.882812 134.980469 288.882812 134.359375 C 288.882812 133.929688 288.75 133.535156 288.488281 133.175781 C 288.246094 132.792969 287.863281 132.515625 287.433594 132.382812 C 287.085938 132.253906 286.558594 132.167969 285.855469 132.167969 C 285.722656 132.167969 285.542969 132.121094 285.375 132.121094 L 282.539062 132.121094 L 282.539062 140.332031 L 283.84375 140.332031 Z M 283.832031 133.257812 L 285.839844 133.257812 C 286.238281 133.304688 286.5 133.34375 286.667969 133.390625 C 286.90625 133.460938 287.109375 133.617188 287.230469 133.820312 C 287.363281 134 287.410156 134.214844 287.410156 134.480469 C 287.421875 134.816406 287.277344 135.136719 287.015625 135.351562 C 286.800781 135.570312 286.402344 135.664062 285.828125 135.699219 L 283.820312 135.699219 Z M 87.570312 134.179688 L 99.371094 134.179688 L 87.570312 114.511719 L 77.597656 97.945312 L 35.261719 123.382812 L 41.726562 134.179688 Z M 197.347656 134.179688 L 254.996094 134.179688 L 219.109375 74.390625 L 179.429688 8.398438 L 163.078125 18.238281 L 137.125 33.835938 L 163.089844 77.058594 Z M 177.203125 153.894531 C 173.132812 151.273438 168.367188 149.742188 163.207031 149.742188 L 163.078125 149.742188 C 148.832031 149.824219 137.246094 161.449219 137.246094 175.703125 C 137.246094 189.949219 148.832031 201.570312 163.078125 201.667969 L 163.207031 201.667969 C 168.367188 201.667969 173.132812 200.136719 177.203125 197.511719 L 177.203125 200.21875 L 189.136719 200.21875 L 189.136719 134.179688 L 177.203125 134.179688 Z M 177.203125 178.410156 C 175.933594 184.96875 170.117188 189.984375 163.207031 189.984375 L 163.078125 189.984375 C 155.25 189.902344 148.917969 183.519531 148.917969 175.691406 C 148.917969 167.875 155.25 161.496094 163.078125 161.449219 L 163.207031 161.449219 C 170.117188 161.449219 175.933594 166.425781 177.203125 172.988281 Z M 233.234375 153.894531 C 229.078125 151.175781 224.21875 149.742188 219.253906 149.742188 L 219.121094 149.742188 C 204.875 149.824219 193.289062 161.449219 193.289062 175.703125 C 193.289062 189.949219 204.863281 201.570312 219.121094 201.667969 L 219.253906 201.667969 C 224.410156 201.667969 229.210938 200.136719 233.234375 197.511719 L 233.234375 200.21875 L 245.167969 200.21875 L 245.167969 151.046875 L 233.234375 151.046875 Z M 233.234375 178.410156 C 231.964844 184.96875 226.148438 189.984375 219.253906 189.984375 L 219.121094 189.984375 C 211.304688 189.902344 204.960938 183.519531 204.960938 175.691406 C 204.960938 167.875 211.292969 161.496094 219.121094 161.449219 L 219.253906 161.449219 C 226.160156 161.449219 231.964844 166.425781 233.234375 172.988281 Z M 287.601562 172.472656 C 287.171875 172.257812 286.546875 172.03125 285.855469 171.777344 C 283.183594 170.855469 278.863281 169.71875 272.832031 168.414062 C 267.539062 167.230469 264.882812 165.710938 264.882812 163.78125 C 264.882812 162.429688 265.359375 161.328125 266.28125 160.550781 C 267.503906 159.496094 269.695312 158.96875 272.84375 158.96875 C 276.039062 158.96875 278.347656 159.664062 279.699219 161.027344 C 280.527344 161.855469 281.136719 163.339844 281.53125 165.445312 L 294.207031 165.445312 C 294.207031 159.246094 291.671875 154.78125 286.691406 152.074219 C 286.429688 151.90625 286.152344 151.753906 285.867188 151.644531 C 282.40625 150.027344 277.820312 149.191406 272.101562 149.191406 C 265.144531 149.191406 259.902344 151.023438 256.40625 154.746094 C 253.605469 157.714844 252.253906 161.339844 252.253906 165.625 C 252.253906 170.964844 254.875 174.804688 260.203125 177.296875 C 262.210938 178.253906 267.109375 179.617188 274.890625 181.269531 C 280.085938 182.40625 282.707031 184.023438 282.707031 186.082031 C 282.707031 187.304688 282.179688 188.355469 281.042969 189.3125 C 279.59375 190.535156 277.414062 191.144531 274.480469 191.144531 C 270.59375 191.144531 267.839844 190.488281 266.222656 189.21875 C 264.605469 187.996094 263.769531 186.203125 263.769531 183.925781 L 250.480469 183.925781 C 250.480469 189.960938 253.019531 194.460938 258.132812 197.429688 C 262.199219 199.75 267.527344 200.925781 274.136719 200.925781 C 278.550781 200.925781 282.476562 200.183594 285.839844 198.746094 C 286.535156 198.433594 287.160156 198.136719 287.804688 197.789062 C 293 194.902344 295.632812 190.320312 295.632812 184.023438 C 295.632812 178.851562 292.964844 174.996094 287.601562 172.472656 Z M 45.136719 153.894531 C 40.960938 151.191406 36.085938 149.742188 31.109375 149.742188 L 30.976562 149.742188 C 16.78125 149.824219 5.191406 161.449219 5.191406 175.703125 C 5.191406 189.949219 16.78125 201.570312 30.976562 201.667969 L 31.109375 201.667969 C 36.265625 201.667969 41.066406 200.136719 45.136719 197.511719 L 45.136719 200.21875 L 57.070312 200.21875 L 57.070312 151.046875 L 45.136719 151.046875 Z M 45.136719 178.410156 C 43.867188 184.96875 38.050781 189.984375 31.109375 189.984375 L 30.976562 189.984375 C 23.195312 189.902344 16.863281 183.519531 16.863281 175.691406 C 16.863281 167.875 23.195312 161.496094 30.976562 161.449219 L 31.109375 161.449219 C 38.0625 161.449219 43.867188 166.425781 45.136719 172.988281 Z M 119.601562 145.851562 L 132.578125 145.851562 L 132.578125 134.445312 L 119.601562 134.445312 Z M 119.601562 200.21875 L 132.578125 200.21875 L 132.578125 149.742188 L 119.601562 149.742188 Z M 101.730469 153.894531 C 97.554688 151.191406 92.683594 149.742188 87.703125 149.742188 L 87.570312 149.742188 C 73.328125 149.824219 61.738281 161.449219 61.738281 175.703125 C 61.738281 189.949219 73.3125 201.570312 87.570312 201.667969 L 87.703125 201.667969 C 92.683594 201.667969 97.554688 200.230469 101.730469 197.511719 L 101.730469 200.21875 L 113.664062 200.21875 L 113.664062 134.179688 L 101.730469 134.179688 Z M 101.730469 178.410156 C 100.460938 184.96875 94.644531 189.984375 87.703125 189.984375 L 87.570312 189.984375 C 79.742188 189.902344 73.410156 183.519531 73.410156 175.691406 C 73.410156 167.875 79.742188 161.496094 87.570312 161.449219 L 87.703125 161.449219 C 94.65625 161.449219 100.460938 166.425781 101.730469 172.988281 Z M 177.152344 134.179688 L 163.078125 110.671875 L 128.507812 53.15625 L 87.570312 77.800781 L 86.171875 78.628906 L 87.570312 80.949219 L 119.554688 134.179688 Z M 177.152344 134.179688 " fill-opacity="1" fill-rule="evenodd"/></g></g></g></svg>