<svg xmlns="http://www.w3.org/2000/svg" xmlns:xlink="http://www.w3.org/1999/xlink" width="500" zoomAndPan="magnify" viewBox="0 0 375 225" height="300" preserveAspectRatio="xMidYMid meet" version="1.0"><defs><clipPath id="8ceef318c0"><path d="M 21.28125 150 L 349 150 L 349 195 L 21.28125 195 Z M 21.28125 150 " clip-rule="nonzero"/></clipPath><clipPath id="12847de776"><path d="M 91 25.203125 L 280 25.203125 L 280 125 L 91 125 Z M 91 25.203125 " clip-rule="nonzero"/></clipPath></defs><g clip-path="url(#8ceef318c0)"><path fill="#ffffff" d="M 256.515625 166.203125 L 256.515625 159.09375 L 289.675781 159.09375 L 289.675781 150.085938 L 244.675781 150.085938 L 244.675781 194.875 L 289.675781 194.875 L 289.675781 185.871094 L 256.515625 185.871094 L 256.515625 174.96875 L 284.703125 175.210938 L 284.703125 166.203125 Z M 348.890625 194.890625 L 328.304688 171.011719 L 347 150.101562 L 332.316406 150.101562 L 321.097656 162.65625 L 310.289062 150.101562 L 295.597656 150.101562 L 313.160156 171.535156 L 292.289062 194.890625 L 306.96875 194.890625 L 320.195312 180.101562 L 332.316406 194.890625 Z M 125.988281 150.085938 L 125.988281 194.652344 L 170.761719 194.652344 L 170.761719 185.886719 L 138.066406 185.886719 L 138.066406 150.085938 Z M 21.289062 150.085938 L 21.289062 159.09375 L 39.0625 159.09375 L 39.0625 194.875 L 50.90625 194.875 L 50.90625 159.105469 L 68.664062 159.105469 L 68.664062 150.101562 Z M 175.269531 150.085938 L 175.269531 194.875 L 187.109375 194.875 L 187.109375 159.105469 L 201.804688 194.890625 L 210.324219 194.890625 L 225.488281 159.105469 L 225.488281 194.890625 L 237.566406 194.890625 L 237.566406 150.085938 L 216.484375 150.085938 L 206.058594 175.917969 L 196.113281 150.085938 Z M 85.71875 166.203125 L 85.71875 159.09375 L 118.640625 159.09375 L 118.640625 150.085938 L 73.878906 150.085938 L 73.878906 194.875 L 118.65625 194.875 L 118.65625 185.871094 L 85.71875 185.871094 L 85.71875 174.96875 L 113.667969 175.210938 L 113.667969 166.203125 Z M 85.71875 166.203125 " fill-opacity="1" fill-rule="evenodd"/></g><g clip-path="url(#12847de776)"><path fill="#ffffff" d="M 129.109375 56.984375 L 159.855469 56.644531 L 159.855469 93.773438 L 211.667969 93.773438 L 211.667969 56.984375 L 241.75 56.984375 L 279.515625 124.550781 L 249.097656 124.550781 L 229.726562 93.773438 L 185.597656 124.539062 L 141.8125 93.449219 L 122.089844 124.550781 L 91.683594 124.550781 Z M 279.53125 56.660156 L 279.53125 25.214844 L 91.683594 25.214844 L 91.683594 56.660156 L 122.101562 56.660156 L 125.777344 49.632812 L 166.890625 49.632812 L 166.890625 86.421875 L 204.660156 86.421875 L 204.660156 49.632812 L 245.097656 49.632812 L 249.109375 56.660156 Z M 279.53125 56.660156 " fill-opacity="1" fill-rule="evenodd"/></g></svg>