<svg xmlns="http://www.w3.org/2000/svg" xmlns:xlink="http://www.w3.org/1999/xlink" width="500" zoomAndPan="magnify" viewBox="0 0 375 225" height="300" preserveAspectRatio="xMidYMid meet" version="1.0"><defs><clipPath id="6fad25a47f"><path d="M 21.890625 19.34375 L 353.390625 19.34375 L 353.390625 205.34375 L 21.890625 205.34375 Z M 21.890625 19.34375 " clip-rule="nonzero"/></clipPath></defs><g clip-path="url(#6fad25a47f)"><path fill="#ffffff" d="M 11.332031 -57.65625 L 363.339844 -57.65625 L 363.339844 294.351562 L 11.332031 294.351562 Z M 11.332031 -57.65625 " fill-opacity="1" fill-rule="evenodd"/></g><path fill="#990000" d="M 26.863281 54.378906 C 26.863281 48.882812 31.359375 44.386719 36.855469 44.386719 L 337.816406 44.386719 C 343.316406 44.386719 347.8125 48.882812 347.8125 54.378906 L 347.8125 182.316406 C 347.8125 187.8125 343.316406 192.308594 337.816406 192.308594 L 36.855469 192.308594 C 31.359375 192.308594 26.863281 187.8125 26.863281 182.316406 Z M 26.863281 54.378906 " fill-opacity="1" fill-rule="evenodd"/><path fill="#ffffff" d="M 26.863281 58.90625 L 347.8125 58.90625 L 347.8125 177.78125 L 26.863281 177.78125 Z M 26.863281 58.90625 " fill-opacity="1" fill-rule="evenodd"/><path fill="#990000" d="M 298.855469 89.78125 C 284.171875 89.78125 272.199219 101.753906 272.199219 116.4375 C 272.199219 131.113281 284.171875 143.089844 298.855469 143.089844 C 313.535156 143.089844 325.507812 131.113281 325.507812 116.4375 C 325.507812 101.753906 313.535156 89.78125 298.855469 89.78125 Z M 79.164062 89.78125 C 64.476562 89.78125 52.507812 101.753906 52.507812 116.4375 C 52.507812 131.113281 64.480469 143.089844 79.164062 143.089844 C 93.84375 143.089844 105.816406 131.113281 105.816406 116.4375 C 105.816406 101.753906 93.84375 89.78125 79.164062 89.78125 Z M 79.164062 89.78125 " fill-opacity="1" fill-rule="evenodd"/><path fill="#990000" d="M 296.765625 66.324219 C 272.089844 65.753906 260.492188 81.578125 243.652344 101.09375 L 227.777344 119.5 L 252.925781 149.605469 C 258.910156 158.855469 247.476562 168.039062 240.382812 159.574219 L 217.132812 131.835938 L 194.476562 158.105469 C 187.261719 166.464844 175.957031 157.125 182.074219 147.960938 L 206.671875 119.359375 L 190.558594 100.136719 L 200.921875 87.296875 L 217.3125 106.984375 L 231.441406 90.550781 C 238.371094 82.492188 245.441406 71.816406 254.605469 66.324219 L 26.863281 66.324219 L 26.863281 170.375 L 80.109375 170.375 C 104.785156 170.375 115.988281 155.617188 132.367188 135.722656 L 147.824219 116.949219 L 121.980469 87.433594 C 115.78125 78.320312 127 68.882812 134.292969 77.179688 L 158.175781 104.375 L 180.226562 77.59375 C 187.246094 69.0625 198.761719 78.144531 192.859375 87.449219 L 168.921875 116.613281 L 185.476562 135.457031 L 175.042969 147.8125 L 158.566406 129.226562 L 144.824219 145.976562 C 138.078125 154.191406 131.25 164.667969 122.214844 170.371094 L 347.808594 170.371094 L 347.808594 66.324219 Z M 121.273438 116.4375 C 121.273438 139.632812 102.359375 158.546875 79.164062 158.546875 C 55.964844 158.546875 37.050781 139.632812 37.050781 116.4375 C 37.050781 93.238281 55.960938 74.324219 79.164062 74.324219 C 102.359375 74.324219 121.273438 93.238281 121.273438 116.4375 Z M 298.855469 158.546875 C 275.660156 158.546875 256.742188 139.632812 256.742188 116.4375 C 256.742188 93.238281 275.660156 74.324219 298.855469 74.324219 C 322.054688 74.324219 340.964844 93.238281 340.964844 116.4375 C 340.964844 139.632812 322.054688 158.546875 298.855469 158.546875 Z M 298.855469 158.546875 " fill-opacity="1" fill-rule="evenodd"/></svg>