<svg xmlns="http://www.w3.org/2000/svg" xmlns:xlink="http://www.w3.org/1999/xlink" width="500" zoomAndPan="magnify" viewBox="0 0 375 225" height="300" preserveAspectRatio="xMidYMid meet" version="1.0"><defs><clipPath id="62af3d96a2"><path d="M 118 4.757812 L 257 4.757812 L 257 142 L 118 142 Z M 118 4.757812 " clip-rule="nonzero"/></clipPath><clipPath id="71cfc31370"><path d="M 73.59375 142 L 301.59375 142 L 301.59375 210.257812 L 73.59375 210.257812 Z M 73.59375 142 " clip-rule="nonzero"/></clipPath></defs><g clip-path="url(#62af3d96a2)"><path fill="#fefefe" d="M 256.917969 73.035156 C 256.917969 74.152344 256.890625 75.269531 256.835938 76.382812 C 256.777344 77.5 256.695312 78.613281 256.582031 79.726562 C 256.472656 80.839844 256.332031 81.945312 256.167969 83.050781 C 256 84.15625 255.804688 85.257812 255.585938 86.355469 C 255.363281 87.449219 255.113281 88.539062 254.839844 89.625 C 254.5625 90.707031 254.261719 91.785156 253.929688 92.855469 C 253.601562 93.921875 253.246094 94.984375 252.863281 96.035156 C 252.480469 97.085938 252.070312 98.128906 251.636719 99.160156 C 251.203125 100.195312 250.742188 101.214844 250.257812 102.226562 C 249.769531 103.234375 249.261719 104.234375 248.726562 105.21875 C 248.191406 106.203125 247.628906 107.175781 247.046875 108.132812 C 246.460938 109.09375 245.855469 110.035156 245.222656 110.964844 C 244.59375 111.894531 243.941406 112.808594 243.261719 113.707031 C 242.585938 114.601562 241.886719 115.484375 241.167969 116.347656 C 240.449219 117.210938 239.707031 118.058594 238.945312 118.886719 C 238.179688 119.714844 237.398438 120.523438 236.59375 121.3125 C 235.792969 122.101562 234.96875 122.871094 234.128906 123.621094 C 233.289062 124.375 232.429688 125.101562 231.550781 125.8125 C 230.671875 126.519531 229.777344 127.207031 228.867188 127.875 C 227.953125 128.539062 227.023438 129.183594 226.082031 129.804688 C 225.136719 130.421875 224.175781 131.019531 223.203125 131.59375 C 222.230469 132.171875 221.242188 132.722656 220.242188 133.246094 C 219.238281 133.773438 218.226562 134.277344 217.199219 134.753906 C 216.171875 135.230469 215.132812 135.683594 214.085938 136.113281 C 213.035156 136.539062 211.976562 136.941406 210.90625 137.316406 C 209.839844 137.695312 208.761719 138.046875 207.675781 138.371094 C 206.585938 138.695312 205.492188 138.992188 204.390625 139.261719 C 203.289062 139.535156 202.183594 139.78125 201.070312 139.996094 C 199.953125 140.214844 198.835938 140.40625 197.714844 140.570312 C 196.589844 140.734375 195.464844 140.871094 194.332031 140.980469 C 193.203125 141.089844 192.070312 141.171875 190.9375 141.226562 C 189.800781 141.28125 188.667969 141.308594 187.53125 141.308594 C 186.398438 141.308594 185.261719 141.28125 184.128906 141.226562 C 182.992188 141.171875 181.859375 141.089844 180.730469 140.980469 C 179.601562 140.871094 178.472656 140.734375 177.351562 140.570312 C 176.226562 140.40625 175.109375 140.214844 173.996094 139.996094 C 172.882812 139.78125 171.773438 139.535156 170.671875 139.261719 C 169.570312 138.992188 168.476562 138.695312 167.390625 138.371094 C 166.304688 138.046875 165.226562 137.695312 164.15625 137.316406 C 163.085938 136.941406 162.027344 136.539062 160.980469 136.113281 C 159.929688 135.683594 158.890625 135.230469 157.867188 134.753906 C 156.839844 134.277344 155.824219 133.773438 154.824219 133.246094 C 153.824219 132.722656 152.835938 132.171875 151.859375 131.597656 C 150.886719 131.019531 149.925781 130.421875 148.984375 129.804688 C 148.039062 129.183594 147.109375 128.539062 146.199219 127.875 C 145.285156 127.207031 144.390625 126.519531 143.515625 125.8125 C 142.636719 125.101562 141.777344 124.375 140.933594 123.621094 C 140.09375 122.871094 139.273438 122.101562 138.46875 121.3125 C 137.664062 120.523438 136.882812 119.714844 136.121094 118.886719 C 135.359375 118.058594 134.617188 117.210938 133.894531 116.347656 C 133.175781 115.484375 132.476562 114.601562 131.800781 113.707031 C 131.125 112.808594 130.472656 111.894531 129.839844 110.964844 C 129.210938 110.035156 128.601562 109.09375 128.019531 108.132812 C 127.433594 107.175781 126.875 106.203125 126.339844 105.21875 C 125.804688 104.234375 125.292969 103.234375 124.808594 102.226562 C 124.324219 101.214844 123.863281 100.195312 123.429688 99.160156 C 122.992188 98.128906 122.585938 97.085938 122.203125 96.035156 C 121.820312 94.984375 121.464844 93.921875 121.132812 92.855469 C 120.804688 91.785156 120.5 90.707031 120.226562 89.625 C 119.949219 88.539062 119.699219 87.449219 119.480469 86.355469 C 119.257812 85.257812 119.0625 84.15625 118.898438 83.050781 C 118.730469 81.945312 118.589844 80.839844 118.480469 79.726562 C 118.371094 78.613281 118.285156 77.5 118.230469 76.382812 C 118.175781 75.269531 118.144531 74.152344 118.144531 73.035156 C 118.144531 71.917969 118.175781 70.800781 118.230469 69.683594 C 118.285156 68.570312 118.371094 67.453125 118.480469 66.34375 C 118.589844 65.230469 118.730469 64.121094 118.898438 63.015625 C 119.0625 61.910156 119.257812 60.8125 119.480469 59.714844 C 119.699219 58.617188 119.949219 57.527344 120.226562 56.445312 C 120.5 55.359375 120.804688 54.285156 121.132812 53.214844 C 121.464844 52.144531 121.820312 51.085938 122.203125 50.035156 C 122.585938 48.980469 122.992188 47.9375 123.429688 46.90625 C 123.863281 45.875 124.324219 44.851562 124.808594 43.84375 C 125.292969 42.832031 125.804688 41.835938 126.339844 40.851562 C 126.875 39.863281 127.433594 38.894531 128.019531 37.933594 C 128.601562 36.976562 129.210938 36.03125 129.839844 35.101562 C 130.472656 34.175781 131.125 33.261719 131.800781 32.363281 C 132.476562 31.464844 133.175781 30.585938 133.894531 29.722656 C 134.617188 28.859375 135.359375 28.011719 136.121094 27.183594 C 136.882812 26.355469 137.664062 25.546875 138.46875 24.757812 C 139.273438 23.96875 140.09375 23.195312 140.933594 22.445312 C 141.777344 21.695312 142.636719 20.964844 143.515625 20.257812 C 144.390625 19.546875 145.285156 18.859375 146.199219 18.195312 C 147.109375 17.53125 148.039062 16.886719 148.984375 16.265625 C 149.925781 15.644531 150.886719 15.046875 151.859375 14.472656 C 152.835938 13.898438 153.824219 13.347656 154.824219 12.820312 C 155.824219 12.292969 156.839844 11.792969 157.867188 11.316406 C 158.890625 10.835938 159.929688 10.382812 160.980469 9.957031 C 162.027344 9.527344 163.085938 9.128906 164.15625 8.75 C 165.226562 8.375 166.304688 8.023438 167.390625 7.699219 C 168.476562 7.375 169.570312 7.078125 170.671875 6.804688 C 171.773438 6.535156 172.882812 6.289062 173.996094 6.070312 C 175.109375 5.855469 176.226562 5.664062 177.351562 5.5 C 178.472656 5.335938 179.601562 5.199219 180.730469 5.089844 C 181.859375 4.980469 182.992188 4.898438 184.128906 4.84375 C 185.261719 4.789062 186.398438 4.757812 187.53125 4.757812 C 188.667969 4.757812 189.800781 4.789062 190.9375 4.84375 C 192.070312 4.898438 193.203125 4.980469 194.332031 5.089844 C 195.464844 5.199219 196.589844 5.335938 197.714844 5.5 C 198.835938 5.664062 199.953125 5.855469 201.070312 6.070312 C 202.183594 6.289062 203.289062 6.535156 204.390625 6.804688 C 205.492188 7.078125 206.585938 7.375 207.675781 7.699219 C 208.761719 8.023438 209.839844 8.375 210.90625 8.75 C 211.976562 9.128906 213.035156 9.527344 214.085938 9.957031 C 215.132812 10.382812 216.171875 10.835938 217.199219 11.316406 C 218.226562 11.792969 219.238281 12.292969 220.242188 12.820312 C 221.242188 13.347656 222.230469 13.898438 223.203125 14.472656 C 224.175781 15.046875 225.136719 15.644531 226.082031 16.265625 C 227.023438 16.886719 227.953125 17.53125 228.867188 18.195312 C 229.777344 18.859375 230.671875 19.546875 231.550781 20.257812 C 232.429688 20.964844 233.289062 21.695312 234.128906 22.445312 C 234.96875 23.195312 235.792969 23.96875 236.59375 24.757812 C 237.398438 25.546875 238.179688 26.355469 238.945312 27.183594 C 239.707031 28.011719 240.449219 28.859375 241.167969 29.722656 C 241.886719 30.585938 242.585938 31.464844 243.261719 32.363281 C 243.941406 33.261719 244.59375 34.175781 245.222656 35.101562 C 245.855469 36.03125 246.460938 36.976562 247.046875 37.933594 C 247.628906 38.890625 248.191406 39.863281 248.726562 40.851562 C 249.261719 41.835938 249.769531 42.832031 250.257812 43.84375 C 250.742188 44.851562 251.203125 45.875 251.636719 46.90625 C 252.070312 47.9375 252.480469 48.980469 252.863281 50.035156 C 253.246094 51.085938 253.601562 52.144531 253.929688 53.214844 C 254.261719 54.285156 254.5625 55.359375 254.839844 56.445312 C 255.113281 57.527344 255.363281 58.617188 255.585938 59.714844 C 255.804688 60.8125 256 61.910156 256.167969 63.015625 C 256.332031 64.121094 256.472656 65.230469 256.582031 66.34375 C 256.695312 67.453125 256.777344 68.570312 256.835938 69.683594 C 256.890625 70.800781 256.917969 71.917969 256.917969 73.035156 Z M 256.917969 73.035156 " fill-opacity="1" fill-rule="nonzero"/></g><path fill="#990000" d="M 157.878906 18.15625 C 158.761719 18.394531 158.601562 20.15625 157.800781 21.761719 C 156.996094 23.363281 156.355469 26.488281 159.5625 28.171875 C 162.765625 29.855469 165.332031 29.855469 167.253906 28.570312 C 169.175781 27.289062 175.347656 23.121094 184.242188 23.441406 C 190.492188 23.523438 194.417969 25.207031 197.625 26.890625 C 200.828125 28.570312 207.160156 31.136719 210.445312 28.011719 C 213.730469 24.886719 213.25 20.796875 211.808594 19.277344 C 210.363281 17.753906 211.246094 16.152344 214.210938 18.15625 C 217.175781 20.15625 219.257812 22.5625 218.296875 28.492188 C 217.335938 34.421875 212.847656 36.265625 214.613281 37.304688 C 216.375 38.347656 217.335938 35.785156 217.816406 34.980469 C 218.296875 34.179688 221.742188 29.375 229.277344 32.015625 C 236.808594 34.660156 238.652344 38.027344 238.652344 38.027344 C 238.652344 38.027344 233.921875 54.855469 228.3125 54.535156 C 226.472656 54.453125 223.746094 52.371094 223.183594 54.292969 C 222.863281 55.253906 223.746094 56.054688 226.710938 57.339844 C 229.617188 58.59375 238.59375 63.539062 256.125 62.6875 C 256.648438 66.0625 256.917969 69.515625 256.917969 73.035156 C 256.917969 73.722656 256.90625 74.410156 256.882812 75.09375 C 252.507812 75.769531 234.429688 78.445312 214.773438 96.523438 C 195.113281 114.601562 186.246094 136.1875 186.246094 136.1875 L 186.222656 140.507812 L 178.070312 129.695312 C 178.070312 129.695312 170.699219 128.414062 167.414062 121.761719 C 166.933594 120.960938 167.816406 120.5625 167.816406 120.5625 C 167.816406 120.5625 169.46875 105.207031 182.238281 104.9375 C 181.277344 101.652344 180.796875 99.566406 180.796875 99.566406 C 180.796875 99.566406 185.523438 100.046875 188.488281 97.402344 C 191.453125 94.757812 194.097656 88.027344 191.613281 87.308594 C 189.128906 86.585938 188.808594 90.914062 186.886719 93.238281 C 184.964844 95.5625 184.320312 96.203125 180.394531 96.363281 C 176.46875 96.523438 174.386719 97.402344 154.191406 94.039062 C 152.351562 88.988281 150.1875 83.542969 151.546875 80.015625 C 152.910156 76.488281 156.277344 73.125 158.761719 71.523438 C 158.28125 67.355469 156.597656 64.949219 155.714844 63.75 C 154.835938 62.546875 154.59375 60.703125 155.476562 59.824219 C 156.355469 58.941406 157.398438 59.824219 158.039062 60.144531 C 158.679688 60.464844 159.320312 60.382812 159.800781 59.824219 C 160.28125 59.261719 160.523438 57.5 159.5625 56.136719 C 158.601562 54.773438 156.917969 51.410156 153.230469 54.132812 C 149.546875 56.859375 148.503906 56.777344 145.699219 53.8125 C 142.894531 50.847656 134.640625 40.589844 134.640625 40.589844 C 134.640625 40.589844 140.890625 32.015625 146.660156 32.097656 C 152.429688 32.175781 155.714844 39.710938 157.800781 38.1875 C 159.882812 36.664062 155.476562 34.5 154.273438 30.65625 C 153.070312 26.808594 153.390625 23.203125 155.15625 20.476562 C 156.917969 17.753906 157.316406 17.996094 157.878906 18.15625 Z M 188.980469 63.277344 C 188.078125 62.777344 188.421875 61.316406 189.355469 59.386719 C 190.289062 57.457031 193.085938 52.667969 197.566406 51.703125 C 202.046875 50.738281 205.222656 53.257812 205.6875 53.601562 C 206.15625 53.941406 206.558594 54.597656 206 55.53125 C 205.4375 56.464844 205.035156 56.308594 204.289062 55.964844 C 203.542969 55.625 202.328125 55.03125 202.171875 56.679688 C 202.015625 58.328125 201.707031 60.601562 199.183594 61.875 C 196.664062 63.152344 194.082031 62.03125 193.429688 61.472656 C 192.777344 60.910156 192.121094 60.757812 191.6875 61.566406 C 191.25 62.375 190.289062 63.898438 188.980469 63.277344 Z M 199.464844 55.777344 C 200.34375 55.777344 201.050781 56.488281 201.050781 57.367188 C 201.050781 58.242188 200.34375 58.953125 199.464844 58.953125 C 198.589844 58.953125 197.878906 58.242188 197.878906 57.367188 C 197.878906 56.488281 198.589844 55.777344 199.464844 55.777344 Z M 162.222656 85.648438 C 162.222656 85.648438 162.503906 86.261719 163.734375 87.132812 C 164.960938 88.003906 163.578125 88.875 162.734375 88.359375 C 161.890625 87.847656 159.609375 86.671875 159.535156 84.265625 C 159.457031 81.859375 161.273438 80.578125 162.683594 80.628906 C 164.089844 80.683594 165.167969 81.707031 165.167969 83.292969 C 165.167969 84.878906 163.527344 85.496094 162.222656 85.648438 Z M 176.121094 86.210938 C 176.121094 86.210938 175.839844 86.824219 174.609375 87.695312 C 173.382812 88.566406 174.761719 89.4375 175.609375 88.925781 C 176.453125 88.414062 178.644531 87.542969 178.71875 85.136719 C 178.796875 82.730469 177.066406 81.230469 175.660156 81.28125 C 174.25 81.332031 173.175781 82.269531 173.175781 83.855469 C 173.175781 85.441406 174.816406 86.058594 176.121094 86.210938 Z M 177.722656 120.96875 C 173.882812 118.824219 170.296875 118.132812 169.496094 119.449219 C 168.640625 120.863281 171.300781 124.046875 175.441406 126.5625 C 179.582031 129.078125 183.632812 129.972656 184.492188 128.558594 C 184.996094 127.734375 184.289062 126.296875 182.785156 124.742188 C 182.339844 126.050781 181.101562 126.996094 179.640625 126.996094 C 177.808594 126.996094 176.320312 125.507812 176.320312 123.675781 C 176.320312 122.558594 176.875 121.570312 177.722656 120.96875 Z M 173.066406 116.820312 C 173.066406 116.164062 173.816406 115.945312 176.039062 116.226562 C 178.261719 116.507812 181.203125 117.320312 183.050781 118.292969 C 184.898438 119.261719 186.339844 120.140625 188.09375 119.542969 C 189.84375 118.949219 190.972656 116.664062 191.035156 114.722656 C 191.097656 112.78125 190.660156 111.1875 190.347656 110.433594 C 190.03125 109.683594 191.378906 107.679688 192.253906 109.777344 C 193.132812 111.875 193.882812 115.097656 193.101562 118.761719 C 192.320312 122.425781 189.65625 126.933594 187.652344 129.40625 C 186.058594 123.988281 183.019531 121.390625 179.734375 119.796875 C 176.445312 118.199219 174.285156 117.792969 173.628906 117.636719 C 172.972656 117.480469 173.035156 117.351562 173.066406 116.820312 Z M 173.066406 116.820312 " fill-opacity="1" fill-rule="evenodd"/><path fill="#990000" d="M 249.804688 103.175781 C 244.9375 103.347656 234.414062 104.429688 222.308594 110.015625 C 205.628906 117.714844 189.945312 135.394531 186.523438 141.238281 C 186.417969 140.960938 186.316406 140.691406 186.222656 140.4375 L 186.246094 136.1875 C 186.246094 136.1875 195.113281 114.601562 214.773438 96.523438 C 234.425781 78.449219 252.5 75.769531 256.882812 75.09375 C 256.578125 85.152344 254.066406 94.664062 249.804688 103.175781 Z M 118.15625 73.925781 C 123.09375 75.648438 137.59375 80.816406 144.242188 84.304688 C 148.003906 86.226562 150.085938 89.027344 150.328125 92.070312 C 150.566406 95.109375 151.925781 98.3125 157.210938 98.3125 C 162.492188 98.3125 165.375 99.273438 167.695312 102.875 C 169.46875 105.628906 171.527344 108.429688 172.394531 109.59375 C 168.824219 113.820312 167.953125 119.515625 167.832031 120.433594 C 166.136719 119.039062 158.15625 112.875 144.324219 108.074219 C 136.363281 105.3125 129.910156 104.121094 125.480469 103.613281 C 120.917969 94.660156 118.296875 84.589844 118.15625 73.925781 Z M 118.15625 73.925781 " fill-opacity="1" fill-rule="evenodd"/><g clip-path="url(#71cfc31370)"><path fill="#fefefe" d="M 79.539062 165.566406 L 76.722656 157.648438 C 76.722656 157.648438 86.695312 154.300781 95.75 154.300781 C 104.808594 154.300781 111.125 156.277344 113.257812 160.007812 C 115.386719 163.738281 115.3125 167.621094 115.3125 170.816406 C 115.3125 174.011719 115.082031 183.753906 115.082031 186.265625 C 115.082031 188.777344 116.605469 193.34375 116.605469 193.34375 L 102.21875 193.34375 L 102.21875 186.875 C 102.21875 186.875 96.285156 193.722656 89.054688 193.722656 C 81.824219 193.722656 73.605469 190.300781 73.605469 181.773438 C 73.605469 173.25 79.160156 172.109375 81.746094 171.273438 C 84.335938 170.433594 92.628906 169.445312 101.535156 169.371094 C 101.613281 168 101.535156 167.921875 101.535156 166.324219 C 101.535156 164.726562 101.15625 161.378906 94.078125 161.378906 C 87 161.378906 79.539062 165.5625 79.539062 165.5625 Z M 101.460938 174.011719 C 101.460938 174.011719 102.066406 181.625 97.347656 184.667969 C 92.628906 187.710938 87.304688 184.894531 87.304688 180.9375 C 87.304688 176.980469 90.878906 173.785156 95.371094 173.785156 C 99.859375 173.785156 101.460938 174.011719 101.460938 174.011719 Z M 117.78125 144.328125 C 117.78125 144.328125 128.765625 144.222656 134.773438 142.359375 C 134.152344 150.234375 133.113281 178.105469 136.535156 192.921875 L 120.058594 192.921875 C 120.058594 192.921875 124.410156 154.273438 117.78125 144.328125 Z M 271.9375 155.109375 C 274.664062 154.640625 277.648438 154.300781 280.542969 154.300781 C 289.597656 154.300781 295.914062 156.277344 298.046875 160.007812 C 300.175781 163.738281 300.101562 167.621094 300.101562 170.816406 C 300.101562 174.011719 299.871094 183.753906 299.871094 186.265625 C 299.871094 188.777344 301.394531 193.34375 301.394531 193.34375 L 287.011719 193.34375 L 287.011719 186.875 C 287.011719 186.875 281.074219 193.722656 273.84375 193.722656 C 266.613281 193.722656 258.394531 190.300781 258.394531 181.773438 C 258.394531 173.25 263.949219 172.109375 266.539062 171.273438 C 269.125 170.433594 277.421875 169.445312 286.324219 169.371094 C 286.402344 168 286.324219 167.925781 286.324219 166.324219 C 286.324219 164.726562 285.945312 161.378906 278.867188 161.378906 C 276.503906 161.378906 274.09375 161.847656 271.9375 162.46875 Z M 286.25 174.011719 C 286.25 174.011719 286.859375 181.625 282.140625 184.667969 C 277.421875 187.710938 272.09375 184.894531 272.09375 180.9375 C 272.09375 176.980469 275.671875 173.785156 280.160156 173.785156 C 284.652344 173.785156 286.25 174.011719 286.25 174.011719 Z M 136.90625 156.078125 L 155.125 156.078125 L 155.125 162.359375 C 155.125 162.359375 161.09375 155.136719 169.785156 155.136719 C 178.476562 155.136719 183.710938 162.152344 184.441406 165.503906 C 185.175781 168.851562 185.804688 178.066406 182.347656 184.246094 C 178.894531 190.421875 166.851562 195.972656 155.4375 192.832031 C 154.914062 199.324219 156.277344 207.070312 157.847656 210.210938 L 139.417969 210.210938 C 139.417969 210.210938 141.722656 202.046875 141.722656 181.941406 C 141.722656 161.835938 138.582031 158.277344 136.90625 156.078125 Z M 154.390625 186.546875 L 154.914062 169.375 C 154.914062 169.375 157.636719 163.40625 163.5 163.40625 C 169.363281 163.40625 171.773438 171.46875 171.773438 176.8125 C 171.773438 182.152344 168.527344 188.117188 162.035156 188.117188 C 159 188.117188 154.390625 186.546875 154.390625 186.546875 Z M 186.199219 155.964844 L 203.203125 155.964844 C 203.203125 155.964844 202.09375 176.527344 202.015625 179.53125 C 201.9375 182.539062 203.519531 185.9375 208.894531 185.9375 C 214.273438 185.9375 217.277344 181.589844 217.277344 181.589844 C 217.277344 181.589844 217.59375 159.207031 215.144531 155.964844 L 231.671875 155.964844 C 231.671875 155.964844 230.644531 165.457031 230.644531 174.707031 C 230.644531 183.960938 232.699219 193.132812 232.699219 193.132812 L 217.59375 193.132812 L 217.59375 186.570312 C 217.59375 186.570312 212.21875 193.925781 202.964844 193.925781 C 193.710938 193.925781 188.652344 190.523438 188.652344 182.140625 L 188.652344 165.929688 C 188.652344 162.292969 187.9375 157.546875 186.199219 155.964844 Z M 235.464844 156.203125 L 252.863281 156.203125 L 252.546875 164.191406 C 252.546875 164.191406 257.925781 155.648438 268.046875 155.332031 C 267.890625 159.605469 267.574219 166.5625 267.574219 166.5625 C 267.574219 166.5625 264.648438 163.953125 260.21875 164.980469 C 255.789062 166.007812 253.496094 166.40625 252.707031 170.753906 C 251.914062 175.105469 249.148438 188.546875 254.210938 193.449219 L 236.574219 193.449219 C 236.574219 193.449219 238.394531 185.066406 238.394531 175.261719 C 238.394531 165.457031 236.8125 157.546875 235.464844 156.203125 Z M 235.464844 156.203125 " fill-opacity="1" fill-rule="evenodd"/></g></svg>