<svg xmlns="http://www.w3.org/2000/svg" xmlns:xlink="http://www.w3.org/1999/xlink" width="500" zoomAndPan="magnify" viewBox="0 0 375 225" height="300" preserveAspectRatio="xMidYMid meet" version="1.0"><defs><clipPath id="3f4c9b9298"><path d="M 100.3125 22.5 L 275 22.5 L 275 197 L 100.3125 197 Z M 100.3125 22.5 " clip-rule="nonzero"/></clipPath></defs><g clip-path="url(#3f4c9b9298)"><path fill="#990000" d="M 100.3125 22.5 L 274.6875 22.5 L 274.6875 196.875 L 100.3125 196.875 Z M 100.3125 22.5 " fill-opacity="1" fill-rule="evenodd"/></g><path fill="#fefefe" d="M 101.539062 193.308594 L 101.539062 26.71875 L 273.351562 26.71875 L 273.351562 193.308594 Z M 272.429688 27.640625 L 102.460938 27.640625 L 102.460938 192.386719 L 272.429688 192.386719 Z M 272.429688 27.640625 " fill-opacity="1" fill-rule="evenodd"/><path fill="#fefefe" d="M 269.589844 30.476562 L 269.589844 189.550781 L 105.296875 189.550781 L 105.296875 30.476562 Z M 236.84375 180.335938 C 237.226562 180.335938 237.609375 180.304688 237.988281 180.234375 C 238.367188 180.164062 238.738281 180.058594 239.097656 179.921875 C 239.457031 179.785156 239.800781 179.613281 240.128906 179.410156 C 240.457031 179.207031 240.761719 178.976562 241.046875 178.71875 C 241.332031 178.460938 241.589844 178.175781 241.824219 177.867188 C 242.054688 177.5625 242.257812 177.234375 242.429688 176.890625 C 242.601562 176.542969 242.738281 176.1875 242.84375 175.816406 C 242.945312 175.445312 243.015625 175.066406 243.050781 174.683594 L 255.273438 44.820312 C 255.5625 41.757812 253.171875 39.503906 250.4375 39.503906 L 123.839844 39.503906 C 120.769531 39.503906 118.75 42.089844 119.003906 44.816406 L 131.136719 174.679688 C 131.171875 175.0625 131.242188 175.441406 131.34375 175.8125 C 131.449219 176.183594 131.585938 176.542969 131.757812 176.886719 C 131.929688 177.230469 132.132812 177.558594 132.363281 177.867188 C 132.597656 178.175781 132.855469 178.457031 133.140625 178.71875 C 133.425781 178.976562 133.730469 179.207031 134.058594 179.410156 C 134.386719 179.613281 134.730469 179.78125 135.089844 179.921875 C 135.453125 180.058594 135.820312 180.164062 136.199219 180.234375 C 136.578125 180.304688 136.960938 180.335938 137.347656 180.335938 L 165.683594 180.335938 L 165.683594 186.789062 L 207.078125 186.789062 L 207.078125 180.335938 Z M 236.84375 180.335938 " fill-opacity="1" fill-rule="evenodd"/><path fill="#fefefe" d="M 151.417969 117.472656 L 137.992188 117.472656 L 137.992188 141.609375 L 151.417969 141.609375 L 151.417969 135.996094 L 145.617188 135.996094 L 145.617188 131.878906 L 151.417969 131.878906 L 151.417969 127.203125 L 145.617188 127.203125 L 145.617188 122.851562 L 151.417969 122.851562 Z M 182.941406 117.472656 L 186.5 141.609375 L 196.085938 141.609375 L 200.808594 117.472656 L 195.664062 117.472656 L 192.578125 132.160156 L 190.144531 117.472656 Z M 181.492188 117.472656 L 168.117188 117.472656 L 168.117188 141.609375 L 181.492188 141.609375 L 181.492188 135.996094 L 175.738281 135.996094 L 175.738281 131.878906 L 181.492188 131.878906 L 181.492188 127.203125 L 175.738281 127.203125 L 175.738281 122.851562 L 181.492188 122.851562 Z M 215.636719 117.472656 L 202.214844 117.472656 L 202.214844 141.609375 L 215.636719 141.609375 L 215.636719 135.996094 L 209.835938 135.996094 L 209.835938 131.878906 L 215.636719 131.878906 L 215.636719 127.203125 L 209.835938 127.203125 L 209.835938 122.851562 L 215.636719 122.851562 Z M 161.988281 117.472656 L 154.363281 117.472656 L 154.363281 141.609375 L 166.574219 141.609375 L 166.574219 135.996094 L 161.988281 135.996094 Z M 218.398438 117.472656 L 218.398438 141.609375 L 225.929688 141.609375 L 225.929688 124.601562 C 225.929688 122.871094 229.203125 122.871094 229.203125 124.644531 L 229.203125 141.609375 L 236.824219 141.609375 L 236.824219 121.074219 C 236.824219 119.089844 234.847656 117.199219 232.253906 117.175781 C 230.746094 117.160156 229.027344 117.78125 227.378906 119.390625 C 226.726562 120.027344 225.363281 119.960938 225.925781 117.472656 Z M 206.421875 143.808594 L 171.34375 143.808594 C 168.816406 159.785156 168.160156 163.953125 168.347656 183.75 L 204.972656 183.75 C 204.972656 172.683594 204.828125 167.457031 204.976562 162.242188 C 205.109375 157.523438 205.484375 152.816406 206.421875 143.808594 Z M 227.191406 54.519531 L 140.003906 54.519531 L 140.003906 86.136719 L 187.105469 86.136719 C 198.09375 72.203125 211.566406 61.734375 227.191406 54.519531 Z M 227.191406 54.519531 " fill-opacity="1" fill-rule="evenodd"/><path fill="#fefefe" d="M 175.320312 115.226562 L 210.449219 115.226562 C 214.457031 99.371094 223.023438 92.015625 236.171875 87.632812 L 236.171875 54.003906 C 207.378906 63.171875 184.15625 86.875 175.320312 115.226562 Z M 212.519531 153.734375 C 212.007812 153.734375 211.515625 153.636719 211.042969 153.441406 C 210.570312 153.246094 210.152344 152.964844 209.789062 152.605469 C 209.429688 152.242188 209.148438 151.824219 208.953125 151.351562 C 208.757812 150.878906 208.660156 150.386719 208.660156 149.875 C 208.660156 149.363281 208.757812 148.871094 208.953125 148.398438 C 209.148438 147.925781 209.429688 147.507812 209.792969 147.144531 C 210.152344 146.785156 210.570312 146.503906 211.042969 146.308594 C 211.515625 146.113281 212.007812 146.015625 212.519531 146.015625 C 213.03125 146.015625 213.523438 146.113281 214 146.308594 C 214.472656 146.503906 214.886719 146.785156 215.25 147.144531 C 215.613281 147.507812 215.890625 147.925781 216.085938 148.398438 C 216.28125 148.871094 216.378906 149.363281 216.378906 149.875 C 216.378906 150.386719 216.28125 150.878906 216.085938 151.351562 C 215.890625 151.824219 215.609375 152.242188 215.25 152.605469 C 214.886719 152.96875 214.46875 153.246094 213.996094 153.441406 C 213.523438 153.636719 213.03125 153.734375 212.519531 153.734375 Z M 212.519531 153.042969 C 212.945312 153.050781 213.351562 152.972656 213.746094 152.816406 C 214.140625 152.660156 214.488281 152.433594 214.792969 152.132812 C 215.09375 151.835938 215.328125 151.492188 215.492188 151.101562 C 215.65625 150.710938 215.738281 150.300781 215.738281 149.878906 C 215.738281 149.453125 215.65625 149.046875 215.492188 148.652344 C 215.328125 148.261719 215.097656 147.917969 214.792969 147.621094 C 214.492188 147.324219 214.144531 147.09375 213.75 146.9375 C 213.355469 146.78125 212.945312 146.703125 212.523438 146.710938 C 212.105469 146.71875 211.707031 146.804688 211.328125 146.96875 C 210.945312 147.128906 210.609375 147.359375 210.316406 147.65625 C 210.027344 147.953125 209.800781 148.292969 209.644531 148.675781 C 209.488281 149.0625 209.410156 149.460938 209.410156 149.875 C 209.410156 150.289062 209.488281 150.691406 209.644531 151.074219 C 209.800781 151.457031 210.023438 151.796875 210.316406 152.09375 C 210.605469 152.390625 210.941406 152.621094 211.324219 152.785156 C 211.707031 152.949219 212.105469 153.035156 212.519531 153.042969 Z M 212.519531 153.042969 " fill-opacity="1" fill-rule="evenodd"/><path fill="#fefefe" d="M 211.722656 150.203125 L 211.722656 152.113281 L 211.054688 152.113281 L 211.054688 147.710938 L 212.730469 147.710938 C 213.773438 147.710938 214.285156 148.09375 214.285156 148.960938 C 214.285156 149.75 213.792969 150.09375 213.148438 150.171875 L 214.398438 152.113281 L 213.652344 152.113281 L 212.492188 150.203125 Z M 211.722656 149.640625 L 212.519531 149.640625 C 213.085938 149.640625 213.589844 149.597656 213.589844 148.921875 C 213.589844 148.375 213.09375 148.277344 212.628906 148.277344 L 211.722656 148.277344 Z M 211.722656 149.640625 " fill-opacity="1" fill-rule="evenodd"/></svg>