<svg xmlns="http://www.w3.org/2000/svg" xmlns:xlink="http://www.w3.org/1999/xlink" width="500" zoomAndPan="magnify" viewBox="0 0 375 225" height="300" preserveAspectRatio="xMidYMid meet" version="1.0"><path fill="#990000" d="M 60.460938 53.328125 C 8.824219 85.183594 38.109375 179.464844 38.109375 181.773438 C 103.617188 137.847656 261.609375 199.757812 314.527344 171.242188 C 366.679688 142.984375 337.648438 50.757812 337.648438 50.757812 C 256.726562 91.605469 110.296875 22.5 60.460938 53.328125 Z M 60.460938 53.328125 " fill-opacity="1" fill-rule="nonzero"/><path fill="#ffffff" d="M 340.476562 47.675781 L 317.867188 40.226562 L 317.097656 40.226562 L 316.328125 39.96875 C 297.832031 56.667969 264.175781 58.207031 226.15625 55.382812 C 209.460938 54.097656 191.988281 52.042969 174.519531 49.730469 C 162.191406 48.445312 149.601562 46.90625 137.269531 45.878906 C 136.757812 45.878906 135.988281 45.878906 135.214844 45.621094 C 133.933594 45.621094 132.390625 45.363281 131.105469 45.363281 C 117.234375 44.078125 104.132812 43.308594 92.058594 43.308594 C 58.148438 44.078125 32.714844 60.519531 26.550781 107.53125 L 26.550781 108.558594 C 21.925781 146.066406 33.230469 185.628906 34.511719 186.398438 C 34.769531 186.398438 34.769531 186.65625 35.027344 186.65625 L 53.78125 190.253906 L 54.039062 190.253906 C 54.292969 190.253906 54.550781 190.253906 54.808594 189.996094 C 80.496094 166.617188 140.609375 172.785156 198.414062 178.691406 C 228.210938 182.03125 258.78125 185.113281 283.957031 184.085938 C 288.070312 183.832031 291.921875 183.574219 295.777344 183.058594 C 327.886719 178.179688 344.84375 157.882812 348.695312 120.378906 C 353.0625 81.585938 341.246094 48.191406 340.476562 47.675781 M 59.6875 54.867188 C 109.527344 24.296875 256.214844 92.632812 336.367188 52.300781 C 336.367188 52.300781 365.394531 142.984375 313.246094 170.730469 C 260.582031 198.988281 102.332031 137.847656 36.824219 181.261719 C 37.339844 179.207031 8.308594 86.210938 59.6875 54.867188 M 241.3125 180.234375 C 242.339844 180.234375 243.882812 180.492188 244.910156 180.492188 C 243.882812 180.492188 242.339844 180.234375 241.3125 180.234375 " fill-opacity="1" fill-rule="nonzero"/><path fill="#fefefe" d="M 103.875 116.523438 C 107.984375 113.699219 110.296875 109.585938 110.296875 104.191406 C 110.296875 93.402344 103.359375 87.75 89.746094 87.75 L 60.460938 87.75 L 60.460938 150.949219 L 90.773438 150.949219 C 101.050781 150.949219 113.125 146.066406 113.125 132.195312 C 113.125 124.488281 110.039062 119.347656 103.875 116.523438 M 88.976562 137.847656 L 76.128906 137.847656 L 76.128906 100.597656 L 87.175781 100.597656 C 94.113281 100.597656 94.882812 103.421875 94.882812 106.246094 C 94.882812 110.101562 92.570312 112.15625 88.203125 112.15625 L 84.351562 112.15625 L 78.957031 123.714844 L 89.230469 123.714844 C 94.882812 123.714844 97.195312 126.027344 97.195312 130.910156 C 97.710938 133.992188 96.425781 137.847656 88.976562 137.847656 M 116.976562 87.75 L 132.902344 87.75 L 132.902344 150.949219 L 116.976562 150.949219 Z M 170.925781 123.203125 L 162.960938 87.496094 L 138.042969 87.496094 L 138.042969 150.433594 L 153.710938 150.433594 L 153.710938 111.898438 L 162.960938 150.433594 L 178.886719 150.433594 L 188.136719 111.386719 L 188.136719 150.433594 L 203.808594 150.433594 L 203.808594 87.496094 L 178.886719 87.496094 Z M 253.132812 116.78125 C 257.242188 113.953125 259.554688 109.84375 259.554688 104.449219 C 259.554688 93.660156 252.617188 88.007812 239.003906 88.007812 L 209.714844 88.007812 L 209.714844 151.203125 L 240.03125 151.203125 C 250.304688 151.203125 262.378906 146.324219 262.378906 132.453125 C 262.378906 125 259.039062 119.605469 253.132812 116.78125 M 238.230469 138.101562 L 225.386719 138.101562 L 225.386719 101.367188 L 236.433594 101.367188 C 243.371094 101.367188 244.140625 104.191406 244.140625 107.019531 C 244.140625 110.871094 241.828125 112.925781 237.460938 112.925781 L 233.863281 112.925781 L 227.957031 124.488281 L 238.230469 124.488281 C 243.882812 124.488281 246.195312 126.800781 246.195312 131.679688 C 246.707031 134.507812 245.679688 138.101562 238.230469 138.101562 M 296.03125 86.980469 C 278.5625 86.980469 264.433594 101.109375 264.433594 118.578125 C 264.433594 136.046875 278.5625 150.175781 296.03125 150.175781 C 313.5 150.175781 327.632812 136.046875 327.632812 118.578125 C 327.886719 101.367188 313.757812 86.980469 296.03125 86.980469 M 296.03125 135.277344 C 287.042969 135.277344 279.335938 127.828125 279.335938 118.578125 C 279.335938 109.332031 286.785156 101.878906 296.03125 101.878906 C 305.28125 101.878906 312.472656 109.332031 312.472656 118.578125 C 312.730469 128.085938 305.023438 135.277344 296.03125 135.277344 " fill-opacity="1" fill-rule="nonzero"/><path fill="#ffffff" d="M 81.269531 79.53125 C 79.984375 80.300781 78.441406 80.816406 76.902344 81.070312 C 75.359375 81.328125 73.816406 81.585938 72.277344 81.585938 C 70.734375 81.585938 69.195312 81.328125 67.652344 80.816406 C 66.367188 80.300781 65.082031 79.53125 64.054688 78.761719 C 63.027344 77.734375 62.257812 76.703125 61.746094 75.421875 C 61.230469 74.136719 60.972656 72.59375 60.972656 71.054688 C 60.972656 69.511719 61.230469 67.96875 61.746094 66.6875 C 62.257812 65.402344 63.027344 64.375 64.054688 63.347656 C 65.082031 62.320312 66.367188 61.804688 67.652344 61.292969 C 69.449219 60.777344 70.992188 60.519531 72.535156 60.519531 C 74.332031 60.519531 75.875 60.777344 77.15625 61.035156 C 78.441406 61.546875 79.726562 62.0625 80.753906 63.089844 L 77.671875 66.429688 C 77.15625 65.914062 76.386719 65.402344 75.617188 65.144531 C 74.847656 64.886719 73.816406 64.628906 72.535156 64.628906 C 71.507812 64.628906 70.734375 64.886719 69.964844 65.144531 C 69.195312 65.402344 68.421875 65.914062 67.910156 66.429688 C 67.394531 66.941406 66.882812 67.714844 66.625 68.484375 C 66.367188 69.253906 66.113281 70.027344 66.113281 71.054688 C 66.113281 72.082031 66.367188 72.851562 66.625 73.621094 C 66.882812 74.394531 67.394531 75.164062 67.910156 75.675781 C 68.421875 76.191406 69.195312 76.703125 69.964844 76.960938 C 70.734375 77.21875 71.761719 77.476562 72.535156 77.476562 C 73.5625 77.476562 74.332031 77.476562 75.101562 77.21875 C 75.875 76.960938 76.386719 76.703125 76.902344 76.449219 L 76.902344 73.109375 L 73.046875 73.109375 L 73.046875 69 L 81.269531 69 Z M 84.09375 61.035156 L 92.316406 61.035156 C 93.34375 61.035156 94.371094 61.035156 95.398438 61.292969 C 96.425781 61.546875 97.195312 61.804688 97.964844 62.320312 C 98.738281 62.832031 99.25 63.347656 99.765625 64.117188 C 100.277344 64.886719 100.277344 65.914062 100.277344 66.941406 C 100.277344 68.226562 100.023438 69.511719 99.25 70.539062 C 98.480469 71.566406 97.453125 72.082031 95.910156 72.335938 L 101.304688 80.816406 L 95.65625 80.816406 L 91.289062 72.851562 L 88.976562 72.851562 L 88.976562 80.816406 L 84.351562 80.816406 L 84.351562 61.035156 Z M 88.71875 69.253906 L 92.828125 69.253906 C 92.828125 69.253906 93.597656 69.253906 94.113281 69 C 94.371094 68.742188 94.882812 68.742188 95.140625 68.226562 C 95.398438 67.96875 95.398438 67.457031 95.398438 66.941406 C 95.398438 66.429688 95.398438 65.914062 95.140625 65.660156 L 94.371094 64.886719 C 94.113281 64.628906 93.597656 64.628906 93.34375 64.628906 L 88.976562 64.628906 L 88.976562 69.253906 Z M 119.800781 73.367188 C 119.800781 74.648438 119.546875 75.675781 119.289062 76.703125 C 119.03125 77.734375 118.261719 78.503906 117.746094 79.273438 C 116.976562 80.042969 116.207031 80.558594 114.921875 81.070312 C 113.636719 81.328125 112.351562 81.585938 111.066406 81.585938 C 109.527344 81.585938 108.242188 81.328125 107.214844 81.070312 C 106.1875 80.558594 105.160156 80.042969 104.390625 79.273438 C 103.617188 78.503906 103.105469 77.734375 102.847656 76.703125 C 102.589844 75.675781 102.332031 74.648438 102.332031 73.367188 L 102.332031 61.035156 L 106.957031 61.035156 L 106.957031 73.109375 C 106.957031 73.621094 106.957031 74.394531 107.214844 74.90625 C 107.472656 75.421875 107.726562 75.933594 107.984375 76.191406 C 108.242188 76.449219 108.757812 76.960938 109.269531 76.960938 C 109.785156 77.21875 110.296875 77.21875 111.066406 77.21875 C 111.582031 77.21875 112.351562 77.21875 112.867188 76.960938 C 113.378906 76.703125 113.894531 76.449219 114.152344 76.191406 C 114.40625 75.675781 114.921875 75.421875 114.921875 74.90625 C 115.179688 74.394531 115.179688 73.878906 115.179688 73.109375 L 115.179688 61.035156 L 119.800781 61.035156 Z M 122.886719 61.035156 L 130.59375 61.035156 C 131.621094 61.035156 132.648438 61.035156 133.675781 61.292969 C 134.703125 61.546875 135.472656 61.804688 136.242188 62.320312 C 137.015625 62.832031 137.527344 63.347656 138.042969 64.117188 C 138.554688 64.886719 138.554688 65.914062 138.554688 66.941406 C 138.554688 68.226562 138.300781 69 138.042969 69.769531 C 137.527344 70.539062 137.015625 71.308594 136.5 71.566406 C 135.730469 72.082031 134.960938 72.335938 133.933594 72.59375 C 132.902344 72.851562 131.875 72.851562 130.847656 72.851562 L 127.507812 72.851562 L 127.507812 80.558594 L 122.886719 80.558594 Z M 127.507812 69.511719 L 131.875 69.511719 C 132.132812 69.511719 132.648438 69.253906 132.902344 69.253906 L 133.675781 68.484375 C 133.933594 68.226562 133.933594 67.714844 133.933594 67.199219 C 133.933594 66.6875 133.933594 66.171875 133.675781 65.914062 C 133.417969 65.660156 133.160156 65.402344 132.648438 65.144531 C 132.132812 64.886719 131.875 64.886719 131.363281 64.886719 L 127.765625 64.886719 Z M 140.355469 71.054688 C 140.355469 69.511719 140.609375 67.96875 141.125 66.6875 C 141.636719 65.402344 142.410156 64.375 143.4375 63.347656 C 144.464844 62.320312 145.75 61.804688 147.035156 61.292969 C 148.316406 60.777344 149.859375 60.519531 151.65625 60.519531 C 153.199219 60.519531 154.742188 60.777344 156.28125 61.292969 C 157.566406 61.804688 158.851562 62.574219 159.878906 63.347656 C 160.90625 64.375 161.675781 65.402344 162.191406 66.6875 C 162.703125 67.96875 162.960938 69.511719 162.960938 71.054688 C 162.960938 72.59375 162.703125 74.136719 162.191406 75.421875 C 161.675781 76.703125 160.90625 77.734375 159.878906 78.761719 C 158.851562 79.789062 157.566406 80.300781 156.28125 80.816406 C 154.996094 81.328125 153.457031 81.585938 151.65625 81.585938 C 150.117188 81.585938 148.574219 81.328125 147.035156 80.816406 C 145.75 80.300781 144.464844 79.53125 143.4375 78.761719 C 142.410156 77.734375 141.636719 76.703125 141.125 75.421875 C 140.609375 74.136719 140.355469 72.59375 140.355469 71.054688 M 145.234375 71.054688 C 145.234375 72.082031 145.492188 72.851562 145.75 73.621094 C 146.007812 74.394531 146.519531 75.164062 147.035156 75.675781 C 147.546875 76.191406 148.316406 76.703125 149.089844 76.960938 C 149.859375 77.21875 150.886719 77.476562 151.65625 77.476562 C 152.683594 77.476562 153.457031 77.21875 154.226562 76.960938 C 154.996094 76.703125 155.769531 76.191406 156.28125 75.675781 C 156.796875 75.164062 157.308594 74.394531 157.566406 73.621094 C 157.824219 72.851562 158.078125 72.082031 158.078125 71.054688 C 158.078125 70.027344 157.824219 69.253906 157.566406 68.484375 C 157.308594 67.714844 156.796875 66.941406 156.28125 66.429688 C 155.769531 65.914062 154.996094 65.402344 154.226562 65.144531 C 153.457031 64.886719 152.429688 64.628906 151.65625 64.628906 C 150.628906 64.628906 149.859375 64.886719 149.089844 65.144531 C 148.316406 65.402344 147.546875 65.914062 147.035156 66.429688 C 146.519531 66.941406 146.007812 67.714844 145.75 68.484375 C 145.234375 69.253906 145.234375 70.027344 145.234375 71.054688 M 335.082031 181.773438 C 335.082031 180.746094 335.335938 179.976562 335.59375 179.207031 C 335.851562 178.433594 336.367188 177.664062 337.136719 177.152344 C 337.648438 176.636719 338.421875 176.125 339.191406 175.609375 C 339.960938 175.351562 340.988281 175.097656 341.761719 175.097656 C 342.789062 175.097656 343.558594 175.351562 344.328125 175.609375 C 345.101562 175.867188 345.871094 176.378906 346.382812 176.894531 C 346.898438 177.40625 347.410156 178.179688 347.925781 178.949219 C 348.183594 179.71875 348.4375 180.746094 348.4375 181.519531 C 348.4375 182.546875 348.183594 183.316406 347.925781 184.085938 C 347.667969 184.859375 347.15625 185.628906 346.382812 186.140625 C 345.871094 186.65625 345.101562 187.171875 344.328125 187.683594 C 343.558594 187.941406 342.53125 188.199219 341.761719 188.199219 C 340.734375 188.199219 339.960938 187.941406 339.191406 187.683594 C 338.421875 187.425781 337.648438 186.914062 337.136719 186.398438 C 336.621094 185.886719 336.109375 185.113281 335.59375 184.34375 C 335.335938 183.574219 335.082031 182.800781 335.082031 181.773438 M 336.367188 181.773438 C 336.367188 182.546875 336.621094 183.316406 336.878906 184.085938 C 337.136719 184.859375 337.648438 185.371094 338.164062 185.886719 C 338.675781 186.398438 339.191406 186.914062 339.960938 187.171875 C 340.734375 187.425781 341.503906 187.683594 342.273438 187.683594 C 343.042969 187.683594 343.816406 187.425781 344.585938 187.171875 C 345.355469 186.914062 345.871094 186.398438 346.382812 185.886719 C 346.898438 185.371094 347.410156 184.859375 347.667969 184.085938 C 347.925781 183.316406 348.183594 182.546875 348.183594 181.773438 C 348.183594 181.003906 347.925781 180.234375 347.667969 179.464844 C 347.410156 178.691406 346.898438 178.179688 346.382812 177.664062 C 345.871094 177.152344 345.355469 176.636719 344.585938 176.378906 C 343.816406 176.125 343.042969 175.867188 342.273438 175.867188 C 341.503906 175.867188 340.734375 176.125 339.960938 176.378906 C 339.191406 176.636719 338.675781 177.152344 338.164062 177.664062 C 337.648438 178.179688 337.136719 178.691406 336.878906 179.464844 C 336.367188 180.234375 336.367188 181.003906 336.367188 181.773438 M 339.449219 177.921875 L 342.273438 177.921875 C 343.300781 177.921875 343.816406 178.179688 344.328125 178.433594 C 344.84375 178.691406 345.101562 179.464844 345.101562 180.234375 C 345.101562 181.003906 344.84375 181.519531 344.585938 181.773438 C 344.070312 182.03125 343.816406 182.289062 343.042969 182.289062 L 345.355469 185.628906 L 344.070312 185.628906 L 342.015625 182.289062 L 340.734375 182.289062 L 340.734375 185.628906 L 339.703125 185.628906 L 339.703125 177.921875 Z M 340.476562 181.519531 L 342.53125 181.519531 C 342.789062 181.519531 343.042969 181.519531 343.300781 181.261719 C 343.558594 181.261719 343.558594 181.003906 343.816406 181.003906 C 343.816406 180.746094 344.070312 180.492188 344.070312 180.234375 C 344.070312 179.976562 344.070312 179.71875 343.816406 179.464844 C 343.816406 179.207031 343.558594 179.207031 343.300781 179.207031 C 343.042969 179.207031 343.042969 178.949219 342.789062 178.949219 L 340.476562 178.949219 Z M 340.476562 181.519531 " fill-opacity="1" fill-rule="nonzero"/></svg>