<svg xmlns="http://www.w3.org/2000/svg" xmlns:xlink="http://www.w3.org/1999/xlink" width="500" zoomAndPan="magnify" viewBox="0 0 375 374.999991" height="500" preserveAspectRatio="xMidYMid meet" version="1.0"><defs><filter x="0%" y="0%" width="100%" height="100%" id="f1d3a47a4f"><feColorMatrix values="0 0 0 0 1 0 0 0 0 1 0 0 0 0 1 0 0 0 1 0" color-interpolation-filters="sRGB"/></filter><mask id="e485fb2168"><g filter="url(#f1d3a47a4f)"><rect x="-37.5" width="450" fill="#000000" y="-37.499999" height="449.999989" fill-opacity="0.94"/></g></mask><clipPath id="30c9e58f8d"><rect x="0" width="375" y="0" height="375"/></clipPath></defs><g mask="url(#e485fb2168)"><g transform="matrix(1, 0, 0, 1, 0, 0)"><g clip-path="url(#30c9e58f8d)"><path fill="#ffffff" d="M 352.515625 234.703125 C 354.046875 235.574219 355.574219 235.964844 357.226562 235.964844 L 357.285156 235.964844 C 358.933594 235.964844 360.464844 235.574219 361.996094 234.703125 C 363.496094 233.925781 364.710938 232.695312 365.503906 231.195312 C 366.328125 229.769531 366.765625 228.136719 366.765625 226.484375 C 366.765625 224.789062 366.375 223.199219 365.503906 221.671875 C 364.679688 220.140625 363.480469 218.984375 361.949219 218.160156 C 360.421875 217.335938 358.890625 216.898438 357.285156 216.898438 L 357.226562 216.898438 C 355.589844 216.945312 354 217.378906 352.574219 218.160156 C 351.046875 218.984375 349.890625 220.140625 349.019531 221.671875 C 348.179688 223.140625 347.746094 224.804688 347.761719 226.484375 C 347.761719 228.074219 348.148438 229.664062 349.019531 231.195312 C 349.785156 232.695312 351.015625 233.925781 352.515625 234.703125 Z M 350.371094 222.496094 C 351.058594 221.25 352.078125 220.230469 353.324219 219.539062 C 354.585938 218.878906 355.890625 218.503906 357.210938 218.503906 L 357.269531 218.503906 C 358.589844 218.503906 359.894531 218.878906 361.15625 219.539062 C 362.398438 220.230469 363.421875 221.265625 364.109375 222.496094 C 364.828125 223.753906 365.144531 225.074219 365.144531 226.5 C 365.144531 227.878906 364.800781 229.246094 364.109375 230.445312 C 363.433594 231.660156 362.429688 232.679688 361.199219 233.355469 C 360 234.046875 358.636719 234.40625 357.253906 234.390625 L 357.195312 234.390625 C 355.816406 234.390625 354.449219 234.03125 353.25 233.355469 C 352.035156 232.679688 351.03125 231.675781 350.355469 230.445312 C 349.636719 229.183594 349.261719 227.878906 349.261719 226.5 C 349.273438 225.074219 349.664062 223.753906 350.371094 222.496094 Z M 350.371094 222.496094 " fill-opacity="1" fill-rule="evenodd"/><path fill="#ffffff" d="M 354.691406 227.371094 L 355.679688 227.371094 C 356.28125 227.371094 356.714844 227.476562 357 227.761719 C 357.105469 227.820312 357.164062 227.863281 357.226562 227.925781 C 357.660156 228.316406 358.15625 229.078125 358.753906 230.113281 L 359.683594 231.75 L 361.664062 231.75 L 360.464844 229.726562 C 359.863281 228.796875 359.308594 228.074219 358.933594 227.699219 C 358.679688 227.460938 358.378906 227.28125 358.066406 227.160156 C 358.933594 227.101562 359.65625 226.769531 360.195312 226.230469 C 360.75 225.675781 361.019531 225.03125 361.019531 224.25 C 361.019531 223.710938 360.855469 223.214844 360.523438 222.765625 C 360.226562 222.285156 359.746094 221.941406 359.203125 221.773438 C 358.769531 221.609375 358.109375 221.503906 357.226562 221.503906 C 357.058594 221.503906 356.835938 221.445312 356.625 221.445312 L 353.070312 221.445312 L 353.070312 231.734375 L 354.703125 231.734375 Z M 354.691406 222.871094 L 357.210938 222.871094 C 357.703125 222.929688 358.035156 222.976562 358.246094 223.035156 C 358.546875 223.125 358.800781 223.320312 358.949219 223.574219 C 359.113281 223.800781 359.175781 224.070312 359.175781 224.398438 C 359.191406 224.820312 359.011719 225.226562 358.679688 225.496094 C 358.410156 225.765625 357.914062 225.886719 357.195312 225.929688 L 354.675781 225.929688 Z M 108.75 224.023438 L 123.539062 224.023438 L 108.75 199.378906 L 96.253906 178.621094 L 43.199219 210.496094 L 51.300781 224.023438 Z M 246.316406 224.023438 L 318.554688 224.023438 L 273.585938 149.101562 L 223.859375 66.40625 L 203.371094 78.734375 L 170.851562 98.28125 L 203.386719 152.445312 Z M 221.070312 248.730469 C 215.96875 245.445312 210 243.523438 203.535156 243.523438 L 203.371094 243.523438 C 185.519531 243.628906 171 258.195312 171 276.058594 C 171 293.910156 185.519531 308.476562 203.371094 308.59375 L 203.535156 308.59375 C 210 308.59375 215.96875 306.675781 221.070312 303.390625 L 221.070312 306.78125 L 236.023438 306.78125 L 236.023438 224.023438 L 221.070312 224.023438 Z M 221.070312 279.449219 C 219.480469 287.671875 212.191406 293.953125 203.535156 293.953125 L 203.371094 293.953125 C 193.558594 293.851562 185.625 285.855469 185.625 276.046875 C 185.625 266.25 193.558594 258.253906 203.371094 258.195312 L 203.535156 258.195312 C 212.191406 258.195312 219.480469 264.433594 221.070312 272.65625 Z M 291.285156 248.730469 C 286.078125 245.324219 279.988281 243.523438 273.765625 243.523438 L 273.601562 243.523438 C 255.75 243.628906 241.230469 258.195312 241.230469 276.058594 C 241.230469 293.910156 255.734375 308.476562 273.601562 308.59375 L 273.765625 308.59375 C 280.230469 308.59375 286.246094 306.675781 291.285156 303.390625 L 291.285156 306.78125 L 306.238281 306.78125 L 306.238281 245.160156 L 291.285156 245.160156 Z M 291.285156 279.449219 C 289.695312 287.671875 282.40625 293.953125 273.765625 293.953125 L 273.601562 293.953125 C 263.804688 293.851562 255.855469 285.855469 255.855469 276.046875 C 255.855469 266.25 263.789062 258.253906 273.601562 258.195312 L 273.765625 258.195312 C 282.421875 258.195312 289.695312 264.433594 291.285156 272.65625 Z M 359.414062 272.011719 C 358.875 271.738281 358.09375 271.453125 357.226562 271.140625 C 353.878906 269.984375 348.464844 268.558594 340.90625 266.925781 C 334.273438 265.441406 330.945312 263.535156 330.945312 261.121094 C 330.945312 259.425781 331.546875 258.046875 332.699219 257.070312 C 334.230469 255.75 336.976562 255.089844 340.921875 255.089844 C 344.925781 255.089844 347.820312 255.960938 349.515625 257.671875 C 350.550781 258.703125 351.316406 260.566406 351.808594 263.203125 L 367.695312 263.203125 C 367.695312 255.433594 364.515625 249.839844 358.273438 246.449219 C 357.945312 246.238281 357.601562 246.046875 357.238281 245.910156 C 352.90625 243.886719 347.160156 242.835938 339.988281 242.835938 C 331.273438 242.835938 324.703125 245.128906 320.324219 249.796875 C 316.816406 253.515625 315.121094 258.058594 315.121094 263.429688 C 315.121094 270.121094 318.40625 274.933594 325.078125 278.054688 C 327.601562 279.253906 333.734375 280.964844 343.484375 283.035156 C 349.996094 284.460938 353.28125 286.484375 353.28125 289.066406 C 353.28125 290.59375 352.621094 291.914062 351.195312 293.113281 C 349.378906 294.644531 346.648438 295.410156 342.976562 295.410156 C 338.101562 295.410156 334.648438 294.585938 332.625 292.996094 C 330.601562 291.464844 329.550781 289.214844 329.550781 286.363281 L 312.898438 286.363281 C 312.898438 293.925781 316.078125 299.566406 322.484375 303.285156 C 327.585938 306.195312 334.261719 307.664062 342.539062 307.664062 C 348.074219 307.664062 352.996094 306.734375 357.210938 304.933594 C 358.078125 304.546875 358.859375 304.171875 359.671875 303.734375 C 366.179688 300.121094 369.480469 294.375 369.480469 286.484375 C 369.480469 280.003906 366.136719 275.175781 359.414062 272.011719 Z M 55.574219 248.730469 C 50.339844 245.339844 44.234375 243.523438 37.996094 243.523438 L 37.828125 243.523438 C 20.039062 243.628906 5.519531 258.195312 5.519531 276.058594 C 5.519531 293.910156 20.039062 308.476562 37.828125 308.59375 L 37.996094 308.59375 C 44.460938 308.59375 50.476562 306.675781 55.574219 303.390625 L 55.574219 306.78125 L 70.53125 306.78125 L 70.53125 245.160156 L 55.574219 245.160156 Z M 55.574219 279.449219 C 53.984375 287.671875 46.695312 293.953125 37.996094 293.953125 L 37.828125 293.953125 C 28.078125 293.851562 20.144531 285.855469 20.144531 276.046875 C 20.144531 266.25 28.078125 258.253906 37.828125 258.195312 L 37.996094 258.195312 C 46.710938 258.195312 53.984375 264.433594 55.574219 272.65625 Z M 148.890625 238.648438 L 165.148438 238.648438 L 165.148438 224.355469 L 148.890625 224.355469 Z M 148.890625 306.78125 L 165.148438 306.78125 L 165.148438 243.523438 L 148.890625 243.523438 Z M 126.496094 248.730469 C 121.261719 245.339844 115.15625 243.523438 108.914062 243.523438 L 108.75 243.523438 C 90.898438 243.628906 76.378906 258.195312 76.378906 276.058594 C 76.378906 293.910156 90.886719 308.476562 108.75 308.59375 L 108.914062 308.59375 C 115.15625 308.59375 121.261719 306.796875 126.496094 303.390625 L 126.496094 306.78125 L 141.449219 306.78125 L 141.449219 224.023438 L 126.496094 224.023438 Z M 126.496094 279.449219 C 124.90625 287.671875 117.613281 293.953125 108.914062 293.953125 L 108.75 293.953125 C 98.941406 293.851562 91.003906 285.855469 91.003906 276.046875 C 91.003906 266.25 98.941406 258.253906 108.75 258.195312 L 108.914062 258.195312 C 117.628906 258.195312 124.90625 264.433594 126.496094 272.65625 Z M 221.011719 224.023438 L 203.371094 194.566406 L 160.050781 122.488281 L 108.75 153.375 L 106.996094 154.410156 L 108.75 157.320312 L 148.828125 224.023438 Z M 221.011719 224.023438 " fill-opacity="1" fill-rule="evenodd"/></g></g></g></svg>