<?xml version="1.0" encoding="utf-8"?>
<!-- Generator: Adobe Illustrator 25.0.1, SVG Export Plug-In . SVG Version: 6.00 Build 0)  -->
<svg version="1.1" id="Layer_1" xmlns="http://www.w3.org/2000/svg" xmlns:xlink="http://www.w3.org/1999/xlink" x="0px" y="0px"
	 viewBox="0 0 2500 2500" style="enable-background:new 0 0 2500 2500;" xml:space="preserve">
<style type="text/css">
	.st0{fill-rule:evenodd;clip-rule:evenodd;fill:#FFFFFF;}
</style>
<path class="st0" d="M2350.1,1564.7c10.2,5.8,20.4,8.4,31.4,8.4h0.4c11,0,21.2-2.6,31.4-8.4c10-5.2,18.1-13.4,23.4-23.4
	c5.5-9.5,8.4-20.4,8.4-31.4c0-11.3-2.6-21.9-8.4-32.1c-5.5-10.2-13.5-17.9-23.7-23.4c-10.2-5.5-20.4-8.4-31.1-8.4h-0.4
	c-10.9,0.3-21.5,3.2-31,8.4c-10.2,5.5-17.9,13.2-23.7,23.4c-5.6,9.8-8.5,20.9-8.4,32.1c0,10.6,2.6,21.2,8.4,31.4
	C2331.9,1551.3,2340.1,1559.5,2350.1,1564.7L2350.1,1564.7z M2335.8,1483.3c4.6-8.3,11.4-15.1,19.7-19.7c8.4-4.4,17.1-6.9,25.9-6.9
	h0.4c8.8,0,17.5,2.5,25.9,6.9c8.3,4.6,15.1,11.5,19.7,19.7c4.8,8.4,6.9,17.2,6.9,26.7c0,9.2-2.3,18.3-6.9,26.3
	c-4.5,8.1-11.2,14.9-19.4,19.4c-8,4.6-17.1,7-26.3,6.9h-0.4c-9.2,0-18.3-2.4-26.3-6.9c-8.1-4.5-14.8-11.2-19.3-19.4
	c-4.8-8.4-7.3-17.1-7.3-26.3C2328.5,1500.5,2331.1,1491.7,2335.8,1483.3L2335.8,1483.3z"/>
<path class="st0" d="M2364.6,1515.8h6.6c4,0,6.9,0.7,8.8,2.6c0.7,0.4,1.1,0.7,1.5,1.1c2.9,2.6,6.2,7.7,10.2,14.6l6.2,10.9h13.2
	l-8-13.5c-4-6.2-7.7-11-10.2-13.5c-1.7-1.6-3.7-2.8-5.8-3.6c5.8-0.4,10.6-2.6,14.2-6.2c3.7-3.7,5.5-8,5.5-13.2
	c0-3.6-1.1-6.9-3.3-9.9c-2-3.2-5.2-5.5-8.8-6.6c-2.9-1.1-7.3-1.8-13.2-1.8c-1.1,0-2.6-0.4-4-0.4h-23.7v68.6h10.9L2364.6,1515.8
	L2364.6,1515.8L2364.6,1515.8z M2364.6,1485.8h16.8c3.3,0.4,5.5,0.7,6.9,1.1c2,0.6,3.7,1.9,4.7,3.6c1.1,1.5,1.5,3.3,1.5,5.5
	c0.1,2.8-1.1,5.5-3.3,7.3c-1.8,1.8-5.1,2.6-9.9,2.9h-16.8L2364.6,1485.8L2364.6,1485.8L2364.6,1485.8z M725,1493.5h98.6L725,1329.2
	l-83.3-138.4L288,1403.3l54,90.2L725,1493.5L725,1493.5z M1642.1,1493.5h481.6l-299.8-499.5l-331.5-551.3l-136.6,82.2L1139,655.2
	l216.9,361.1L1642.1,1493.5z M1473.8,1658.2c-34-21.9-73.8-34.7-116.9-34.7h-1.1c-119,0.7-215.8,97.8-215.8,216.9
	c0,119,96.8,216.1,215.8,216.9h1.1c43.1,0,82.9-12.8,116.9-34.7v22.6h99.7v-551.7h-99.7V1658.2z M1473.8,1863
	c-10.6,54.8-59.2,96.7-116.9,96.7h-1.1c-65.4-0.7-118.3-54-118.3-119.4c0-65.3,52.9-118.6,118.3-119h1.1
	c57.7,0,106.3,41.6,116.9,96.4V1863z M1941.9,1658.2c-34.7-22.7-75.3-34.7-116.8-34.7h-1.1c-119,0.7-215.8,97.8-215.8,216.9
	c0,119,96.7,216.1,215.8,216.9h1.1c43.1,0,83.2-12.8,116.8-34.7v22.6h99.7v-410.8h-99.7V1658.2L1941.9,1658.2z M1941.9,1863
	c-10.6,54.8-59.2,96.7-116.8,96.7h-1.1c-65.3-0.7-118.3-54-118.3-119.4c0-65.3,52.9-118.6,118.3-119h1.1
	c57.7,0,106.2,41.6,116.8,96.4V1863z M2396.1,1813.4c-3.6-1.8-8.8-3.7-14.6-5.8c-22.3-7.7-58.4-17.2-108.8-28.1
	c-44.2-9.9-66.4-22.6-66.4-38.7c0-11.3,4-20.5,11.7-27c10.2-8.8,28.5-13.2,54.8-13.2c26.7,0,46,5.8,57.3,17.2
	c6.9,6.9,12,19.3,15.3,36.9h105.9c0-51.8-21.2-89.1-62.8-111.7c-2.2-1.4-4.5-2.7-6.9-3.6c-28.9-13.5-67.2-20.5-115-20.5
	c-58.1,0-101.9,15.3-131.1,46.4c-23.4,24.8-34.7,55.1-34.7,90.9c0,44.6,21.9,76.7,66.4,97.5c16.8,8,57.7,19.4,122.7,33.2
	c43.4,9.5,65.3,23,65.3,40.2c0,10.2-4.4,19-13.9,27c-12.1,10.2-30.3,15.3-54.8,15.3c-32.5,0-55.5-5.5-69-16.1
	c-13.5-10.2-20.5-25.2-20.5-44.2h-111c0,50.4,21.2,88,63.9,112.8c34,19.4,78.5,29.2,133.7,29.2c36.9,0,69.7-6.2,97.8-18.2
	c5.8-2.6,11-5.1,16.4-8c43.4-24.1,65.4-62.4,65.4-115C2463.2,1866.7,2440.9,1834.5,2396.1,1813.4z M370.5,1658.2
	c-34.9-22.6-75.6-34.7-117.2-34.7h-1.1c-118.6,0.7-215.4,97.8-215.4,216.9c0,119,96.8,216.1,215.4,216.9h1.1
	c43.1,0,83.2-12.8,117.2-34.7v22.6h99.7v-410.8h-99.7L370.5,1658.2L370.5,1658.2z M370.5,1863c-10.6,54.8-59.2,96.7-117.2,96.7h-1.1
	c-65-0.7-117.9-54-117.9-119.4c0-65.3,52.9-118.6,117.9-119h1.1c58.1,0,106.6,41.6,117.2,96.4V1863z M992.6,1591H1101v-95.3H992.6
	V1591z M992.6,2045.2H1101v-421.7H992.6V2045.2z M843.3,1658.2c-34.9-22.6-75.6-34.7-117.2-34.7H725
	c-119,0.7-215.8,97.8-215.8,216.9c0,119,96.7,216.1,215.8,216.9h1.1c41.6,0,82.3-12,117.2-34.7v22.6H943v-551.7h-99.7L843.3,1658.2
	L843.3,1658.2z M843.3,1863c-10.6,54.8-59.2,96.7-117.2,96.7H725c-65.4-0.7-118.3-54-118.3-119.4c0-65.3,52.9-118.6,118.3-119h1.1
	c58.1,0,106.6,41.6,117.2,96.4L843.3,1863L843.3,1863z M1473.4,1493.5l-117.6-196.4l-288.8-480.5L725,1022.5l-11.7,6.9l11.7,19.4
	l267.2,444.7L1473.4,1493.5L1473.4,1493.5z"/>
</svg>
