<?xml version="1.0" encoding="utf-8"?>
<!-- Generator: Adobe Illustrator 25.0.1, SVG Export Plug-In . SVG Version: 6.00 Build 0)  -->
<svg version="1.1" id="Layer_1" xmlns="http://www.w3.org/2000/svg" xmlns:xlink="http://www.w3.org/1999/xlink" x="0px" y="0px"
	 viewBox="0 0 1408 1236" style="enable-background:new 0 0 1408 1236;" xml:space="preserve">
<style type="text/css">
	.st0{fill:#FFFFFF;}
</style>
<g>
	<path class="st0" d="M991.5,214.4c-15.5-9.9-30.5-20.5-49.3-24.4c-25.5-5.2-43.5,1.4-58,22.8c-3,4.5-6.1,9-11.9,10.1
		c-2.3,0.5-5,0.9-6.7-1.3c-1.6-2.1-0.9-4.7,0.4-6.7c1.8-2.7,4-5.2,5.8-7.9c13.1-18.7,20.4-38.9,16.5-62.2
		c-3.2-19.1-16.6-29.5-32.3-37.9c-1.9-1-4.6-2-6.7,0c-2.1,2.1-0.7,4.5-0.1,6.7c0.6,2,1.5,4,2.6,5.7c10.3,14.8,6.6,29.4-2.1,42.6
		c-8.3,12.5-21.8,16-36.2,15.3c-11.8-0.5-22.9-4.1-33.2-9.8c-57.2-31.8-114.9-33.8-173.3-3.6c-2.3,0.1-4.5,0.2-6.8,1.4
		c-11.8,6.3-23.8,12.1-37.9,9.4c-24.8-6.2-32-21.2-21.8-44.7c2.5-5.7,5.8-13.7,0-17.2c-6.4-3.9-9.9,4.6-13.1,9
		c-17.9,24.2-15.9,57.6,4.5,82.8c3.4,4.2,7.2,8,9.1,13.2c1.1,2.9,1.9,5.9-0.7,8.3c-2.5,2.4-5.5,1.7-8.4,0.7
		c-5.9-2.1-9.6-6.9-13.6-11.3c-11.6-12.6-24.4-22.9-42.7-22.9c-5.8,0-11.3,1.2-16.4,3.9c-18.7,10.3-35.4,23.1-49,39.8
		c-3.2,3.9-3.3,6.5,0.1,10.5c21.2,24.7,42,49.7,63.1,74.4c9.5,11.1,24.6,11.6,35.6,1.8c4-3.6,8.1-7,13.2-9
		c5.2-2.1,10.3-1.8,14.5,1.3c9.1,6.5,14.7,15.7,16.7,26.6c1.9,10-4.6,15.2-13.8,10.9c-5-2.3-9.1-3-13.1,0.6
		c-4.1,3.7-3.1,8.6-1.9,13.4c1.1,4.8,4.1,8.5,6.6,12.6c6.2,10.3,10.1,21.5,13.3,33c1.6,5.8,0,9.3-4.9,12.6
		c-15.1,10.3-26.8,23.5-33.9,40.6c-4,9.6-5.3,19.2-2.7,29.7c4,16.2,7.2,32.6,12.9,48.3c1.3,3.5,2.4,6.4,6.9,7
		c41.3,5.8,82.4,13.6,124.4,12.6c11.3-0.3,22.7-0.8,34-1.7c10.9-0.9,18.6-7.6,25.1-15.6c6.2-7.7,10.5-16.6,14.2-25.7
		c2.4-5.8,5.5-12.8,13.4-10c7.4,2.7,7.6,9.9,6.2,16.8c-7,34.6-31,54-68.3,55c2.8,9.8,5.6,19.4,8.6,29.7
		c-23.7,1.6-43.5,10.6-58.8,28.5c-0.4-2-0.2-4.4-1.2-6c-9.5-13.6-18.6-27.6-29.1-40.5c-7.7-9.5-17.9-16.5-30.6-18.6
		c-11.1-1.9-22.5-0.2-33.7-2.7c-17.1-3.9-29.1-11.7-29.4-30c-0.4-23.6-13.4-39.4-34.3-48.7c-37.6-16.8-74.9-34.5-114.2-47.3
		c-12.3-4-23.9-10.4-37.3-10.6c-2.2-50.3,6.6-98.9,25.8-145c59.6-142.1,166-227.4,317.8-251.3c190.1-29.9,374.6,83.5,437.9,265.3
		c6.6,18.9,10.9,38.3,14.4,58c0.9,5-0.3,6.3-4.9,6.6c-64,3.7-124.7-7.3-180.8-39.5c-3.7-2.1-7.6-4.5-5.6-9.7s6.5-5.7,11.2-4.6
		c3.2,0.7,6.2,2,9.3,3c9.1,7.6,18.7,6.1,25.1-4.1l0,0c8.3-1.1,17.7-13.7,17.7-23.7c8.1-16.8,15.7-33.9,22-51.5
		c2.7,1.5,5.4,5.2,8.6,2.7c2.8-2.2-2.4-4-1.8-6.8c0.4-1.7,0-3.5,0-5.3C1008.3,217.6,1004,213.8,991.5,214.4z"/>
	<path class="st0" d="M1071.4,601c-62,119.8-159.2,194-292.4,214.4c-158.8,24.2-289.5-29.2-389.6-155.5
		c-13.5-17-25.3-35.3-34.7-55.1c2.7,0.1,5.4-0.2,8,0.3c25.8,5.4,51.7,10,77.2,17.2c40,11.3,77.8,27.4,113.6,48.6
		c15.3,9.1,29.3,20.1,44.8,28.8c-3.3,6.2-2.2,11.6,1.7,17.3c12.2,17.5,29.1,28.6,48.7,35.7c5.5,2,9.8,4.9,13.6,9.3
		c12.3,14.1,23.9,28.7,35.1,43.8c1.3,1.8,3.1,4.3,4,5.3l-0.1-0.1c1,1.2,1.3,1.6,2.2,2.7c3.1,3.8,4.9,1.2,6.8-1.2
		c4.8-6,9.3-12.3,14.4-18.1c24.3-27.7,49-55,76.9-79.3c30.1-26.2,62.1-49.4,97.6-67.7c35-18.1,71.9-30.9,110.3-38.5
		C1030,604.8,1050.4,600.2,1071.4,601z"/>
	<path class="st0" d="M682.7,1066.7c-3.2,10.9-10.6,18.8-19.4,24.9c-39.5,27.2-82.6,38.9-130.4,28.5c-5.3-1.1-6.4-0.3-6.5,5
		c-0.8,28.6,3.1,56.5,11.8,83.7c0.9,2.8,1.8,5.6,2.6,7.9c-0.7,2.2-2.1,1.7-3.1,1.7c-31.9,0-63.9,0-95.8,0.1c-4.7,0-6.7-0.3-5.6-6.3
		c10.7-58.7,12.4-117.9,10.9-177.4c-0.8-30.7-2.7-61.4-9.6-91.5c-3-13.1-6.9-25.8-16.8-37.7c12.2,0,22.8,0,33.3,0
		c21.5,0,43,0.3,64.4-0.2c7.2-0.2,8.5,2.1,7.6,8.7c-1.2,8.7-1.2,17.5-1.8,28.3c7.5-6.6,13.3-12,19.4-16.9
		c48.8-39.5,96.7-31.2,139.1,10c12.2,11.9,14.5,28.5,15.7,44.6c1.4,19.4-0.3,38.7-5.5,57.6c-4.5,0.6-1.8-7.3-5.9-5.7
		c-4.8,1.9-4.6,6.9-4.5,11.5C682.8,1051.3,682.7,1059,682.7,1066.7z M522.8,1030.3c0.1,0,0.1,0,0.2,0c-0.5,10.1-1.1,20.3-1.5,30.4
		c-0.7,22.1-0.6,22.1,21.4,26.8c32.4,6.9,58.2-3.8,70.6-29.5c12.3-25.6,5.6-74.5-13.3-95.8c-10.8-12.3-26.5-16.6-42.3-10.1
		c-16.8,6.9-31.5,16.4-33.1,37C523.8,1002.9,523.5,1016.6,522.8,1030.3z"/>
	<path class="st0" d="M972.6,1120.3c-28.5,0-55.9-0.1-83.3,0.1c-4.8,0-5.2-2-5.1-5.9c0.2-10,0.1-20,0.1-30.4
		c-4.3,1.1-5.6,3.6-7.4,5.5c-27.2,29.9-61.1,40-100.4,33.5c-4.7-0.8-9.4-1.6-14-2.7c-26.9-6.7-41.3-23.8-44.2-51.6
		c-2.1-20.3-1.2-40.5-0.7-60.8c0.7-23.9,0.9-47.7-2.7-71.4c-1.6-10.7-4.9-20.7-10.3-30.2c2.7-1.9,5.4-1.1,8-1.1
		c26.3-0.1,52.5,0.2,78.8-0.2c7.5-0.1,10.2,1.2,9.7,9.6c-2.4,40.8-4.1,81.6-5.9,122.4c-1.2,27.4,12.3,40.9,39.9,40
		c14.3-0.5,27.6-4.3,38.9-13.7c5.5-4.6,8.8-10.5,8.5-17.9c-0.8-23.8-1.9-47.7-2.4-71.5c-0.5-22.4-3.3-44.5-9.3-67.3
		c17.3,0,34,0,50.6,0c12.2,0,24.5,0.4,36.7-0.2c6.8-0.3,7.8,2.2,7.1,8.2c-3.9,32.6-5.5,65.4-5.2,98.2
		C960.4,1048.8,962.5,1084.5,972.6,1120.3z"/>
	<path class="st0" d="M211.4,898.2c18.3,1,35.9,5.4,53,11.5c10,3.6,16,12.2,20.7,21.4c7,13.8,10.7,28.4,10.6,43.9
		c-0.3,31.9-0.7,63.8-1.7,95.7c-0.5,15.2,1.5,29.8,7.3,43.7c2.5,6,0.9,7-4.9,6.9c-23.6-0.5-47.1-0.8-70.7-0.9c-4.6,0-6.4-1.3-6.3-6
		c0.2-9.1,0.1-18.2,0.1-29.4c-5.1,4.2-8.5,6.6-11.3,9.5c-31.8,31.9-68.9,34.3-109,19.7c-4.5-1.6-8.7-3.8-12.9-6
		c-25.1-13.1-33.4-34.3-31.2-61.8c2.2-26.2,16.3-42.1,39.9-50.7c22.7-8.3,46.4-10.4,70.3-11.5c14.9-0.7,29.8-1.2,44.7-1.5
		c4.9-0.1,7.2-1.3,6.4-6.6c-0.6-3.8-0.5-7.7-0.9-11.6c-1.6-15.1-8.4-22.6-23.2-25.2c-30.5-5.4-59.2,1.4-87,13.5
		c-4.1,1.8-8.1,3.8-12.1,5.7c-4.2,2.1-5.3-0.1-5.5-3.8c0.6-2.1-0.3-5.1,2.6-6c9.2-3,0.7-5.5-0.7-6.8c-1.4-1.2-4.5-0.5-6.8-0.7
		c-2.6-7.2-4.8-14.6-7.9-21.6c-1.7-4.1-0.2-5.2,3.2-6.2c16.8-4.6,33.5-9.7,51-11.6c9,4.2,18.2,4.6,28.7,2.6c-2.6-4-8.6-0.7-8.9-5.8
		c1.8-0.1,3.6-0.2,5.3-0.3C173.4,899.9,192.4,897.2,211.4,898.2z M194.6,1007.9c-7.9,0.4-14.2,0.4-20.4,1.2
		c-15.4,2-27.5,9.3-35.1,23c-11,19.8-3.3,37.6,18.5,43.6c21.6,5.9,44.1-6.2,52.3-27.9c3.9-10.4,4.5-21.5,6.7-32.2
		c1.1-5.3-0.9-6.8-5.8-6.8C204.8,1008.7,198.9,1008.2,194.6,1007.9z"/>
	<path class="st0" d="M1279,1092.1c-16.4,12.8-32.3,22.5-51,27c-26.9,6.4-53.3,3.2-77.9-7.6c-20.6-9.1-31.9-28-34-50.4
		c-2.2-23.9,8-42.9,28.9-55.5c20.2-12.1,42.8-15.9,65.8-17.9c21.7-1.9,43.5-2.1,65.3-1.4c6.2,0.2,8.2-1.4,8-7.8
		c-0.7-21.5-4.9-27.5-25.5-32.5c-19.7-4.8-39.5-5.3-58.7,0.6c0-12.6,0-25.3,0-38c0-3.7,2.5-4.4,5.2-4.7c34.7-3.6,69.5-7.2,104.1,1.3
		c25.2,6.2,45.3,18.5,51.1,46.2c1.1,5.2,1.1,10.7,1.1,16c0.1,39.7-3.8,79.3-0.1,118.9c0.9,9.5,2.1,19,3.7,28.3
		c0.8,4.5-0.3,5.6-4.7,5.5c-23.6-0.3-47.1-0.5-70.7-0.5c-4.6,0-6.3-2-6.9-6.2C1281.8,1106.9,1280.5,1100.3,1279,1092.1z
		 M1263.9,1009c-14.7,0.7-33.1,4.1-49.5,14.2c-18.3,11.3-21.3,28.3-8.5,45.5c8.7,11.6,23.3,15.4,38.7,9.7
		c24.5-9.1,36.5-26.8,38.2-52.8C1283.9,1008.5,1284.7,1008.6,1263.9,1009z"/>
	<path class="st0" d="M310.4,837.9c32.3-0.2,63-4.2,93.3-10.4c7.1-1.5,4.8,3.3,4.7,6.1c-0.8,20.9-2,41.7-2.6,62.6
		c-2.1,72.3-1.8,144.4,11.2,215.9c1,5.5-0.7,6.6-5.7,6.7c-27.4,0.6-54.9,1.4-82.3,2.4c-5,0.2-6.8-0.9-6.1-6.4
		c8.1-67.1,9.8-134.5,4.8-201.9C325.9,887.7,322.8,862.5,310.4,837.9z"/>
	<path class="st0" d="M1085.7,953.2c14.3-19.2,30.3-32.7,49.9-41.6c10.7-4.8,21.8-7.8,33.5-8.8c3.8-0.3,6.3-0.4,6.1,4.7
		c-0.9,19.2-1.5,38.5-2.3,58.4c-23.5-13.9-46.2-11.1-68.8,0c-9,4.4-14.9,11.3-17.2,21.5c-7.6,34.3-11.1,68.8-5.3,103.8
		c1.8,10.7,5.4,20.7,13.1,30c-33.9,0-66.9,0-100.3,0c9-43.3,10.6-87,8.7-130.9c-1.1-26-3.9-51.7-13.2-76.3c-1.7-4.4-1-5.8,3.8-5.8
		c29.8,0.1,59.6,0.1,89.5-0.1c5.3,0,5.7,2.3,5.3,6.6C1087.4,926.8,1086.7,938.7,1085.7,953.2z"/>
	<path class="st0" d="M780.2,304c12.3,0.3,23.3,4.5,33.6,10.8c4.2,2.6,6.4,6.6,4.2,11.5c-2.2,5.1-6.6,5.6-11.3,3.8
		c-7.5-2.9-10.5-0.5-11.6,7.7c-3.4,25.9-27.1,37.3-49.5,24.3c-4.5-2.6-8.2-3.1-11.2,2.2c-1.3,2.3-3.1,4.4-5.1,6.1
		c-2.6,2.2-5.8,3.1-9.1,1.3c-3.4-1.8-3.9-5-3.6-8.5C719.3,335.6,753.2,304.1,780.2,304z M788.7,338.6c-0.1-5.7-3.2-8.8-8.3-9
		c-5.5-0.2-9.4,3-9.3,8.6c0.1,5,3.5,8.2,8.8,8.3C785.2,346.5,788.1,343.5,788.7,338.6z"/>
	<path class="st0" d="M711.8,753.3c-10.6-39.9-40.3-57-76-67.1c-3.2-0.9-8-1.2-7.1-6.2c0.9-4.6,5.2-4.3,8.8-4
		c18.6,1.6,36.2,6.8,53,15c2.9,1.4,5.8,3.3,8.9,3.9c16.4,3.1,24.5,0.1,29.2-15c3.6-11.5,3.2-22.8-0.6-34.2
		c-1.2-3.5-3.4-8.2,1.6-10.1c5.3-2.1,8.3,2.1,10.1,6.4c6.8,16.8,7.8,34.3,3.6,51.8C737.8,715.7,726.6,734.9,711.8,753.3z"/>
	<path class="st0" d="M618.9,691.2c11.3,0.3,21.5,4,30.9,10.3c2.8,1.9,4.1,3.1,1.5,6.8c-7.1,10.1-6.1,19.7,1.6,26.3
		c6.8,5.8,19.9,4.2,27.9-3c1.7-1.5,2.6-6.9,6.3-3.4c4.7,4.5,8.8,10,8,17.2c-0.4,4.1-3.4,6.7-7.5,6c-32.2-5.3-60.8-17.1-79.3-46
		C603.1,697.3,608,691.3,618.9,691.2z"/>
	<path class="st0" d="M582,485.4c-0.1,7.8-2.4,12.1-8.9,13.1c-2.3,0.4-5.2,0.3-5.6,3.3c-0.4,2.7,2,4,3.7,5.7c2,1.8,6.4,2.7,4.3,6.4
		c-2.3,4-6.2,2.3-9.5,0.8c-15.7-7.1-20.5-24.3-9.9-36.7c4.5-5.3,10.3-7,16.9-4.8C579.5,475.5,581.7,480.8,582,485.4z"/>
	<path class="st0" d="M642.8,476.2c9.7,0.2,18.6,11.1,17.8,21.9c-0.7,9.4-9.7,19.8-18.8,21.8c-2.5,0.6-4.9,0.3-6.5-1.8
		c-2.3-3,0.9-4.1,2.4-5.6c7.6-7.1,7.6-7.2-2.3-10.8c-7-2.6-7.1-8.2-6.4-14C630,480.7,635.9,476.1,642.8,476.2z"/>
	<path class="st0" d="M682.7,1066.7c0-7.7,0.1-15.4-0.1-23.1c-0.1-4.6-0.4-9.6,4.5-11.5c4.1-1.6,1.4,6.3,5.9,5.7
		C690.8,1047.9,687.9,1057.7,682.7,1066.7z"/>
	<path class="st0" d="M991.5,214.4c12.5-0.6,16.8,3.3,17,15.4c0,1.8,0.4,3.6,0,5.3c-0.7,2.8,4.6,4.6,1.8,6.8
		c-3.2,2.5-5.9-1.2-8.6-2.7c0.6-3.2,1.1-6.5,3.1-9.2c0.1,0.2,0.2,0.4,0.4,0.6c0.1,0.1,0.3,0.1,0.4,0.2c-0.3-0.2-0.5-0.5-0.8-0.7
		c1.1-5.1-2.9-7-6-9.5C996.3,218.6,993.9,216.5,991.5,214.4z"/>
	<path class="st0" d="M562.6,174.6c14.1,2.7,26.1-3.1,37.9-9.4c2.3-1.2,4.4-1.3,6.8-1.4C594,174,579.9,180.8,562.6,174.6z"/>
	<path class="st0" d="M149,898.5c0.3,5.1,6.2,1.8,8.9,5.8c-10.5,1.9-19.8,1.6-28.7-2.6C135.5,899.3,142.2,898.8,149,898.5z"/>
	<path class="st0" d="M211.4,898.2c-19-1.1-38.1,1.6-57.1-0.1C173.4,895.4,192.4,895.1,211.4,898.2z"/>
	<path class="st0" d="M979.7,290.7c0,10-9.4,22.6-17.7,23.7C969,307.3,974.5,299.1,979.7,290.7z"/>
	<path class="st0" d="M82.8,941.1c2.3,0.1,5.4-0.5,6.8,0.7c1.4,1.3,9.9,3.8,0.7,6.8c-2.9,1-2,3.9-2.6,6
		C84.9,950.6,84,945.8,82.8,941.1z"/>
	<path class="st0" d="M962,314.4c-6.5,10.2-16,11.8-25.1,4.1C946.1,322,954.2,319.5,962,314.4z"/>
	<path class="st0" d="M1004.8,230.1c0.3,0.2,0.5,0.5,0.8,0.7c-0.1-0.1-0.3-0.1-0.4-0.2C1005,230.4,1004.9,230.2,1004.8,230.1
		L1004.8,230.1z"/>
	<path class="st0" d="M839.8,600.9c59.9-60.1,99.1-91,134.7-107c34.7-15.6,54.2-33.5,138.2-49.8c-0.8-4.7-3.5-5.5-8-3.8
		c-8.1,3-16.7,4-25.1,6c-38,9.1-73.7,23.6-108,42c-57.7,30.8-106.3,72.8-149.3,121.5c-35.5,40.1-65.6,84-91.8,130.5
		c-6.7,11.9-12.1,24.5-15.9,37.6c-3.5,12-6.6,29.5-8.8,41.7c9.7-25.6,20.2-60.6,36.6-87.2C752,717.4,779.8,661,839.8,600.9z"/>
</g>
</svg>
