<svg height="464pt" viewBox="0 0 464 464" width="464pt" xmlns="http://www.w3.org/2000/svg"><path d="m117.144531 326.167969-13.832031 13.832031 20.6875 20.6875 14.808594-14.808594c-8-5.679687-15.273438-12.292968-21.664063-19.710937zm0 0"/><path d="m128 439.144531v-7.144531h-13.3125c4.351562 2.550781 8.808594 4.878906 13.3125 7.144531zm0 0"/><path d="m80.6875 340-14.34375-14.34375 11.3125-11.3125 14.34375 14.34375 15.433594-15.429688c-12.25-18.808593-19.433594-41.195312-19.433594-65.257812 0-15.0625 2.910156-29.433594 8-42.726562v-161.257813c-60.375 43.632813-96 112.855469-96 187.984375 0 50.910156 17.054688 100.535156 47.871094 140.816406zm0 0"/><path d="m208 320c2.28125 0 4.527344-.136719 6.753906-.34375.910156-.089844 1.804688-.230469 2.710938-.351562 1.277344-.167969 2.558594-.351563 3.824218-.585938 1.085938-.207031 2.160157-.453125 3.230469-.703125 1.054688-.246094 2.113281-.519531 3.152344-.816406 1.105469-.3125 2.191406-.648438 3.28125-1.015625 1.023437-.34375 2.039063-.726563 3.039063-1.113282 1.015624-.390624 2.03125-.789062 3.023437-1.222656 1.144531-.503906 2.265625-1.0625 3.375-1.632812.800781-.398438 1.609375-.78125 2.402344-1.214844 1.613281-.894531 3.183593-1.855469 4.71875-2.871094.257812-.167968.535156-.320312.792969-.488281 7.617187-5.160156 14.191406-11.746094 19.34375-19.359375.105468-.160156.191406-.328125.296874-.480469 1.078126-1.625 2.09375-3.304687 3.046876-5.015625.421874-.769531.792968-1.554687 1.183593-2.335937.578125-1.128907 1.144531-2.265625 1.65625-3.433594.441407-.992187.832031-2 1.214844-3.007813.394531-1.007812.777344-2.023437 1.121094-3.054687.359375-1.082031.695312-2.167969 1.007812-3.265625.296875-1.046875.566407-2.113281.816407-3.175781.246093-1.0625.496093-2.136719.703124-3.214844.242188-1.265625.417969-2.542969.585938-3.832031.117188-.90625.261719-1.800782.351562-2.703125.230469-2.234375.367188-4.480469.367188-6.761719 0-39.695312-32.296875-72-72-72-2.28125 0-4.527344.136719-6.753906.34375-.910156.089844-1.804688.230469-2.710938.351562-1.277344.167969-2.558594.351563-3.824218.585938-1.078126.207031-2.152344.445312-3.222657.703125-1.0625.246094-2.121093.519531-3.167969.816406-1.097656.3125-2.191406.648438-3.273437 1.015625-1.023437.34375-2.039063.726563-3.046875 1.121094-1.015625.390625-2.023438.78125-3.023438 1.222656-1.144531.503906-2.265624 1.0625-3.382812 1.632813-.800781.398437-1.609375.78125-2.394531 1.214843-1.625.902344-3.207031 1.871094-4.75 2.886719-.25.160157-.511719.304688-.761719.472657-7.617188 5.160156-14.191406 11.746093-19.351562 19.351562-.113282.167969-.207032.34375-.320313.511719-1.078125 1.617187-2.085937 3.28125-3.03125 4.992187-.417969.761719-.792969 1.546875-1.183594 2.320313-.578125 1.136719-1.144531 2.28125-1.664062 3.449219-.433594.984374-.824219 1.992187-1.214844 2.992187-.394531 1.015625-.777344 2.03125-1.128906 3.0625-.367188 1.082031-.695313 2.175781-1.015625 3.273437-.296875 1.039063-.570313 2.09375-.816406 3.160157-.257813 1.070312-.496094 2.144531-.703126 3.222656-.242187 1.265625-.417968 2.542969-.585937 3.832031-.121094.90625-.265625 1.800782-.351563 2.703125-.183593 2.234375-.320312 4.480469-.320312 6.761719 0 39.695312 32.296875 72 72 72zm24-80h16v16h-16zm-32 0h16v16h-16zm-32 0h16v16h-16zm0 0"/><path d="m208 352c57.34375 0 104-46.65625 104-104s-46.65625-104-104-104-104 46.65625-104 104 46.65625 104 104 104zm-87.585938-112.246094c.105469-1.121094.289063-2.226562.433594-3.328125.207032-1.5625.425782-3.113281.710938-4.65625.25-1.335937.5625-2.648437.867187-3.960937.300781-1.289063.621094-2.5625.980469-3.832032.386719-1.359374.800781-2.710937 1.257812-4.046874.414063-1.234376.871094-2.441407 1.34375-3.65625.488282-1.265626.976563-2.53125 1.527344-3.761719.609375-1.367188 1.28125-2.703125 1.953125-4.046875.503907-1 .984375-2.023438 1.527344-3.007813 1.082031-1.960937 2.257813-3.855469 3.488281-5.730469.214844-.328124.398438-.671874.617188-.992187 1.488281-2.207031 3.070312-4.351563 4.757812-6.421875l.03125.023438c3.722656-4.542969 7.890625-8.703126 12.433594-12.425782l-.023438-.03125c2.085938-1.703125 4.246094-3.292968 6.472657-4.789062.160156-.105469.328125-.203125.488281-.304688 2.03125-1.351562 4.101562-2.617187 6.230469-3.792968.914062-.503907 1.855469-.945313 2.792969-1.417969 1.40625-.710938 2.816406-1.414063 4.253906-2.054688 1.195312-.527343 2.417968-1 3.640625-1.472656 1.25-.488281 2.496093-.949219 3.769531-1.382813 1.3125-.441406 2.632812-.847656 3.976562-1.230468 1.285157-.371094 2.582032-.699219 3.894532-1 1.304687-.304688 2.601562-.609375 3.921875-.859375 1.550781-.292969 3.117187-.503907 4.6875-.71875 1.101562-.144531 2.191406-.328125 3.304687-.429688 2.726563-.265625 5.476563-.425781 8.246094-.425781 48.519531 0 88 39.480469 88 88 0 2.761719-.160156 5.511719-.414062 8.246094-.105469 1.121094-.289063 2.226562-.433594 3.328125-.207032 1.5625-.425782 3.113281-.710938 4.65625-.25 1.335937-.5625 2.648437-.867187 3.960937-.300781 1.289063-.621094 2.5625-.980469 3.832032-.386719 1.359374-.800781 2.710937-1.257812 4.046874-.414063 1.234376-.871094 2.441407-1.34375 3.65625-.488282 1.265626-.976563 2.53125-1.527344 3.761719-.609375 1.367188-1.28125 2.703125-1.953125 4.046875-.503907 1-.984375 2.023438-1.527344 3.007813-1.082031 1.960937-2.257813 3.855469-3.488281 5.730469-.214844.328124-.398438.671874-.617188.992187-1.488281 2.207031-3.070312 4.351563-4.757812 6.421875l-.03125-.023438c-3.722656 4.542969-7.890625 8.703126-12.433594 12.425782l.023438.03125c-2.085938 1.703125-4.246094 3.292968-6.472657 4.789062-.160156.105469-.328125.203125-.488281.304688-2.03125 1.351562-4.101562 2.617187-6.230469 3.792968-.914062.503907-1.855469.945313-2.792969 1.417969-1.40625.710938-2.816406 1.414063-4.253906 2.054688-1.195312.527343-2.417968 1-3.640625 1.472656-1.25.488281-2.496093.949219-3.769531 1.382813-1.3125.441406-2.632812.847656-3.976562 1.230468-1.285157.371094-2.582032.699219-3.894532 1-1.304687.304688-2.601562.609375-3.921875.859375-1.550781.292969-3.117187.503907-4.6875.71875-1.101562.144531-2.191406.328125-3.304687.429688-2.726563.265625-5.476563.425781-8.246094.425781-48.519531 0-88-39.480469-88-88 0-2.761719.160156-5.511719.414062-8.246094zm0 0"/><path d="m144 32h64v48h-64zm0 0"/><path d="m416 184h16v-69.503906c-9.039062-15.359375-19.726562-29.617188-32-42.496094v32h16zm0 0"/><path d="m320 152h16v32h-16zm0 0"/><path d="m208 128c39.28125 0 74.097656 19.046875 96 48.304688v-40.304688h48v48h16v-80h16v-104h-272v176.304688c21.902344-29.257813 56.71875-48.304688 96-48.304688zm160-32h-14.734375v-16h14.734375zm-128-80h128v16h-128zm0 32h128v16h-128zm0 32h96.167969v16h-96.167969zm-112-64h96v80h-96zm0 0"/><path d="m384 120h16v64h-16zm0 0"/><path d="m92 351.3125-87.71875 87.710938c-2.761719 2.769531-4.28125 6.441406-4.28125 10.34375 0 8.074218 6.558594 14.632812 14.625 14.632812 3.847656 0 7.613281-1.558594 10.34375-4.28125l87.71875-87.71875zm0 0"/><path d="m416 392c0 13.253906-10.746094 24-24 24s-24-10.746094-24-24 10.746094-24 24-24 24 10.746094 24 24zm0 0"/><path d="m448.800781 377.542969c-1.394531-5.453125-3.542969-10.664063-6.417969-15.472657l-2.589843-4.335937 7.910156-11.855469-9.574219-9.582031-11.855468 7.902344-4.335938-2.582031c-4.808594-2.863282-10.015625-5.015626-15.480469-6.410157l-4.890625-1.238281-2.789062-13.96875h-13.546875l-2.789063 13.96875-4.890625 1.238281c-5.460937 1.386719-10.671875 3.546875-15.480469 6.410157l-4.335937 2.582031-11.855469-7.902344-9.574218 9.582031 7.910156 11.855469-2.589844 4.335937c-2.863281 4.816407-5.023438 10.019532-6.417969 15.472657l-1.230469 4.890625-13.976562 2.789062v13.546875l13.96875 2.796875 1.230469 4.890625c1.394531 5.453125 3.542969 10.664063 6.417969 15.472657l2.589843 4.335937-7.910156 11.855469 9.574219 9.582031 11.855468-7.902344 4.335938 2.582031c4.808594 2.863282 10.015625 5.015626 15.480469 6.410157l4.890625 1.238281 2.789062 13.96875h13.546875l2.789063-13.96875 4.890625-1.238281c5.460937-1.386719 10.671875-3.546875 15.480469-6.410157l4.335937-2.582031 11.855469 7.902344 9.574218-9.582031-7.910156-11.855469 2.589844-4.335937c2.863281-4.816407 5.023438-10.019532 6.417969-15.472657l1.230469-4.890625 13.976562-2.789062v-13.546875l-13.96875-2.796875zm-56.800781 54.457031c-22.054688 0-40-17.945312-40-40s17.945312-40 40-40 40 17.945312 40 40-17.945312 40-40 40zm0 0"/><path d="m400 200v104h11.894531l3.425781 17.136719c3.535157 1.167969 6.984376 2.589843 10.296876 4.261719l14.535156-9.6875 5.886718 5.890624c11.90625-28.34375 17.960938-58.425781 17.960938-89.601562 0-10.734375-.921875-21.449219-2.375-32zm0 0"/><path d="m321.136719 415.320312-17.136719-3.433593v-11.886719h-16v57.144531c11.433594-2.832031 22.648438-6.503906 33.59375-11.097656l-5.890625-5.886719 9.695313-14.535156c-1.671876-3.320312-3.101563-6.769531-4.261719-10.304688zm0 0"/><path d="m304 384v-11.886719l17.136719-3.433593c1.167969-3.535157 2.589843-6.984376 4.261719-10.304688l-9.695313-14.535156 28.144531-28.128906 14.535156 9.6875c3.3125-1.671876 6.761719-3.101563 10.296876-4.261719l3.425781-17.136719h11.894531v-104h-66.089844c6.449219 14.710938 10.089844 30.929688 10.089844 48 0 66.167969-53.832031 120-120 120-19.886719 0-38.617188-4.9375-55.152344-13.535156l-17.535156 17.535156 14.34375 14.34375-11.3125 11.3125-14.34375-14.34375-32.6875 32.6875h137.375l32-32zm0 0"/><path d="m240 427.3125v36.472656c10.816406-.359375 21.496094-1.394531 32-3.21875v-60.566406h-4.6875zm0 0"/><path d="m144 446.414062c10.40625 4.265626 21.070312 7.867188 32 10.585938v-25h-32zm0 0"/><path d="m192 460.496094c10.535156 1.847656 21.238281 2.785156 32 3.152344v-31.648438h-32zm0 0"/><path d="m448 56h16v128h-16zm0 0"/></svg>