<?xml version="1.0" encoding="utf-8"?>
<!-- Generator: Adobe Illustrator 25.0.1, SVG Export Plug-In . SVG Version: 6.00 Build 0)  -->
<svg version="1.1" id="Layer_1" xmlns="http://www.w3.org/2000/svg" xmlns:xlink="http://www.w3.org/1999/xlink" x="0px" y="0px"
	 viewBox="0 0 1408 1236" style="enable-background:new 0 0 1408 1236;" xml:space="preserve">
<style type="text/css">
	.st0{opacity:0.99;fill:#FFFFFF;enable-background:new    ;}
	.st1{fill-rule:evenodd;clip-rule:evenodd;fill:#FFFFFF;}
	.st2{fill:#FFFFFF;}
	.st3{opacity:0.91;fill:#FFFFFF;enable-background:new    ;}
</style>
<g>
	<path class="st0" d="M1317.1,354.4c-0.7-0.7-1.5-1.5-2.2-2.2c-28.8-11.4-57.4-23-86-34.9c-2.2-0.8-4.5-1.1-6.9-0.9
		c-4.7,3.8-9.5,7.7-14.3,11.5c-30.4,20.3-63.6,34-99.7,41.1c-45.4,8.9-91.2,13.1-137.4,12.8c-76.4-1.6-152.5-7.1-228.4-16.5
		c-83-10.2-166.1-19.9-249.2-29.3c-65.6-7.4-131.5-10.7-197.5-10c-10.2,0.5-20.4,1.3-30.5,2.5c-95.5,11.1-162.5,60.4-200.9,148
		c-18.2,45.6-28.6,93-31.2,142.1c-3.4,70.6,2.8,140.4,18.7,209.4c5.1,21.4,10.1,42.8,15,64.2c0.7,1.6,1.9,2.7,3.4,3.4
		c27.4,7.9,54.8,15.8,82.2,23.7c1.7,0.4,3.3,0.4,5,0c17.7-14.9,37.2-26.9,58.6-36.1c30.7-12.3,62.5-20.8,95.3-25.5
		c55.8-7.6,111.9-10.5,168.2-8.7c58.7,1.6,117.2,4.9,175.7,10c78.9,7,157.8,13.7,236.8,19.9c49.4,3.7,98.8,5.7,148.3,5.9
		c35.1,0.8,70-1.6,104.7-7.2c106.3-19.5,171.6-81.9,196-187.2C1364.8,576.1,1356.9,464.1,1317.1,354.4z M1334.3,603.1
		c-1.4,38.9-8.5,76.7-21.2,113.4c-19.5,53.9-54.5,94.3-105,121.2c-29,13.6-59.6,22-91.6,24.9c-25.2,2.8-50.4,4.1-75.7,4.1
		c-56.4-0.7-112.6-4.3-168.5-10.9c-79.8-9.5-159.5-19-239.3-28.7c-61.1-7.2-122.4-12.1-183.8-15c-60-2.9-119.8-0.8-179.5,6.2
		c-45.2,5.4-88.8,16.6-130.9,33.6c-18.3,7.8-35.7,17-52.3,27.7c-19-66.2-30.3-133.7-34-202.5c-2.4-46.8,1.3-93.2,11.2-139
		c10.1-44.4,29.6-83.8,58.6-118.4c18.2-20.3,39.3-36.8,63.2-49.5c21.6-10,44.3-16.7,67.9-19.9c15.4-1.8,30.8-3.3,46.1-4.7
		c45.2-0.6,90.3,1.4,135.2,5.9c23.5,2.5,47,5.2,70.4,8.1c76.3,10.5,152.5,21.6,228.7,33c61.7,8.7,123.6,15.6,185.7,20.6
		c62.5,4.8,125,5.2,187.6,1.2c56-3.7,110.4-14.9,163.3-33.6c9.9-3.7,19.7-7.8,29.3-12.2c0.9,0.5,1.4,1.4,1.6,2.5
		C1324.7,446.7,1335.8,524,1334.3,603.1z"/>
	<g>
		<path class="st1" d="M683.7,740.1c0.1-52.8,0-105.5-0.3-158.3c-0.5,0.8-0.8,1.6-0.9,2.5c-12.3,51.9-24.5,103.9-36.8,155.8
			c-21.8,0.2-43.5,0-65.1-0.6c-12.7-51.2-25-102.5-37.1-153.9c-0.1-0.9-0.4-1.7-0.9-2.5c-0.3,52.1-0.4,104.3-0.3,156.4
			c-21.4,0.8-42.9,0.8-64.5,0c-0.3-86-0.4-172-0.3-258c34.5-0.2,69,0,103.4,0.6c10.8,48.3,21.3,96.7,31.5,145.2
			c11.1-48.5,22-97.1,32.7-145.8c34.5,0,69,0,103.4,0c0,86.2,0,172.4,0,258.6C726.9,740.1,705.3,740.1,683.7,740.1z"/>
	</g>
	<g>
		<path class="st1" d="M375.3,481.6c21.4,0,42.8,0,64.2,0c0.5,86.2,0.7,172.4,0.6,258.6c-21.6,0-43.2,0-64.8,0
			C375.3,654,375.3,567.8,375.3,481.6z"/>
	</g>
	<path class="st2" d="M349.4,644.2c-4.7-20.1-16.5-34.6-35.2-43.3c14-9.6,22.4-22.8,25.2-39.6c3.6-46.2-17.7-71.9-63.9-77
		c-46.7-0.9-93.5-1.2-140.2-0.9c0,86.2,0,172.4,0,258.6c44,0.1,88.1,0,132.1-0.3c5.2-0.4,10.4-1,15.6-1.9
		C335.4,728.9,357.5,697,349.4,644.2z M270,686.2c-3.7,0.8-7.4,1.4-11.2,1.9c-19.5,0.3-39,0.4-58.6,0.3c0-50.5,0-100.9,0-151.4
		c17.9-0.1,35.7,0,53.6,0.3c20.1,2.6,27,13.8,20.9,33.3c-3.4,6.8-8.9,10.9-16.5,12.2c-8.1,0.7-16.2,1.2-24.3,1.2
		c-7.3,15.6-14.6,31.3-21.8,47c16.4,0.5,32.8,0.8,49.2,0.9c16.9,1.9,25.5,11.3,25.5,28.4C287.5,673.2,281.9,681.9,270,686.2z"/>
	<path class="st2" d="M966,602.1c10.4-6.8,17.7-16.1,22.1-27.7c11.5-53.5-10-83.1-64.5-88.8c-45.5-0.9-91-1.2-136.5-0.9
		c-0.4,86.2-0.7,172.4-0.6,258.6c44,0.1,88.1,0,132.1-0.3c13.6-0.7,26.7-3.6,39.3-8.7c29.9-13.1,44.8-36.1,44.9-68.9
		C1003.1,636.8,990.9,615.7,966,602.1z M920.5,688.1c-2.1,0.3-4.2,0.7-6.2,1.2c-21,0.3-42,0.4-62.9,0.3c0-50.5,0-100.9,0-151.4
		c19.3-0.3,38.7,0,57.9,0.9c12,2.1,18.3,9.1,18.7,21.2c0.3,14.5-6.8,22.6-21.2,24.3c-7.3,0.2-14.5,0.4-21.8,0.6
		c-7.4,15.7-14.7,31.5-21.8,47.4c15.8,0.2,31.6,0.4,47.4,0.6c18,1,27.1,10.5,27.4,28.4C938.9,675,933.1,683.9,920.5,688.1z"/>
	<path class="st2" d="M1256.1,546.4c-28-44.2-68.4-65.8-121.2-64.8c-8.7,0.9-17.5,2.5-26.2,4.7c-44.8,13.9-74.6,43-89.4,87.5
		c-12,45.1-3.4,85.8,25.5,122.1c33.8,36.9,75.4,51.2,124.9,42.7c43.4-10.1,74.4-35.4,93.2-75.7
		C1278.6,623,1276.3,584.1,1256.1,546.4z M1192.5,656c-21.1,22.7-46.1,28.7-75.1,17.8c-25.8-13.1-39.3-34.2-40.5-63.2
		c1.7-29.6,16.1-50.4,43-62.6c5.8-2,11.6-3.6,17.4-4.7c30.9,0.1,53,14,66.4,41.7C1213.2,610.8,1209.4,634.5,1192.5,656z"/>
	<path class="st2" d="M1340.5,798.7c-4.9,0.7-9.7,2-14.3,4.1c-15.5,10-20.7,23.9-15.6,41.7c8.2,17.8,21.9,24.6,41.1,20.6
		c15.4-5.3,23.5-16.1,24.3-32.4C1374,811.1,1362.2,799.8,1340.5,798.7z M1348,860.1c-12.5,1.8-22.4-2.5-29.6-12.8
		c-7.7-15.8-4.4-28.7,9.7-38.9c3.8-2,7.7-3.4,11.8-4.1c16.6,0.5,26.6,8.8,30.2,24.9C1370.6,845.2,1363.2,855.4,1348,860.1z"/>
	<path class="st3" d="M1354.5,828c2.8-6.8,0.8-11.7-5.9-14.6c-6.4-0.3-12.9-0.4-19.3-0.3c0,13.1,0,26.2,0,39.3c2.3,0,4.6,0,6.9,0
		c0-5.8,0-11.6,0-17.4c2.9-0.1,5.8,0,8.7,0.3c0.5,0.5,1,1,1.6,1.6c0.8,5,1.5,9.9,2.2,15c2.3,0,4.6,0,6.9,0
		c-0.7-5.6-1.4-11.2-2.2-16.8c-0.6-1.3-1.5-2.4-2.8-3.1C1351.9,830.6,1353.2,829.4,1354.5,828z M1346.1,828.9
		c-3.3,0.3-6.6,0.4-10,0.3c0-3.7,0-7.5,0-11.2c3.1-0.1,6.2,0,9.3,0.3C1350.1,821.6,1350.3,825.1,1346.1,828.9z"/>
</g>
</svg>
