<svg id="Layer_3" height="512" viewBox="0 0 64 64" width="512" xmlns="http://www.w3.org/2000/svg" data-name="Layer 3"><path d="m49.735 44.784-11.823-2.7-6 6-5.912-5.908-11.735 2.608a8 8 0 0 0 -6.265 7.809v9.407h48v-9.407a8 8 0 0 0 -6.265-7.809z" fill="#4596ec"/><path d="m35.217 50.674-2.217 3.326h-2l-2.258-3.387 3.17-2.525z" fill="#3477cc"/><path d="m45 16.176 2-10.176h-1.789a23.817 23.817 0 0 1 -13.211-4 23.817 23.817 0 0 1 -13.211 4h-1.789l2 10.176z" fill="#4596ec"/><path d="m32 2a23.817 23.817 0 0 1 -13.211 4h-1.789l1.376 7h18.624a3 3 0 0 0 3-3v-4.577a23.813 23.813 0 0 1 -8-3.423z" fill="#6aabf0"/><path d="m45 20.176v7a13 13 0 0 1 -13 13 13 13 0 0 1 -13-13v-7z" fill="#fee3b8"/><path d="m32 40.176a12.931 12.931 0 0 1 -6-1.476v3.474l5.912 5.912 6-6 .042-3.364a12.933 12.933 0 0 1 -5.954 1.454z" fill="#fee3b8"/><path d="m32 40.176a12.931 12.931 0 0 1 -6-1.476v3.474l5.912 5.912 6-6 .042-3.364a12.933 12.933 0 0 1 -5.954 1.454z" fill="#fee3b8"/><path d="m19 27.176v-4h-.5a3.5 3.5 0 0 0 0 7h.862a13.015 13.015 0 0 1 -.362-3z" fill="#fee3b8"/><path d="m45.5 23.176h-.5v4a13.015 13.015 0 0 1 -.362 3h.862a3.5 3.5 0 0 0 0-7z" fill="#fee3b8"/><rect fill="#3477cc" height="4" rx="2" width="30" x="17" y="16.176"/><path d="m19 20.176 1.05 1.05a16.9 16.9 0 0 0 11.95 4.95 16.9 16.9 0 0 0 11.95-4.95l1.05-1.05z" fill="#4596ec"/><path d="m28 8a4.828 4.828 0 0 0 3.414-1.414l.586-.586.586.586a4.828 4.828 0 0 0 3.414 1.414 4.856 4.856 0 0 1 -2.683 4.342l-1.317.658-1.317-.658a4.856 4.856 0 0 1 -2.683-4.342z" fill="#f7c244"/><g fill="#6aabf0"><path d="m27 52 4.912-3.912-5.912-5.912-3.968.882z"/><path d="m36.912 52 5.078-8.982-4.078-.93-6 6z"/><path d="m49.735 44.784-2.727-.622a7 7 0 0 0 6.992 6.838h1.834a8 8 0 0 0 -6.099-6.216z"/><path d="m10 51a7 7 0 0 0 6.991-6.822l-2.726.606a8 8 0 0 0 -6.099 6.216z"/><path d="m35 62-2-8h-2l-2 8z"/></g><path d="m49.952 43.808-10.952-2.434v-2.092a14.046 14.046 0 0 0 6.41-8.106h.09a4.488 4.488 0 0 0 .5-8.949v-1.235a2.99 2.99 0 0 0 .169-5.578l1.812-9.221a1 1 0 0 0 -.981-1.193h-1.789a22.738 22.738 0 0 1 -12.656-3.832 1 1 0 0 0 -1.11 0 22.738 22.738 0 0 1 -12.656 3.832h-1.789a1 1 0 0 0 -.981 1.193l1.812 9.221a2.99 2.99 0 0 0 .169 5.578v1.235a4.488 4.488 0 0 0 .5 8.949h.09a14.046 14.046 0 0 0 6.41 8.106v2.092l-10.952 2.434a8.944 8.944 0 0 0 -7.048 8.785v9.407a1 1 0 0 0 1 1h48a1 1 0 0 0 1-1v-9.407a8.944 8.944 0 0 0 -7.048-8.785zm4.541 6.192h-.493a6.006 6.006 0 0 1 -5.812-4.535l1.331.295a6.944 6.944 0 0 1 4.974 4.24zm-14.061-6.259-3.814 6.747-3.168-2.524 4.725-4.725zm-8.651 11.259h.438l1.5 6h-3.438zm.684-2h-.93l-1.451-2.177 1.872-1.492 1.93 1.537zm15.535-26.324a2.5 2.5 0 0 1 -2.154 2.465 13.99 13.99 0 0 0 .154-1.965v-2.949a2.5 2.5 0 0 1 2 2.449zm-3-7.5h-26a1 1 0 0 1 0-2h26a1 1 0 0 1 0 2zm-2.481 2a15.831 15.831 0 0 1 -21.038 0zm-23.73-14.176a24.719 24.719 0 0 0 13.211-3.809 24.719 24.719 0 0 0 13.211 3.809h.573l-1.607 8.176h-24.354l-1.607-8.176zm-2.789 19.676a2.5 2.5 0 0 1 2-2.449v2.949a13.99 13.99 0 0 0 .154 1.965 2.5 2.5 0 0 1 -2.154-2.465zm4 .5v-4.647a17.817 17.817 0 0 0 24 0v4.647a12 12 0 0 1 -24 0zm12 14a13.894 13.894 0 0 0 5-.939v1.349l-5.088 5.088-4.912-4.912v-1.525a13.894 13.894 0 0 0 5 .939zm-6.319 2.095 4.732 4.729-3.113 2.482-3.744-6.739zm-11.2 2.489 1.331-.295a6.006 6.006 0 0 1 -5.812 4.535h-.493a6.944 6.944 0 0 1 4.974-4.24zm-5.481 6.833c0-.2.034-.4.05-.593h.95a8.008 8.008 0 0 0 7.932-7.006l3.589-.8 4.605 8.29a1 1 0 0 0 .68.5.974.974 0 0 0 .194.016 1 1 0 0 0 .623-.218l.891-.709 1.408 2.113-1.703 6.814h-10.219v-7h-2v7h-7zm46 8.407h-7v-7h-2v7h-10.219l-1.7-6.814 1.378-2.067.833.663a1 1 0 0 0 .623.218.945.945 0 0 0 .191-.019 1 1 0 0 0 .68-.489l4.691-8.3 3.594.8a8.008 8.008 0 0 0 7.929 7.008h.95c.016.2.05.391.05.593z"/><path d="m30.236 13.236 1.317.659a1 1 0 0 0 .894 0l1.317-.659a5.822 5.822 0 0 0 3.236-5.236 1 1 0 0 0 -1-1 3.8 3.8 0 0 1 -2.707-1.121l-.586-.586a1 1 0 0 0 -1.414 0l-.586.586a3.8 3.8 0 0 1 -2.707 1.121 1 1 0 0 0 -1 1 5.822 5.822 0 0 0 3.236 5.236zm1.764-5.825a5.778 5.778 0 0 0 2.9 1.489 3.83 3.83 0 0 1 -2.026 2.551l-.87.435-.87-.435a3.83 3.83 0 0 1 -2.034-2.551 5.778 5.778 0 0 0 2.9-1.489z"/></svg>