<svg id="Layer_1" height="512" viewBox="0 0 512 512" width="512" xmlns="http://www.w3.org/2000/svg" data-name="Layer 1"><path d="m501.06 82.236v163.949c0 60.7-26.776 112.924-76.07 148.352l-128.441 92.316-47.466-34.115a136.192 136.192 0 0 0 12.517-27.038l30.292 21.773a7.976 7.976 0 0 0 9.456-.1l106.567-76.595c41.594-29.9 63.911-73.357 63.911-124.586v-143.129a8 8 0 0 0 -4.486-7.188c-64.33-38.355-117.393-57.535-170.791-57.535-53.56 0-106.779 19.293-171.371 57.879a7.97 7.97 0 0 0 -3.881 6.844l-.025 142.593a136.611 136.611 0 0 0 -29.172 5.459q-.06-2.456-.063-4.93v-163.949c155.021-97.648 254-97.648 409.022 0zm-369.248 179.02a120.872 120.872 0 1 0 120.872 120.872 120.872 120.872 0 0 0 -120.872-120.872zm0 28.428a36.378 36.378 0 1 1 -36.378 36.378 36.378 36.378 0 0 1 36.378-36.378zm61.011 150.065h-122.023a5.979 5.979 0 0 1 -5.975-6.59 67.31 67.31 0 0 1 133.972 0 5.979 5.979 0 0 1 -5.974 6.59zm115.425-171.034a25.187 25.187 0 1 0 -23.4 0v19.2a11.7 11.7 0 0 0 23.4 0zm-88.806-91.785h10.3v-35.157a66.809 66.809 0 0 1 133.617 0v35.157h10.3a20.806 20.806 0 0 1 20.741 20.745v125.486a20.806 20.806 0 0 1 -20.745 20.745h-110.387a137.725 137.725 0 0 1 2.732 65.32l30.553 21.959 102.047-73.351c37.507-26.958 57.223-65.466 57.223-111.649v-138.594c-60.309-35.54-109.958-53.314-159.277-53.314s-98.968 17.774-159.277 53.314v137.783a136.117 136.117 0 0 1 61.431 17.326v-65.02a20.806 20.806 0 0 1 20.745-20.745zm42.052 0h70.106v-35.157a35.055 35.055 0 0 0 -70.109 0z" fill-rule="evenodd"/></svg>