<svg id="Layer_1" enable-background="new 0 0 512 512" height="512" viewBox="0 0 512 512" width="512" xmlns="http://www.w3.org/2000/svg"><g clip-rule="evenodd" fill-rule="evenodd"><g><g><path d="m501.06 82.236v163.949c0 60.702-26.776 112.924-76.07 148.352l-128.441 92.316-128.445-92.316c-49.29-35.428-76.066-87.65-76.066-148.352v-163.949c155.021-97.647 253.997-97.647 409.022 0z" fill="#8D0101"/><path d="m463.826 103.064c-126.673-75.672-207.881-75.674-334.554 0v143.122c0 48.71 21.008 89.688 60.563 118.117l106.714 76.697 106.71-76.698c39.555-28.43 60.567-69.405 60.567-118.117z" fill="#E32D2D"/></g><g><path d="m229.741 208.687h31.754v-66.91c0-19.248 15.806-35.053 35.054-35.053s35.054 15.806 35.054 35.053v66.91h31.754v-66.91c0-36.775-30.033-66.807-66.808-66.807s-66.808 30.031-66.808 66.807z" fill="#29343f"/><path d="m219.444 176.933h154.211c11.41 0 20.745 9.335 20.745 20.745v125.485c0 11.41-9.335 20.745-20.745 20.745h-154.211c-11.41 0-20.744-9.335-20.744-20.745v-125.486c-.001-11.409 9.334-20.744 20.744-20.744z" fill="#ffe600"/><path d="m308.248 268.716v19.203c0 6.435-5.264 11.699-11.699 11.699s-11.699-5.264-11.699-11.699v-19.203c-8.018-4.214-13.488-12.622-13.488-22.308 0-13.91 11.276-25.187 25.187-25.187 13.91 0 25.187 11.277 25.187 25.187 0 9.687-5.47 18.095-13.488 22.308z" fill="#29343f"/></g><g><ellipse cx="131.812" cy="382.128" fill="#7ed0ed" rx="120.872" ry="120.872" transform="matrix(.707 -.707 .707 .707 -231.599 205.128)"/><circle cx="131.812" cy="346.063" fill="#ffd6bd" r="36.378"/><path d="m198.799 443.159c-3.339-33.957-32.189-60.718-66.986-60.718s-63.647 26.761-66.986 60.718c-.349 3.552 2.406 6.59 5.975 6.59h122.022c3.568.001 6.324-3.038 5.975-6.59z" fill="#4294ff"/></g></g><path d="m73.04 431.743c3.919-28.926 28.77-51.296 58.757-51.305h.014.009c29.987.01 54.838 22.38 58.757 51.305zm30.388-95.686c0-15.64 12.73-28.369 28.384-28.369 15.649 0 28.379 12.73 28.379 28.369 0 15.649-12.729 28.379-28.369 28.379h-.009-.014c-15.641-.001-28.371-12.731-28.371-28.379zm56.871 34c9.702-8.15 15.89-20.361 15.89-34.001 0-24.469-19.908-44.372-44.377-44.372-24.474 0-44.382 19.903-44.382 44.372 0 13.64 6.188 25.851 15.89 34.001-27.44 11.249-46.82 38.25-46.82 69.69 0 4.419 3.58 7.999 7.999 7.999h134.621c4.419 0 7.999-3.58 7.999-7.999 0-31.44-19.38-58.441-46.82-69.69zm136.248-140.842c9.471 0 17.182 7.711 17.182 17.191 0 6.405-3.518 12.239-9.211 15.225-2.627 1.382-4.268 4.108-4.268 7.084v19.201c0 2.01-1.703 3.703-3.702 3.703-2.009 0-3.698-1.693-3.698-3.703v-19.201c0-2.971-1.651-5.702-4.278-7.084-5.683-2.985-9.211-8.82-9.211-15.225-.001-9.48 7.706-17.191 17.186-17.191zm-19.696 43.905v14.796c0 10.862 8.829 19.701 19.696 19.701 10.862 0 19.701-8.839 19.701-19.701v-14.796c8.424-6.202 13.48-16.045 13.48-26.714 0-18.3-14.876-33.189-33.18-33.189-18.3 0-33.189 14.889-33.189 33.189-.001 10.669 5.059 20.512 13.492 26.714zm216.206-26.935v-159.524c-148.219-92.361-244.811-92.361-393.015 0v159.524c0 3.665.109 7.329.306 10.961 6.829-1.721 13.881-2.896 21.092-3.471-.113-2.486-.17-4.99-.17-7.49v-143.125c0-2.811 1.476-5.424 3.9-6.867 67.011-40.033 119.868-57.885 171.376-57.885 51.513 0 104.361 17.852 171.381 57.885 2.41 1.443 3.891 4.056 3.891 6.867v143.125c0 51.48-22.092 94.569-63.889 124.613l-106.709 76.699c-1.401 1-3.042 1.5-4.674 1.5-1.636 0-3.278-.5-4.669-1.5l-37.128-26.69c-2.212 6.999-4.999 13.753-8.311 20.182l50.108 36.01 123.773-88.961c46.902-33.71 72.738-84.091 72.738-141.853zm-119.41-61.257c7.032 0 12.753 5.716 12.753 12.744v125.485c0 7.028-5.721 12.749-12.753 12.749h-121.547c-9.131-23.691-25.068-44.028-45.4-58.602v-79.632c0-7.027 5.712-12.744 12.739-12.744zm-50.046-15.998h-54.112v-27.157c0-14.918 12.14-27.053 27.058-27.053 14.913 0 27.054 12.135 27.054 27.053zm31.76 0h-15.762v-27.157c0-23.742-19.309-43.056-43.051-43.056-23.738 0-43.056 19.314-43.056 43.056v27.157h-15.753v-27.157c0-32.43 26.379-58.809 58.809-58.809 32.421 0 58.814 26.379 58.814 58.809v27.157zm-218.092 77.255c0 2.406.052 4.811.16 7.202 19.12.825 37.18 5.829 53.272 14.126v-69.841c0-15.847 12.89-28.742 28.737-28.742h2.302v-27.157c0-41.25 33.557-74.807 74.807-74.807 41.255 0 74.812 33.557 74.812 74.807v27.157h2.288c15.852 0 28.751 12.895 28.751 28.742v125.485c0 15.852-12.899 28.747-28.751 28.747h-116.558c2.339 9.702 3.589 19.814 3.589 30.223 0 7.461-.641 14.781-1.868 21.898l37.736 27.124 102.045-73.341c37.439-26.912 57.229-65.511 57.229-111.624v-138.568c-120.009-70.704-198.543-70.708-318.552 0v138.569zm-5.457 248.81c62.238 0 112.868-50.631 112.868-112.869 0-62.243-50.63-112.869-112.868-112.869-62.243 0-112.874 50.626-112.874 112.869 0 62.239 50.631 112.869 112.874 112.869zm373.508-419.53c-81.76-51.499-146.153-74.463-208.782-74.463-62.62 0-127.009 22.964-208.768 74.463-2.321 1.467-3.731 4.023-3.731 6.768v163.952c0 5.363.212 10.72.609 16.003-47.797 18.861-81.708 65.516-81.708 119.939 0 71.062 57.809 128.872 128.872 128.872 44.127 0 83.146-22.304 106.389-56.234l53.677 38.58c1.391 1.005 3.033 1.509 4.669 1.509 1.632 0 3.273-.505 4.674-1.509l128.438-92.31c51.202-36.798 79.401-91.801 79.401-154.85v-163.953c0-2.744-1.41-5.301-3.74-6.767z"/></g></svg>