<svg id="Layer_3" height="512" viewBox="0 0 64 64" width="512" xmlns="http://www.w3.org/2000/svg" data-name="Layer 3"><path d="m19 19.176h26a1 1 0 0 0 0-2h-26a1 1 0 0 0 0 2z"/><path d="m40.432 43.741-2.257-.502-4.725 4.725 3.168 2.524z"/><path d="m37 41.586v-1.349a13.782 13.782 0 0 1 -10 0v1.525l4.912 4.912z"/><path d="m23.557 43.743 3.744 6.739 3.112-2.479-4.732-4.732z"/><path d="m46 27.176a13.99 13.99 0 0 1 -.154 1.965 2.493 2.493 0 0 0 .154-4.914z"/><path d="m54 50h.493a6.944 6.944 0 0 0 -4.974-4.24l-1.331-.295a6.006 6.006 0 0 0 5.812 4.535z"/><path d="m44.177 15.176 1.607-8.176h-.573a24.719 24.719 0 0 1 -13.211-3.809 24.719 24.719 0 0 1 -13.211 3.809h-.573l1.607 8.176zm-16.177-8.176a3.8 3.8 0 0 0 2.707-1.121l.586-.586a1 1 0 0 1 1.414 0l.586.586a3.8 3.8 0 0 0 2.707 1.121 1 1 0 0 1 1 1 5.822 5.822 0 0 1 -3.236 5.236l-1.317.659a1 1 0 0 1 -.894 0l-1.317-.659a5.822 5.822 0 0 1 -3.236-5.236 1 1 0 0 1 1-1z"/><path d="m31.13 11.447.87.435.87-.435a3.83 3.83 0 0 0 2.03-2.547 5.778 5.778 0 0 1 -2.9-1.489 5.778 5.778 0 0 1 -2.9 1.489 3.83 3.83 0 0 0 2.03 2.547z"/><path d="m18.154 29.141a13.99 13.99 0 0 1 -.154-1.965v-2.949a2.493 2.493 0 0 0 .154 4.914z"/><path d="m44 27.176v-4.647a17.817 17.817 0 0 1 -24 0v4.647a12 12 0 0 0 24 0z"/><path d="m31.781 55-1.5 6h3.438l-1.5-6z"/><path d="m30.084 50.823 1.451 2.177h.93l1.421-2.132-1.93-1.537z"/><path d="m42.519 21.176h-21.038a15.831 15.831 0 0 0 21.038 0z"/><path d="m54.95 52h-.95a8.008 8.008 0 0 1 -7.932-7.006l-3.594-.8-4.691 8.3a1 1 0 0 1 -.68.489.945.945 0 0 1 -.191.019 1 1 0 0 1 -.623-.218l-.833-.663-1.378 2.067 1.703 6.812h10.219v-7h2v7h7v-8.407c0-.202-.034-.393-.05-.593z"/><path d="m15.812 45.465-1.331.295a6.944 6.944 0 0 0 -4.974 4.24h.493a6.006 6.006 0 0 0 5.812-4.535z"/><path d="m27.623 52.782a1 1 0 0 1 -.623.218.974.974 0 0 1 -.194-.019 1 1 0 0 1 -.68-.5l-4.605-8.281-3.589.8a8.008 8.008 0 0 1 -7.932 7h-.95c-.016.2-.05.391-.05.593v8.407h7v-7h2v7h10.219l1.7-6.814-1.408-2.113z"/></svg>