<svg id="Icons" height="512" viewBox="0 0 60 60" width="512" xmlns="http://www.w3.org/2000/svg"><path d="m33.85 41.93 2.62 5.61a6.029 6.029 0 0 0 5.44 3.46h11.09v-6h-11.09l-2.47-5.29z" fill="#adc7c8"/><path d="m40.588 33.093a6.358 6.358 0 0 1 .446 2.355 6.517 6.517 0 0 1 -12.522 2.533l5.488-3.981z" fill="#8aaaaf"/><path d="m8.233 29.117h6.93v9.923h-6.93z" fill="#8aaaaf" transform="matrix(.927 -.375 .375 .927 -11.928 6.876)"/><path d="m53.665 21.38 1.117 2.76a2.977 2.977 0 0 1 -1.643 3.876l-33.119 13.399a2.976 2.976 0 0 1 -3.876-1.642l-5.934-14.662z" fill="#adc7c8"/><path d="m53.667 21.38-24.423 9.883a2 2 0 0 1 -1.4.029l-25.515-8.94a1.983 1.983 0 0 1 -.089-3.711l43.23-17.493a1.988 1.988 0 0 1 2.59 1.091l6.7 16.561a1.976 1.976 0 0 1 -1.093 2.58z" fill="#d6e6e7"/><path d="m10.626 42.009-1.846.744a1.981 1.981 0 0 1 -2.58-1.1l-3.722-9.2a1.975 1.975 0 0 1 1.092-2.579l1.846-.745a1.986 1.986 0 0 1 2.584 1.092l3.722 9.2a1.989 1.989 0 0 1 -1.096 2.588z" fill="#adc7c8"/><path d="m55 37h3a1 1 0 0 1 1 1v20a1 1 0 0 1 -1 1h-3a3 3 0 0 1 -3-3v-16a3 3 0 0 1 3-3z" fill="#8aaaaf"/><path d="m58 36h-3a4 4 0 0 0 -4 4v4h-8.453l-1.947-4.159a7.471 7.471 0 0 0 1.429-4.393 7.381 7.381 0 0 0 -.221-1.771l11.7-4.734a3.983 3.983 0 0 0 2.2-5.179l-.81-2a2.944 2.944 0 0 0 .787-3.34l-6.7-16.567a3 3 0 0 0 -3.885-1.636l-35.475 14.353a1 1 0 1 0 .75 1.854l35.473-14.354a.994.994 0 0 1 1.286.54l6.7 16.567a.953.953 0 0 1 -.005.743.971.971 0 0 1 -.537.529l-24.419 9.881a.99.99 0 0 1 -.7.014l-25.513-8.939a.984.984 0 0 1 -.045-1.841l3.76-1.522a1 1 0 1 0 -.75-1.853l-3.759 1.521a2.983 2.983 0 0 0 .134 5.586l7.456 2.613.921 2.274-2 .807a2.984 2.984 0 0 0 -3.335-.794l-1.842.746a2.974 2.974 0 0 0 -1.644 3.882l3.719 9.193a2.949 2.949 0 0 0 1.591 1.634 2.985 2.985 0 0 0 2.292.026l1.842-.744h.007a3 3 0 0 0 1.843-2.891l2-.808.37.912a3.976 3.976 0 0 0 5.179 2.2l7.642-3.092a7.463 7.463 0 0 0 5.129 3.581l2.4 5.132a7.03 7.03 0 0 0 6.34 4.029h9.09v4a4 4 0 0 0 4 4h3a2 2 0 0 0 2-2v-20a2 2 0 0 0 -2-2zm-47.752 5.083-1.841.742a.991.991 0 0 1 -1.281-.549l-3.726-9.204a.984.984 0 0 1 .54-1.271l1.846-.744a.993.993 0 0 1 1.28.539l3.723 9.2a.993.993 0 0 1 -.541 1.287zm2.023-2.963-2.971-7.344 1.825-.739 2.975 7.344zm7.375 2.368a1.976 1.976 0 0 1 -2.576-1.088l-5.1-12.608 15.548 5.447a2.994 2.994 0 0 0 2.1-.047l23.495-9.507.741 1.833a1.98 1.98 0 0 1 -1.091 2.574zm10.276-2 10.018-4.054a5.427 5.427 0 0 1 .094 1.014 5.511 5.511 0 0 1 -10.112 3.04zm11.988 11.512a5.02 5.02 0 0 1 -4.534-2.883l-1.966-4.209a7.467 7.467 0 0 0 3.707-1.527l1.883 4.042a1 1 0 0 0 .91.577h9.09v4zm16.09 8h-3a2 2 0 0 1 -2-2v-16a2 2 0 0 1 2-2h3z" fill="#373737"/></svg>