<svg xmlns="http://www.w3.org/2000/svg" xmlns:xlink="http://www.w3.org/1999/xlink" width="500" zoomAndPan="magnify" viewBox="0 0 375 225" height="300" preserveAspectRatio="xMidYMid meet" version="1.0"><path fill="#ffffff" d="M 123.648438 163.570312 C 123.671875 163.59375 123.695312 163.59375 123.742188 163.570312 C 124.113281 163.570312 124.503906 163.59375 124.871094 163.59375 C 124.503906 163.59375 124.113281 163.570312 123.742188 163.570312 C 123.695312 163.59375 123.671875 163.59375 123.648438 163.570312 Z M 123.648438 163.570312 " fill-opacity="1" fill-rule="nonzero"/><path fill="#ffffff" d="M 345.53125 61.699219 C 345.507812 61.628906 345.507812 61.535156 345.484375 61.46875 C 345.460938 61.398438 345.414062 61.328125 345.371094 61.285156 C 345.023438 61.375 344.679688 61.328125 344.332031 61.328125 C 327.449219 61.328125 310.566406 61.304688 293.683594 61.328125 C 287.292969 61.328125 281.15625 62.574219 275.367188 65.320312 C 271.007812 67.371094 267.113281 70.160156 263.492188 73.320312 C 259.683594 76.617188 256.226562 80.261719 252.925781 84.066406 C 246.699219 91.234375 240.496094 98.429688 234.289062 105.625 C 232.144531 108.113281 230 110.582031 227.855469 113.070312 C 227.394531 113.625 227.300781 113.554688 227.832031 114.203125 C 234.039062 121.625 240.242188 129.027344 246.445312 136.453125 C 248.246094 138.621094 250.113281 140.742188 251.84375 142.957031 C 254.449219 146.277344 254.566406 151.09375 251.21875 154.253906 C 248.890625 156.46875 245.476562 156.929688 242.664062 155.429688 C 241.601562 154.855469 240.679688 154.117188 239.917969 153.195312 C 235.421875 147.84375 230.921875 142.472656 226.425781 137.121094 C 223.40625 133.523438 220.382812 129.90625 217.363281 126.308594 C 217.222656 126.144531 217.085938 126.007812 216.921875 125.824219 C 216.207031 126.492188 215.632812 127.253906 215.007812 127.96875 C 208.203125 135.832031 201.425781 143.695312 194.621094 151.578125 C 193.421875 152.960938 191.992188 154.046875 190.191406 154.53125 C 186.847656 155.453125 183.25 153.792969 181.613281 150.632812 C 179.835938 147.246094 180.828125 143.53125 182.695312 141.320312 C 186.015625 137.398438 189.382812 133.523438 192.75 129.628906 C 197.226562 124.441406 201.699219 119.230469 206.152344 114.039062 C 206.613281 113.511719 206.613281 113.511719 206.128906 112.933594 C 201.214844 107.078125 196.304688 101.242188 191.414062 95.386719 C 190.628906 94.441406 190.722656 94.695312 191.414062 93.839844 C 194.414062 90.128906 197.386719 86.441406 200.386719 82.726562 C 200.570312 82.519531 200.6875 82.242188 201.054688 82.105469 C 206.382812 88.492188 211.710938 94.878906 217.085938 101.359375 C 217.707031 100.667969 218.261719 100.019531 218.835938 99.351562 C 223.679688 93.679688 228.640625 88.078125 233.390625 82.335938 C 236.089844 79.085938 238.648438 75.742188 241.394531 72.558594 C 244.023438 69.515625 246.769531 66.609375 249.90625 64.097656 C 250.183594 63.890625 250.460938 63.660156 250.734375 63.449219 C 251.566406 62.804688 252.417969 62.207031 253.320312 61.699219 C 253.320312 61.582031 253.320312 61.46875 253.296875 61.351562 C 252.859375 61.351562 252.417969 61.375 251.980469 61.375 C 178.289062 61.375 104.597656 61.375 30.90625 61.375 C 30.46875 61.375 30.03125 61.304688 29.617188 61.445312 C 29.617188 61.582031 29.640625 61.699219 29.640625 61.835938 C 29.640625 61.976562 29.664062 62.089844 29.664062 62.230469 C 29.664062 96.007812 29.664062 129.789062 29.664062 163.570312 C 29.707031 163.570312 29.753906 163.59375 29.777344 163.640625 C 38.726562 163.640625 47.675781 163.640625 56.625 163.640625 C 65.574219 163.640625 74.523438 163.640625 83.472656 163.617188 C 88.085938 163.617188 92.605469 162.855469 97.011719 161.449219 C 103.375 159.394531 108.867188 155.890625 113.824219 151.511719 C 118.046875 147.796875 121.804688 143.625 125.425781 139.359375 C 130.984375 132.765625 136.429688 126.078125 141.917969 119.414062 C 144.0625 116.808594 146.183594 114.203125 148.351562 111.621094 C 148.652344 111.25 148.722656 110.996094 148.328125 110.695312 C 148.261719 110.652344 148.214844 110.558594 148.167969 110.488281 C 140.070312 101.242188 131.976562 92.019531 123.878906 82.773438 C 122.980469 81.757812 122.335938 80.582031 121.945312 79.316406 C 121.207031 76.941406 121.460938 74.65625 122.773438 72.535156 C 124.597656 69.585938 128.195312 68.222656 131.398438 69.261719 C 133.199219 69.859375 134.558594 71.035156 135.78125 72.445312 C 143.140625 80.8125 150.496094 89.207031 157.855469 97.578125 C 158.199219 97.96875 158.476562 98.382812 158.894531 98.683594 C 159.167969 98.546875 159.285156 98.335938 159.421875 98.152344 C 166.136719 90.015625 172.824219 81.875 179.535156 73.757812 C 180.320312 72.789062 181.082031 71.796875 182.050781 70.992188 C 184.449219 68.984375 187.609375 68.546875 190.261719 69.882812 C 194.734375 72.167969 196.164062 77.910156 192.796875 82.335938 C 190.121094 85.839844 187.214844 89.183594 184.425781 92.597656 C 179.605469 98.453125 174.808594 104.308594 169.988281 110.167969 C 169.480469 110.765625 169.480469 110.789062 169.988281 111.367188 C 171.714844 113.324219 173.445312 115.285156 175.152344 117.246094 C 178.519531 121.097656 181.910156 124.925781 185.277344 128.773438 C 185.761719 129.328125 185.738281 129.328125 185.324219 129.835938 C 182.488281 133.203125 179.628906 136.589844 176.769531 139.957031 C 176.351562 140.441406 176.007812 140.972656 175.453125 141.410156 C 170.054688 135.324219 164.683594 129.28125 159.285156 123.195312 C 158.269531 124.441406 157.324219 125.570312 156.378906 126.722656 C 150.75 133.640625 145.007812 140.441406 139.566406 147.519531 C 136.683594 151.28125 133.660156 154.921875 130.269531 158.242188 C 128.261719 160.179688 126.140625 162 123.765625 163.476562 C 123.765625 163.523438 123.765625 163.570312 123.765625 163.617188 C 124.132812 163.617188 124.527344 163.640625 124.894531 163.640625 C 197.964844 163.640625 271.007812 163.640625 344.078125 163.640625 C 344.515625 163.640625 344.953125 163.640625 345.394531 163.640625 L 345.4375 163.640625 C 345.667969 163.175781 345.484375 162.671875 345.578125 162.210938 C 345.554688 162.164062 345.53125 162.140625 345.53125 162.09375 C 345.53125 162.09375 345.554688 162.070312 345.578125 162.046875 C 345.578125 161.980469 345.578125 161.910156 345.578125 161.839844 C 345.554688 161.792969 345.53125 161.769531 345.53125 161.726562 C 345.53125 161.726562 345.554688 161.703125 345.578125 161.679688 C 345.578125 161.609375 345.578125 161.539062 345.578125 161.472656 C 345.554688 161.425781 345.53125 161.402344 345.53125 161.355469 C 345.53125 161.355469 345.554688 161.332031 345.578125 161.308594 C 345.578125 161.242188 345.578125 161.171875 345.578125 161.101562 C 345.554688 161.054688 345.53125 161.035156 345.53125 160.988281 C 345.53125 160.988281 345.554688 160.964844 345.578125 160.941406 C 345.578125 160.871094 345.578125 160.800781 345.578125 160.734375 C 345.554688 160.6875 345.53125 160.664062 345.53125 160.617188 C 345.53125 160.617188 345.554688 160.59375 345.578125 160.570312 C 345.578125 160.503906 345.578125 160.433594 345.578125 160.363281 C 345.554688 160.320312 345.53125 160.296875 345.53125 160.25 C 345.53125 160.25 345.554688 160.226562 345.578125 160.203125 C 345.578125 160.019531 345.578125 159.835938 345.578125 159.648438 C 345.554688 159.605469 345.53125 159.582031 345.53125 159.535156 C 345.53125 159.535156 345.554688 159.511719 345.578125 159.488281 C 345.578125 159.304688 345.578125 159.121094 345.578125 158.933594 C 345.554688 158.890625 345.53125 158.867188 345.53125 158.820312 C 345.53125 158.820312 345.554688 158.796875 345.578125 158.773438 C 345.578125 158.703125 345.578125 158.636719 345.578125 158.566406 C 345.554688 158.519531 345.53125 158.496094 345.53125 158.449219 C 345.53125 158.449219 345.554688 158.425781 345.578125 158.40625 C 345.578125 158.335938 345.578125 158.265625 345.578125 158.195312 C 345.554688 158.152344 345.53125 158.128906 345.53125 158.082031 C 345.53125 158.082031 345.554688 158.058594 345.578125 158.035156 C 345.578125 157.964844 345.578125 157.898438 345.578125 157.828125 C 345.554688 157.78125 345.53125 157.757812 345.53125 157.710938 C 345.53125 157.710938 345.554688 157.691406 345.578125 157.667969 C 345.578125 157.597656 345.578125 157.527344 345.578125 157.460938 C 345.554688 157.414062 345.53125 157.390625 345.53125 157.34375 C 345.53125 157.34375 345.554688 157.320312 345.578125 157.296875 C 345.578125 157.230469 345.578125 157.160156 345.578125 157.089844 C 345.554688 157.042969 345.53125 157.019531 345.53125 156.976562 C 345.53125 156.976562 345.554688 156.953125 345.578125 156.929688 C 345.578125 156.859375 345.578125 156.789062 345.578125 156.722656 C 345.554688 156.675781 345.53125 156.652344 345.53125 156.605469 C 345.53125 156.605469 345.554688 156.582031 345.578125 156.558594 C 345.578125 156.492188 345.578125 156.421875 345.578125 156.351562 C 345.554688 156.304688 345.53125 156.28125 345.53125 156.238281 C 345.53125 156.238281 345.554688 156.214844 345.578125 156.191406 C 345.578125 156.121094 345.578125 156.050781 345.578125 155.984375 C 345.554688 155.9375 345.53125 155.914062 345.53125 155.867188 C 345.53125 155.867188 345.554688 155.84375 345.578125 155.820312 C 345.578125 155.753906 345.578125 155.683594 345.578125 155.613281 C 345.554688 155.566406 345.53125 155.546875 345.53125 155.5 C 345.53125 155.5 345.554688 155.476562 345.578125 155.453125 C 345.578125 155.382812 345.578125 155.316406 345.578125 155.246094 C 345.554688 155.199219 345.53125 155.175781 345.53125 155.128906 C 345.53125 155.128906 345.554688 155.105469 345.578125 155.085938 C 345.578125 155.015625 345.578125 154.945312 345.578125 154.875 C 345.554688 154.832031 345.53125 154.808594 345.53125 154.761719 C 345.53125 154.761719 345.554688 154.738281 345.578125 154.714844 C 345.578125 154.644531 345.578125 154.578125 345.578125 154.507812 C 345.554688 154.460938 345.53125 154.4375 345.53125 154.390625 C 345.53125 154.390625 345.554688 154.371094 345.578125 154.347656 C 345.578125 154.277344 345.578125 154.207031 345.578125 154.140625 C 345.554688 154.09375 345.53125 154.070312 345.53125 154.023438 C 345.53125 154.023438 345.554688 154 345.578125 153.976562 C 345.578125 153.792969 345.578125 153.609375 345.578125 153.425781 C 345.554688 153.378906 345.53125 153.355469 345.53125 153.308594 C 345.53125 153.308594 345.554688 153.285156 345.578125 153.261719 C 345.578125 153.191406 345.578125 153.125 345.578125 153.054688 C 345.554688 153.007812 345.53125 152.984375 345.53125 152.941406 C 345.53125 152.941406 345.554688 152.917969 345.578125 152.894531 C 345.578125 152.824219 345.578125 152.753906 345.578125 152.6875 C 345.554688 152.640625 345.53125 152.617188 345.53125 152.570312 C 345.53125 152.570312 345.554688 152.546875 345.578125 152.523438 C 345.578125 152.457031 345.578125 152.386719 345.578125 152.316406 C 345.554688 152.269531 345.53125 152.246094 345.53125 152.203125 C 345.53125 152.203125 345.554688 152.179688 345.578125 152.15625 C 345.578125 152.085938 345.578125 152.015625 345.578125 151.949219 C 345.554688 151.902344 345.53125 151.878906 345.53125 151.832031 C 345.53125 151.832031 345.554688 151.808594 345.578125 151.785156 C 345.578125 151.71875 345.578125 151.648438 345.578125 151.578125 C 345.554688 151.53125 345.53125 151.511719 345.53125 151.464844 C 345.53125 151.464844 345.554688 151.441406 345.578125 151.417969 C 345.578125 151.347656 345.578125 151.28125 345.578125 151.210938 C 345.554688 151.164062 345.53125 151.140625 345.53125 151.09375 C 345.53125 151.09375 345.554688 151.070312 345.578125 151.046875 C 345.578125 150.980469 345.578125 150.910156 345.578125 150.839844 C 345.554688 150.796875 345.53125 150.773438 345.53125 150.726562 C 345.53125 150.726562 345.554688 150.703125 345.578125 150.679688 C 345.578125 150.609375 345.578125 150.542969 345.578125 150.472656 C 345.554688 150.425781 345.53125 150.402344 345.53125 150.355469 C 345.53125 150.355469 345.554688 150.335938 345.578125 150.3125 C 345.578125 150.242188 345.578125 150.171875 345.578125 150.101562 C 345.554688 150.058594 345.53125 150.035156 345.53125 149.988281 C 345.53125 149.988281 345.554688 149.964844 345.578125 149.941406 C 345.578125 149.871094 345.578125 149.804688 345.578125 149.734375 C 345.554688 149.6875 345.53125 149.664062 345.53125 149.621094 C 345.53125 149.621094 345.554688 149.597656 345.578125 149.574219 C 345.578125 149.503906 345.578125 149.433594 345.578125 149.367188 C 345.554688 149.320312 345.53125 149.296875 345.53125 149.25 C 345.53125 149.25 345.554688 149.226562 345.578125 149.203125 C 345.578125 149.136719 345.578125 149.066406 345.578125 148.996094 C 345.554688 148.949219 345.53125 148.925781 345.53125 148.882812 C 345.53125 148.882812 345.554688 148.859375 345.578125 148.835938 C 345.578125 148.652344 345.578125 148.464844 345.578125 148.28125 C 345.554688 148.234375 345.53125 148.210938 345.53125 148.167969 C 345.53125 148.167969 345.554688 148.144531 345.578125 148.121094 C 345.578125 148.050781 345.578125 147.980469 345.578125 147.914062 C 345.554688 147.867188 345.53125 147.84375 345.53125 147.796875 C 345.53125 147.796875 345.554688 147.773438 345.578125 147.75 C 345.578125 147.683594 345.578125 147.613281 345.578125 147.542969 C 345.554688 147.496094 345.53125 147.476562 345.53125 147.429688 C 345.53125 147.429688 345.554688 147.40625 345.578125 147.382812 C 345.578125 147.3125 345.578125 147.242188 345.578125 147.175781 C 345.554688 147.128906 345.53125 147.105469 345.53125 147.058594 C 345.53125 147.058594 345.554688 147.035156 345.578125 147.011719 C 345.578125 146.945312 345.578125 146.875 345.578125 146.804688 C 345.554688 146.761719 345.53125 146.738281 345.53125 146.691406 C 345.53125 146.691406 345.554688 146.667969 345.578125 146.644531 C 345.578125 146.574219 345.578125 146.507812 345.578125 146.4375 C 345.554688 146.390625 345.53125 146.367188 345.53125 146.320312 C 345.53125 146.320312 345.554688 146.296875 345.578125 146.277344 C 345.578125 146.207031 345.578125 146.136719 345.578125 146.066406 C 345.554688 146.023438 345.53125 146 345.53125 145.953125 C 345.53125 145.953125 345.554688 145.929688 345.578125 145.90625 C 345.578125 145.835938 345.578125 145.769531 345.578125 145.699219 C 345.554688 145.652344 345.53125 145.628906 345.53125 145.582031 C 345.53125 145.582031 345.554688 145.5625 345.578125 145.539062 C 345.578125 145.46875 345.578125 145.398438 345.578125 145.332031 C 345.554688 145.285156 345.53125 145.261719 345.53125 145.214844 C 345.53125 145.214844 345.554688 145.191406 345.578125 145.167969 C 345.578125 145.101562 345.578125 145.03125 345.578125 144.960938 C 345.554688 144.914062 345.53125 144.890625 345.53125 144.847656 C 345.53125 144.847656 345.554688 144.824219 345.578125 144.800781 C 345.578125 144.730469 345.578125 144.660156 345.578125 144.59375 C 345.554688 144.546875 345.53125 144.523438 345.53125 144.476562 C 345.53125 144.476562 345.554688 144.453125 345.578125 144.429688 C 345.578125 144.363281 345.578125 144.292969 345.578125 144.222656 C 345.554688 144.175781 345.53125 144.152344 345.53125 144.109375 C 345.53125 144.109375 345.554688 144.085938 345.578125 144.0625 C 345.578125 143.992188 345.578125 143.921875 345.578125 143.855469 C 345.554688 143.808594 345.53125 143.785156 345.53125 143.738281 C 345.53125 143.738281 345.554688 143.714844 345.578125 143.691406 C 345.578125 143.625 345.578125 143.554688 345.578125 143.484375 C 345.554688 143.4375 345.53125 143.417969 345.53125 143.371094 C 345.53125 143.371094 345.554688 143.347656 345.578125 143.324219 C 345.578125 143.253906 345.578125 143.1875 345.578125 143.117188 C 345.554688 143.070312 345.53125 143.046875 345.53125 143 C 345.53125 143 345.554688 142.976562 345.578125 142.957031 C 345.578125 142.886719 345.578125 142.816406 345.578125 142.746094 C 345.554688 142.703125 345.53125 142.679688 345.53125 142.632812 C 345.53125 142.632812 345.554688 142.609375 345.578125 142.585938 C 345.578125 142.515625 345.578125 142.449219 345.578125 142.378906 C 345.554688 142.332031 345.53125 142.308594 345.53125 142.261719 C 345.53125 142.261719 345.554688 142.242188 345.578125 142.21875 C 345.578125 142.148438 345.578125 142.078125 345.578125 142.011719 C 345.554688 141.964844 345.53125 141.941406 345.53125 141.894531 C 345.53125 141.894531 345.554688 141.871094 345.578125 141.847656 C 345.578125 141.777344 345.578125 141.710938 345.578125 141.640625 C 345.554688 141.59375 345.53125 141.570312 345.53125 141.527344 C 345.53125 141.527344 345.554688 141.503906 345.578125 141.480469 C 345.578125 141.410156 345.578125 141.339844 345.578125 141.273438 C 345.554688 141.226562 345.53125 141.203125 345.53125 141.15625 C 345.53125 141.15625 345.554688 141.132812 345.578125 141.109375 C 345.578125 141.042969 345.578125 140.972656 345.578125 140.902344 C 345.554688 140.855469 345.53125 140.832031 345.53125 140.789062 C 345.53125 140.789062 345.554688 140.765625 345.578125 140.742188 C 345.578125 140.671875 345.578125 140.601562 345.578125 140.535156 C 345.554688 140.488281 345.53125 140.464844 345.53125 140.417969 C 345.53125 140.417969 345.554688 140.394531 345.578125 140.371094 C 345.578125 140.304688 345.578125 140.234375 345.578125 140.164062 C 345.554688 140.117188 345.53125 140.097656 345.53125 140.050781 C 345.53125 140.050781 345.554688 140.027344 345.578125 140.003906 C 345.578125 139.933594 345.578125 139.867188 345.578125 139.796875 C 345.554688 139.75 345.53125 139.726562 345.53125 139.679688 C 345.53125 139.679688 345.554688 139.65625 345.578125 139.632812 C 345.578125 139.449219 345.578125 139.265625 345.578125 139.082031 C 345.554688 139.035156 345.53125 139.011719 345.53125 138.964844 C 345.53125 138.964844 345.554688 138.941406 345.578125 138.917969 C 345.578125 138.851562 345.578125 138.78125 345.578125 138.710938 C 345.554688 138.667969 345.53125 138.644531 345.53125 138.597656 C 345.53125 138.597656 345.554688 138.574219 345.578125 138.550781 C 345.578125 138.480469 345.578125 138.414062 345.578125 138.34375 C 345.554688 138.296875 345.53125 138.273438 345.53125 138.226562 C 345.53125 138.226562 345.554688 138.207031 345.578125 138.183594 C 345.578125 138.113281 345.578125 138.042969 345.578125 137.972656 C 345.554688 137.929688 345.53125 137.90625 345.53125 137.859375 C 345.53125 137.859375 345.554688 137.835938 345.578125 137.8125 C 345.578125 137.742188 345.578125 137.675781 345.578125 137.605469 C 345.554688 137.558594 345.53125 137.535156 345.53125 137.492188 C 345.53125 137.492188 345.554688 137.46875 345.578125 137.445312 C 345.578125 137.375 345.578125 137.304688 345.578125 137.238281 C 345.554688 137.191406 345.53125 137.167969 345.53125 137.121094 C 345.53125 137.121094 345.554688 137.097656 345.578125 137.074219 C 345.578125 137.007812 345.578125 136.9375 345.578125 136.867188 C 345.554688 136.820312 345.53125 136.796875 345.53125 136.753906 C 345.53125 136.753906 345.554688 136.730469 345.578125 136.707031 C 345.578125 136.636719 345.578125 136.566406 345.578125 136.5 C 345.554688 136.453125 345.53125 136.429688 345.53125 136.382812 C 345.53125 136.382812 345.554688 136.359375 345.578125 136.335938 C 345.578125 136.269531 345.578125 136.199219 345.578125 136.128906 C 345.554688 136.082031 345.53125 136.0625 345.53125 136.015625 C 345.53125 136.015625 345.554688 135.992188 345.578125 135.96875 C 345.578125 135.898438 345.578125 135.828125 345.578125 135.761719 C 345.554688 135.714844 345.53125 135.691406 345.53125 135.644531 C 345.53125 135.644531 345.554688 135.621094 345.578125 135.597656 C 345.578125 135.53125 345.578125 135.460938 345.578125 135.390625 C 345.554688 135.347656 345.53125 135.324219 345.53125 135.277344 C 345.53125 135.277344 345.554688 135.253906 345.578125 135.230469 C 345.578125 135.160156 345.578125 135.09375 345.578125 135.023438 C 345.554688 134.976562 345.53125 134.953125 345.53125 134.90625 C 345.53125 134.90625 345.554688 134.882812 345.578125 134.863281 C 345.578125 134.792969 345.578125 134.722656 345.578125 134.652344 C 345.554688 134.609375 345.53125 134.585938 345.53125 134.539062 C 345.53125 134.539062 345.554688 134.515625 345.578125 134.492188 C 345.578125 134.421875 345.578125 134.355469 345.578125 134.285156 C 345.554688 134.238281 345.53125 134.214844 345.53125 134.167969 C 345.53125 134.167969 345.554688 134.148438 345.578125 134.125 C 345.578125 134.054688 345.578125 133.984375 345.578125 133.917969 C 345.554688 133.871094 345.53125 133.847656 345.53125 133.800781 C 345.53125 133.800781 345.554688 133.777344 345.578125 133.753906 C 345.578125 133.6875 345.578125 133.617188 345.578125 133.546875 C 345.554688 133.5 345.53125 133.476562 345.53125 133.433594 C 345.53125 133.433594 345.554688 133.410156 345.578125 133.386719 C 345.578125 133.316406 345.578125 133.246094 345.578125 133.179688 C 345.554688 133.132812 345.53125 133.109375 345.53125 133.0625 C 345.53125 133.0625 345.554688 133.039062 345.578125 133.015625 C 345.578125 132.949219 345.578125 132.878906 345.578125 132.808594 C 345.554688 132.761719 345.53125 132.738281 345.53125 132.695312 C 345.53125 132.695312 345.554688 132.671875 345.578125 132.648438 C 345.578125 132.578125 345.578125 132.507812 345.578125 132.441406 C 345.554688 132.394531 345.53125 132.371094 345.53125 132.324219 C 345.53125 132.324219 345.554688 132.300781 345.578125 132.277344 C 345.578125 132.210938 345.578125 132.140625 345.578125 132.070312 C 345.554688 132.023438 345.53125 132.003906 345.53125 131.957031 C 345.53125 131.957031 345.554688 131.933594 345.578125 131.910156 C 345.578125 131.839844 345.578125 131.773438 345.578125 131.703125 C 345.554688 131.65625 345.53125 131.632812 345.53125 131.585938 C 345.53125 131.585938 345.554688 131.5625 345.578125 131.542969 C 345.578125 131.472656 345.578125 131.402344 345.578125 131.332031 C 345.554688 131.289062 345.53125 131.265625 345.53125 131.21875 C 345.53125 131.21875 345.554688 131.195312 345.578125 131.171875 C 345.578125 131.101562 345.578125 131.035156 345.578125 130.964844 C 345.554688 130.917969 345.53125 130.894531 345.53125 130.847656 C 345.53125 130.847656 345.554688 130.828125 345.578125 130.804688 C 345.578125 130.734375 345.578125 130.664062 345.578125 130.59375 C 345.554688 130.550781 345.53125 130.527344 345.53125 130.480469 C 345.53125 130.480469 345.554688 130.457031 345.578125 130.433594 C 345.578125 130.363281 345.578125 130.296875 345.578125 130.226562 C 345.554688 130.179688 345.53125 130.15625 345.53125 130.113281 C 345.53125 130.113281 345.554688 130.089844 345.578125 130.066406 C 345.578125 129.996094 345.578125 129.925781 345.578125 129.859375 C 345.554688 129.8125 345.53125 129.789062 345.53125 129.742188 C 345.53125 129.742188 345.554688 129.71875 345.578125 129.695312 C 345.578125 129.628906 345.578125 129.558594 345.578125 129.488281 C 345.554688 129.441406 345.53125 129.417969 345.53125 129.375 C 345.53125 129.375 345.554688 129.351562 345.578125 129.328125 C 345.578125 129.257812 345.578125 129.1875 345.578125 129.121094 C 345.554688 129.074219 345.53125 129.050781 345.53125 129.003906 C 345.53125 129.003906 345.554688 128.980469 345.578125 128.957031 C 345.578125 128.890625 345.578125 128.820312 345.578125 128.75 C 345.554688 128.703125 345.53125 128.683594 345.53125 128.636719 C 345.53125 128.636719 345.554688 128.613281 345.578125 128.589844 C 345.578125 128.519531 345.578125 128.453125 345.578125 128.382812 C 345.554688 128.335938 345.53125 128.3125 345.53125 128.265625 C 345.53125 128.265625 345.554688 128.242188 345.578125 128.21875 C 345.578125 128.152344 345.578125 128.082031 345.578125 128.011719 C 345.554688 127.96875 345.53125 127.945312 345.53125 127.898438 C 345.53125 127.898438 345.554688 127.875 345.578125 127.851562 C 345.578125 127.78125 345.578125 127.714844 345.578125 127.644531 C 345.554688 127.597656 345.53125 127.574219 345.53125 127.527344 C 345.53125 127.527344 345.554688 127.503906 345.578125 127.484375 C 345.578125 127.414062 345.578125 127.34375 345.578125 127.273438 C 345.554688 127.230469 345.53125 127.207031 345.53125 127.160156 C 345.53125 127.160156 345.554688 127.136719 345.578125 127.113281 C 345.578125 127.042969 345.578125 126.976562 345.578125 126.90625 C 345.554688 126.859375 345.53125 126.835938 345.53125 126.789062 C 345.53125 126.789062 345.554688 126.769531 345.578125 126.746094 C 345.578125 126.675781 345.578125 126.605469 345.578125 126.539062 C 345.554688 126.492188 345.53125 126.46875 345.53125 126.421875 C 345.53125 126.421875 345.554688 126.398438 345.578125 126.375 C 345.578125 126.308594 345.578125 126.238281 345.578125 126.167969 C 345.554688 126.121094 345.53125 126.097656 345.53125 126.054688 C 345.53125 126.054688 345.554688 126.03125 345.578125 126.007812 C 345.578125 125.9375 345.578125 125.867188 345.578125 125.800781 C 345.554688 125.753906 345.53125 125.730469 345.53125 125.683594 C 345.53125 125.683594 345.554688 125.660156 345.578125 125.636719 C 345.578125 125.570312 345.578125 125.5 345.578125 125.429688 C 345.554688 125.382812 345.53125 125.363281 345.53125 125.316406 C 345.53125 125.316406 345.554688 125.292969 345.578125 125.269531 C 345.578125 125.199219 345.578125 125.128906 345.578125 125.0625 C 345.554688 125.015625 345.53125 124.992188 345.53125 124.945312 C 345.53125 124.945312 345.554688 124.921875 345.578125 124.898438 C 345.578125 124.832031 345.578125 124.761719 345.578125 124.691406 C 345.554688 124.648438 345.53125 124.625 345.53125 124.578125 C 345.53125 124.578125 345.554688 124.554688 345.578125 124.53125 C 345.578125 124.460938 345.578125 124.394531 345.578125 124.324219 C 345.554688 124.277344 345.53125 124.253906 345.53125 124.207031 C 345.53125 124.207031 345.554688 124.183594 345.578125 124.164062 C 345.578125 124.09375 345.578125 124.023438 345.578125 123.953125 C 345.554688 123.910156 345.53125 123.886719 345.53125 123.839844 C 345.53125 123.839844 345.554688 123.816406 345.578125 123.792969 C 345.578125 123.722656 345.578125 123.65625 345.578125 123.585938 C 345.554688 123.539062 345.53125 123.515625 345.53125 123.46875 C 345.53125 123.46875 345.554688 123.449219 345.578125 123.425781 C 345.578125 123.355469 345.578125 123.285156 345.578125 123.21875 C 345.554688 123.171875 345.53125 123.148438 345.53125 123.101562 C 345.53125 123.101562 345.554688 123.078125 345.578125 123.054688 C 345.578125 122.984375 345.578125 122.917969 345.578125 122.847656 C 345.554688 122.800781 345.53125 122.777344 345.53125 122.734375 C 345.53125 122.734375 345.554688 122.710938 345.578125 122.6875 C 345.578125 122.617188 345.578125 122.546875 345.578125 122.480469 C 345.554688 122.433594 345.53125 122.410156 345.53125 122.363281 C 345.53125 122.363281 345.554688 122.339844 345.578125 122.316406 C 345.578125 122.25 345.578125 122.179688 345.578125 122.109375 C 345.554688 122.0625 345.53125 122.039062 345.53125 121.996094 C 345.53125 121.996094 345.554688 121.972656 345.578125 121.949219 C 345.578125 121.878906 345.578125 121.808594 345.578125 121.742188 C 345.554688 121.695312 345.53125 121.671875 345.53125 121.625 C 345.53125 121.625 345.554688 121.601562 345.578125 121.578125 C 345.578125 121.511719 345.578125 121.441406 345.578125 121.371094 C 345.554688 121.324219 345.53125 121.304688 345.53125 121.257812 C 345.53125 121.257812 345.554688 121.234375 345.578125 121.210938 C 345.578125 121.140625 345.578125 121.074219 345.578125 121.003906 C 345.554688 120.957031 345.53125 120.933594 345.53125 120.886719 C 345.53125 120.886719 345.554688 120.863281 345.578125 120.84375 C 345.578125 120.773438 345.578125 120.703125 345.578125 120.632812 C 345.554688 120.589844 345.53125 120.566406 345.53125 120.519531 C 345.53125 120.519531 345.554688 120.496094 345.578125 120.472656 C 345.578125 120.402344 345.578125 120.335938 345.578125 120.265625 C 345.554688 120.21875 345.53125 120.195312 345.53125 120.148438 C 345.53125 120.148438 345.554688 120.128906 345.578125 120.105469 C 345.578125 120.035156 345.578125 119.964844 345.578125 119.894531 C 345.554688 119.851562 345.53125 119.828125 345.53125 119.78125 C 345.53125 119.78125 345.554688 119.757812 345.578125 119.734375 C 345.578125 119.664062 345.578125 119.597656 345.578125 119.527344 C 345.554688 119.480469 345.53125 119.457031 345.53125 119.414062 C 345.53125 119.414062 345.554688 119.390625 345.578125 119.367188 C 345.578125 119.296875 345.578125 119.226562 345.578125 119.160156 C 345.554688 119.113281 345.53125 119.089844 345.53125 119.042969 C 345.53125 119.042969 345.554688 119.019531 345.578125 118.996094 C 345.578125 118.929688 345.578125 118.859375 345.578125 118.789062 C 345.554688 118.742188 345.53125 118.71875 345.53125 118.675781 C 345.53125 118.675781 345.554688 118.652344 345.578125 118.628906 C 345.578125 118.558594 345.578125 118.488281 345.578125 118.421875 C 345.554688 118.375 345.53125 118.351562 345.53125 118.304688 C 345.53125 118.304688 345.554688 118.28125 345.578125 118.257812 C 345.578125 118.191406 345.578125 118.121094 345.578125 118.050781 C 345.554688 118.003906 345.53125 117.984375 345.53125 117.9375 C 345.53125 117.9375 345.554688 117.914062 345.578125 117.890625 C 345.578125 117.820312 345.578125 117.75 345.578125 117.683594 C 345.554688 117.636719 345.53125 117.613281 345.53125 117.566406 C 345.53125 117.566406 345.554688 117.542969 345.578125 117.519531 C 345.578125 117.453125 345.578125 117.382812 345.578125 117.3125 C 345.554688 117.269531 345.53125 117.246094 345.53125 117.199219 C 345.53125 117.199219 345.554688 117.175781 345.578125 117.152344 C 345.578125 117.082031 345.578125 117.015625 345.578125 116.945312 C 345.554688 116.898438 345.53125 116.875 345.53125 116.828125 C 345.53125 116.828125 345.554688 116.804688 345.578125 116.785156 C 345.578125 116.714844 345.578125 116.644531 345.578125 116.574219 C 345.554688 116.53125 345.53125 116.507812 345.53125 116.460938 C 345.53125 116.460938 345.554688 116.4375 345.578125 116.414062 C 345.578125 116.34375 345.578125 116.277344 345.578125 116.207031 C 345.554688 116.160156 345.53125 116.136719 345.53125 116.089844 C 345.53125 116.089844 345.554688 116.070312 345.578125 116.046875 C 345.578125 115.976562 345.578125 115.90625 345.578125 115.839844 C 345.554688 115.792969 345.53125 115.769531 345.53125 115.722656 C 345.53125 115.722656 345.554688 115.699219 345.578125 115.675781 C 345.578125 115.609375 345.578125 115.539062 345.578125 115.46875 C 345.554688 115.421875 345.53125 115.398438 345.53125 115.355469 C 345.53125 115.355469 345.554688 115.332031 345.578125 115.308594 C 345.578125 115.238281 345.578125 115.167969 345.578125 115.101562 C 345.554688 115.054688 345.53125 115.03125 345.53125 114.984375 C 345.53125 114.984375 345.554688 114.960938 345.578125 114.9375 C 345.578125 114.871094 345.578125 114.800781 345.578125 114.730469 C 345.554688 114.683594 345.53125 114.660156 345.53125 114.617188 C 345.53125 114.617188 345.554688 114.59375 345.578125 114.570312 C 345.578125 114.5 345.578125 114.429688 345.578125 114.363281 C 345.554688 114.316406 345.53125 114.292969 345.53125 114.246094 C 345.53125 114.246094 345.554688 114.222656 345.578125 114.199219 C 345.578125 114.132812 345.578125 114.0625 345.578125 113.992188 C 345.554688 113.945312 345.53125 113.925781 345.53125 113.878906 C 345.53125 113.878906 345.554688 113.855469 345.578125 113.832031 C 345.578125 113.761719 345.578125 113.695312 345.578125 113.625 C 345.554688 113.578125 345.53125 113.554688 345.53125 113.507812 C 345.53125 113.507812 345.554688 113.484375 345.578125 113.464844 C 345.578125 113.394531 345.578125 113.324219 345.578125 113.253906 C 345.554688 113.210938 345.53125 113.1875 345.53125 113.140625 C 345.53125 113.140625 345.554688 113.117188 345.578125 113.09375 C 345.578125 113.023438 345.578125 112.957031 345.578125 112.886719 C 345.554688 112.839844 345.53125 112.816406 345.53125 112.769531 C 345.53125 112.769531 345.554688 112.75 345.578125 112.726562 C 345.578125 112.65625 345.578125 112.585938 345.578125 112.519531 C 345.554688 112.472656 345.53125 112.449219 345.53125 112.402344 C 345.53125 112.402344 345.554688 112.378906 345.578125 112.355469 C 345.578125 112.285156 345.578125 112.21875 345.578125 112.148438 C 345.554688 112.101562 345.53125 112.078125 345.53125 112.035156 C 345.53125 112.035156 345.554688 112.011719 345.578125 111.988281 C 345.578125 111.917969 345.578125 111.847656 345.578125 111.78125 C 345.554688 111.734375 345.53125 111.710938 345.53125 111.664062 C 345.53125 111.664062 345.554688 111.640625 345.578125 111.617188 C 345.578125 111.550781 345.578125 111.480469 345.578125 111.410156 C 345.554688 111.363281 345.53125 111.339844 345.53125 111.296875 C 345.53125 111.296875 345.554688 111.273438 345.578125 111.25 C 345.578125 111.179688 345.578125 111.109375 345.578125 111.042969 C 345.554688 110.996094 345.53125 110.972656 345.53125 110.925781 C 345.53125 110.925781 345.554688 110.902344 345.578125 110.878906 C 345.578125 110.8125 345.578125 110.742188 345.578125 110.671875 C 345.554688 110.625 345.53125 110.605469 345.53125 110.558594 C 345.53125 110.558594 345.554688 110.535156 345.578125 110.511719 C 345.578125 110.441406 345.578125 110.375 345.578125 110.304688 C 345.554688 110.257812 345.53125 110.234375 345.53125 110.1875 C 345.53125 110.1875 345.554688 110.164062 345.578125 110.140625 C 345.578125 110.074219 345.578125 110.003906 345.578125 109.933594 C 345.554688 109.890625 345.53125 109.867188 345.53125 109.820312 C 345.53125 109.820312 345.554688 109.796875 345.578125 109.773438 C 345.578125 109.703125 345.578125 109.636719 345.578125 109.566406 C 345.554688 109.519531 345.53125 109.496094 345.53125 109.449219 C 345.53125 109.449219 345.554688 109.425781 345.578125 109.40625 C 345.578125 109.335938 345.578125 109.265625 345.578125 109.195312 C 345.554688 109.152344 345.53125 109.128906 345.53125 109.082031 C 345.53125 109.082031 345.554688 109.058594 345.578125 109.035156 C 345.578125 108.964844 345.578125 108.898438 345.578125 108.828125 C 345.554688 108.78125 345.53125 108.757812 345.53125 108.714844 C 345.53125 108.714844 345.554688 108.691406 345.578125 108.667969 C 345.578125 108.597656 345.578125 108.527344 345.578125 108.460938 C 345.554688 108.414062 345.53125 108.390625 345.53125 108.34375 C 345.53125 108.34375 345.554688 108.320312 345.578125 108.296875 C 345.578125 108.230469 345.578125 108.160156 345.578125 108.089844 C 345.554688 108.042969 345.53125 108.019531 345.53125 107.976562 C 345.53125 107.976562 345.554688 107.953125 345.578125 107.929688 C 345.578125 107.859375 345.578125 107.789062 345.578125 107.722656 C 345.554688 107.675781 345.53125 107.652344 345.53125 107.605469 C 345.53125 107.605469 345.554688 107.582031 345.578125 107.558594 C 345.578125 107.492188 345.578125 107.421875 345.578125 107.351562 C 345.554688 107.304688 345.53125 107.285156 345.53125 107.238281 C 345.53125 107.238281 345.554688 107.214844 345.578125 107.191406 C 345.578125 107.121094 345.578125 107.050781 345.578125 106.984375 C 345.554688 106.9375 345.53125 106.914062 345.53125 106.867188 C 345.53125 106.867188 345.554688 106.84375 345.578125 106.820312 C 345.578125 106.753906 345.578125 106.683594 345.578125 106.613281 C 345.554688 106.570312 345.53125 106.546875 345.53125 106.5 C 345.53125 106.5 345.554688 106.476562 345.578125 106.453125 C 345.578125 106.382812 345.578125 106.316406 345.578125 106.246094 C 345.554688 106.199219 345.53125 106.175781 345.53125 106.128906 C 345.53125 106.128906 345.554688 106.105469 345.578125 106.085938 C 345.578125 106.015625 345.578125 105.945312 345.578125 105.875 C 345.554688 105.832031 345.53125 105.808594 345.53125 105.761719 C 345.53125 105.761719 345.554688 105.738281 345.578125 105.714844 C 345.578125 105.644531 345.578125 105.578125 345.578125 105.507812 C 345.554688 105.460938 345.53125 105.4375 345.53125 105.390625 C 345.53125 105.390625 345.554688 105.371094 345.578125 105.347656 C 345.578125 105.277344 345.578125 105.207031 345.578125 105.140625 C 345.554688 105.09375 345.53125 105.070312 345.53125 105.023438 C 345.53125 105.023438 345.554688 105 345.578125 104.976562 C 345.578125 104.910156 345.578125 104.839844 345.578125 104.769531 C 345.554688 104.722656 345.53125 104.699219 345.53125 104.65625 C 345.53125 104.65625 345.554688 104.632812 345.578125 104.609375 C 345.578125 104.539062 345.578125 104.46875 345.578125 104.402344 C 345.554688 104.355469 345.53125 104.332031 345.53125 104.285156 C 345.53125 104.285156 345.554688 104.261719 345.578125 104.238281 C 345.578125 104.171875 345.578125 104.101562 345.578125 104.03125 C 345.554688 103.984375 345.53125 103.960938 345.53125 103.917969 C 345.53125 103.917969 345.554688 103.894531 345.578125 103.871094 C 345.578125 103.800781 345.578125 103.730469 345.578125 103.664062 C 345.554688 103.617188 345.53125 103.59375 345.53125 103.546875 C 345.53125 103.546875 345.554688 103.523438 345.578125 103.5 C 345.578125 103.433594 345.578125 103.363281 345.578125 103.292969 C 345.554688 103.246094 345.53125 103.226562 345.53125 103.179688 C 345.53125 103.179688 345.554688 103.15625 345.578125 103.132812 C 345.578125 103.0625 345.578125 102.996094 345.578125 102.925781 C 345.554688 102.878906 345.53125 102.855469 345.53125 102.808594 C 345.53125 102.808594 345.554688 102.785156 345.578125 102.765625 C 345.578125 102.695312 345.578125 102.625 345.578125 102.554688 C 345.554688 102.511719 345.53125 102.488281 345.53125 102.441406 C 345.53125 102.441406 345.554688 102.417969 345.578125 102.394531 C 345.578125 102.324219 345.578125 102.257812 345.578125 102.1875 C 345.554688 102.140625 345.53125 102.117188 345.53125 102.070312 C 345.53125 102.070312 345.554688 102.050781 345.578125 102.027344 C 345.578125 101.957031 345.578125 101.886719 345.578125 101.816406 C 345.554688 101.773438 345.53125 101.75 345.53125 101.703125 C 345.53125 101.703125 345.554688 101.679688 345.578125 101.65625 C 345.578125 101.585938 345.578125 101.519531 345.578125 101.449219 C 345.554688 101.402344 345.53125 101.378906 345.53125 101.335938 C 345.53125 101.335938 345.554688 101.3125 345.578125 101.289062 C 345.578125 101.21875 345.578125 101.148438 345.578125 101.082031 C 345.554688 101.035156 345.53125 101.011719 345.53125 100.964844 C 345.53125 100.964844 345.554688 100.941406 345.578125 100.917969 C 345.578125 100.851562 345.578125 100.78125 345.578125 100.710938 C 345.554688 100.664062 345.53125 100.640625 345.53125 100.597656 C 345.53125 100.597656 345.554688 100.574219 345.578125 100.550781 C 345.578125 100.480469 345.578125 100.410156 345.578125 100.34375 C 345.554688 100.296875 345.53125 100.273438 345.53125 100.226562 C 345.53125 100.226562 345.554688 100.203125 345.578125 100.179688 C 345.578125 100.113281 345.578125 100.042969 345.578125 99.972656 C 345.554688 99.925781 345.53125 99.90625 345.53125 99.859375 C 345.53125 99.859375 345.554688 99.835938 345.578125 99.8125 C 345.578125 99.742188 345.578125 99.675781 345.578125 99.605469 C 345.554688 99.558594 345.53125 99.535156 345.53125 99.488281 C 345.53125 99.488281 345.554688 99.464844 345.578125 99.441406 C 345.578125 99.375 345.578125 99.304688 345.578125 99.234375 C 345.554688 99.191406 345.53125 99.167969 345.53125 99.121094 C 345.53125 99.121094 345.554688 99.097656 345.578125 99.074219 C 345.578125 99.003906 345.578125 98.9375 345.578125 98.867188 C 345.554688 98.820312 345.53125 98.796875 345.53125 98.75 C 345.53125 98.75 345.554688 98.726562 345.578125 98.707031 C 345.578125 98.636719 345.578125 98.566406 345.578125 98.496094 C 345.554688 98.453125 345.53125 98.429688 345.53125 98.382812 C 345.53125 98.382812 345.554688 98.359375 345.578125 98.335938 C 345.578125 98.265625 345.578125 98.199219 345.578125 98.128906 C 345.554688 98.082031 345.53125 98.058594 345.53125 98.011719 C 345.53125 98.011719 345.554688 97.992188 345.578125 97.96875 C 345.578125 97.898438 345.578125 97.828125 345.578125 97.761719 C 345.554688 97.714844 345.53125 97.691406 345.53125 97.644531 C 345.53125 97.644531 345.554688 97.621094 345.578125 97.597656 C 345.578125 97.53125 345.578125 97.460938 345.578125 97.390625 C 345.554688 97.34375 345.53125 97.320312 345.53125 97.277344 C 345.53125 97.277344 345.554688 97.253906 345.578125 97.230469 C 345.578125 97.160156 345.578125 97.089844 345.578125 97.023438 C 345.554688 96.976562 345.53125 96.953125 345.53125 96.90625 C 345.53125 96.90625 345.554688 96.882812 345.578125 96.859375 C 345.578125 96.792969 345.578125 96.722656 345.578125 96.652344 C 345.554688 96.605469 345.53125 96.585938 345.53125 96.539062 C 345.53125 96.539062 345.554688 96.515625 345.578125 96.492188 C 345.578125 96.421875 345.578125 96.351562 345.578125 96.285156 C 345.554688 96.238281 345.53125 96.214844 345.53125 96.167969 C 345.53125 96.167969 345.554688 96.144531 345.578125 96.121094 C 345.578125 96.054688 345.578125 95.984375 345.578125 95.914062 C 345.554688 95.871094 345.53125 95.847656 345.53125 95.800781 C 345.53125 95.800781 345.554688 95.777344 345.578125 95.753906 C 345.578125 95.683594 345.578125 95.617188 345.578125 95.546875 C 345.554688 95.5 345.53125 95.476562 345.53125 95.429688 C 345.53125 95.429688 345.554688 95.40625 345.578125 95.386719 C 345.578125 95.316406 345.578125 95.246094 345.578125 95.175781 C 345.554688 95.132812 345.53125 95.109375 345.53125 95.0625 C 345.53125 95.0625 345.554688 95.039062 345.578125 95.015625 C 345.578125 94.945312 345.578125 94.878906 345.578125 94.808594 C 345.554688 94.761719 345.53125 94.738281 345.53125 94.691406 C 345.53125 94.691406 345.554688 94.671875 345.578125 94.648438 C 345.578125 94.578125 345.578125 94.507812 345.578125 94.441406 C 345.554688 94.394531 345.53125 94.371094 345.53125 94.324219 C 345.53125 94.324219 345.554688 94.300781 345.578125 94.277344 C 345.578125 94.207031 345.578125 94.140625 345.578125 94.070312 C 345.554688 94.023438 345.53125 94 345.53125 93.957031 C 345.53125 93.957031 345.554688 93.933594 345.578125 93.910156 C 345.578125 93.839844 345.578125 93.769531 345.578125 93.703125 C 345.554688 93.65625 345.53125 93.632812 345.53125 93.585938 C 345.53125 93.585938 345.554688 93.5625 345.578125 93.539062 C 345.578125 93.472656 345.578125 93.402344 345.578125 93.332031 C 345.554688 93.285156 345.53125 93.261719 345.53125 93.21875 C 345.53125 93.21875 345.554688 93.195312 345.578125 93.171875 C 345.578125 93.101562 345.578125 93.03125 345.578125 92.964844 C 345.554688 92.917969 345.53125 92.894531 345.53125 92.847656 C 345.53125 92.847656 345.554688 92.824219 345.578125 92.800781 C 345.578125 92.503906 345.578125 92.203125 345.578125 91.902344 C 345.554688 91.855469 345.53125 91.832031 345.53125 91.789062 C 345.53125 91.789062 345.554688 91.765625 345.578125 91.742188 C 345.578125 91.671875 345.578125 91.601562 345.578125 91.535156 C 345.554688 91.488281 345.53125 91.464844 345.53125 91.417969 C 345.53125 91.417969 345.554688 91.394531 345.578125 91.371094 C 345.578125 91.304688 345.578125 91.234375 345.578125 91.164062 C 345.554688 91.117188 345.53125 91.097656 345.53125 91.050781 C 345.53125 91.050781 345.554688 91.027344 345.578125 91.003906 C 345.578125 90.933594 345.578125 90.867188 345.578125 90.796875 C 345.554688 90.75 345.53125 90.726562 345.53125 90.679688 C 345.53125 90.679688 345.554688 90.65625 345.578125 90.636719 C 345.578125 90.566406 345.578125 90.496094 345.578125 90.425781 C 345.554688 90.382812 345.53125 90.359375 345.53125 90.3125 C 345.53125 90.3125 345.554688 90.289062 345.578125 90.265625 C 345.578125 90.195312 345.578125 90.128906 345.578125 90.058594 C 345.554688 90.011719 345.53125 89.988281 345.53125 89.941406 C 345.53125 89.941406 345.554688 89.921875 345.578125 89.898438 C 345.578125 89.828125 345.578125 89.757812 345.578125 89.6875 C 345.554688 89.644531 345.53125 89.621094 345.53125 89.574219 C 345.53125 89.574219 345.554688 89.550781 345.578125 89.527344 C 345.578125 89.457031 345.578125 89.390625 345.578125 89.320312 C 345.554688 89.273438 345.53125 89.25 345.53125 89.207031 C 345.53125 89.207031 345.554688 89.183594 345.578125 89.160156 C 345.578125 89.089844 345.578125 89.019531 345.578125 88.953125 C 345.554688 88.90625 345.53125 88.882812 345.53125 88.835938 C 345.53125 88.835938 345.554688 88.8125 345.578125 88.789062 C 345.578125 88.722656 345.578125 88.652344 345.578125 88.582031 C 345.554688 88.535156 345.53125 88.511719 345.53125 88.46875 C 345.53125 88.46875 345.554688 88.445312 345.578125 88.421875 C 345.578125 88.351562 345.578125 88.28125 345.578125 88.214844 C 345.554688 88.167969 345.53125 88.144531 345.53125 88.097656 C 345.53125 88.097656 345.554688 88.074219 345.578125 88.050781 C 345.578125 87.984375 345.578125 87.914062 345.578125 87.84375 C 345.554688 87.796875 345.53125 87.777344 345.53125 87.730469 C 345.53125 87.730469 345.554688 87.707031 345.578125 87.683594 C 345.578125 87.613281 345.578125 87.546875 345.578125 87.476562 C 345.554688 87.429688 345.53125 87.40625 345.53125 87.359375 C 345.53125 87.359375 345.554688 87.335938 345.578125 87.3125 C 345.578125 87.246094 345.578125 87.175781 345.578125 87.105469 C 345.554688 87.0625 345.53125 87.039062 345.53125 86.992188 C 345.53125 86.992188 345.554688 86.96875 345.578125 86.945312 C 345.578125 86.875 345.578125 86.808594 345.578125 86.738281 C 345.554688 86.691406 345.53125 86.667969 345.53125 86.621094 C 345.53125 86.621094 345.554688 86.597656 345.578125 86.578125 C 345.578125 86.507812 345.578125 86.4375 345.578125 86.367188 C 345.554688 86.324219 345.53125 86.300781 345.53125 86.253906 C 345.53125 86.253906 345.554688 86.230469 345.578125 86.207031 C 345.578125 86.136719 345.578125 86.070312 345.578125 86 C 345.554688 85.953125 345.53125 85.929688 345.53125 85.886719 C 345.53125 85.886719 345.554688 85.863281 345.578125 85.839844 C 345.578125 85.769531 345.578125 85.699219 345.578125 85.632812 C 345.554688 85.585938 345.53125 85.5625 345.53125 85.515625 C 345.53125 85.515625 345.554688 85.492188 345.578125 85.46875 C 345.578125 85.402344 345.578125 85.332031 345.578125 85.261719 C 345.554688 85.214844 345.53125 85.191406 345.53125 85.148438 C 345.53125 85.148438 345.554688 85.125 345.578125 85.101562 C 345.578125 85.03125 345.578125 84.960938 345.578125 84.894531 C 345.554688 84.847656 345.53125 84.824219 345.53125 84.777344 C 345.53125 84.777344 345.554688 84.753906 345.578125 84.730469 C 345.578125 84.664062 345.578125 84.59375 345.578125 84.523438 C 345.554688 84.476562 345.53125 84.457031 345.53125 84.410156 C 345.53125 84.410156 345.554688 84.386719 345.578125 84.363281 C 345.578125 84.292969 345.578125 84.222656 345.578125 84.15625 C 345.554688 84.109375 345.53125 84.085938 345.53125 84.039062 C 345.53125 84.039062 345.554688 84.015625 345.578125 83.992188 C 345.578125 83.925781 345.578125 83.855469 345.578125 83.785156 C 345.554688 83.742188 345.53125 83.71875 345.53125 83.671875 C 345.53125 83.671875 345.554688 83.648438 345.578125 83.625 C 345.578125 83.554688 345.578125 83.488281 345.578125 83.417969 C 345.554688 83.371094 345.53125 83.347656 345.53125 83.300781 C 345.53125 83.300781 345.554688 83.277344 345.578125 83.257812 C 345.578125 83.1875 345.578125 83.117188 345.578125 83.046875 C 345.554688 83.003906 345.53125 82.980469 345.53125 82.933594 C 345.53125 82.933594 345.554688 82.910156 345.578125 82.886719 C 345.578125 82.816406 345.578125 82.75 345.578125 82.679688 C 345.554688 82.632812 345.53125 82.609375 345.53125 82.5625 C 345.53125 82.5625 345.554688 82.542969 345.578125 82.519531 C 345.578125 82.449219 345.578125 82.378906 345.578125 82.3125 C 345.554688 82.265625 345.53125 82.242188 345.53125 82.195312 C 345.53125 82.195312 345.554688 82.171875 345.578125 82.148438 C 345.578125 82.082031 345.578125 82.011719 345.578125 81.941406 C 345.554688 81.894531 345.53125 81.871094 345.53125 81.828125 C 345.53125 81.828125 345.554688 81.804688 345.578125 81.78125 C 345.578125 81.710938 345.578125 81.640625 345.578125 81.574219 C 345.554688 81.527344 345.53125 81.503906 345.53125 81.457031 C 345.53125 81.457031 345.554688 81.433594 345.578125 81.410156 C 345.578125 81.34375 345.578125 81.273438 345.578125 81.203125 C 345.554688 81.15625 345.53125 81.132812 345.53125 81.089844 C 345.53125 81.089844 345.554688 81.066406 345.578125 81.042969 C 345.578125 80.972656 345.578125 80.902344 345.578125 80.835938 C 345.554688 80.789062 345.53125 80.765625 345.53125 80.71875 C 345.53125 80.71875 345.554688 80.695312 345.578125 80.671875 C 345.578125 80.605469 345.578125 80.535156 345.578125 80.464844 C 345.554688 80.421875 345.53125 80.398438 345.53125 80.351562 C 345.53125 80.351562 345.554688 80.328125 345.578125 80.304688 C 345.578125 80.234375 345.578125 80.167969 345.578125 80.097656 C 345.554688 80.050781 345.53125 80.027344 345.53125 79.980469 C 345.53125 79.980469 345.554688 79.957031 345.578125 79.9375 C 345.578125 79.867188 345.578125 79.796875 345.578125 79.726562 C 345.554688 79.683594 345.53125 79.660156 345.53125 79.613281 C 345.53125 79.613281 345.554688 79.589844 345.578125 79.566406 C 345.578125 79.496094 345.578125 79.429688 345.578125 79.359375 C 345.554688 79.3125 345.53125 79.289062 345.53125 79.242188 C 345.53125 79.242188 345.554688 79.222656 345.578125 79.199219 C 345.578125 79.128906 345.578125 79.058594 345.578125 78.992188 C 345.554688 78.945312 345.53125 78.921875 345.53125 78.875 C 345.53125 78.875 345.554688 78.851562 345.578125 78.828125 C 345.578125 78.757812 345.578125 78.691406 345.578125 78.621094 C 345.554688 78.574219 345.53125 78.550781 345.53125 78.507812 C 345.53125 78.507812 345.554688 78.484375 345.578125 78.460938 C 345.578125 78.390625 345.578125 78.320312 345.578125 78.253906 C 345.554688 78.207031 345.53125 78.183594 345.53125 78.136719 C 345.53125 78.136719 345.554688 78.113281 345.578125 78.089844 C 345.578125 78.023438 345.578125 77.953125 345.578125 77.882812 C 345.554688 77.835938 345.53125 77.8125 345.53125 77.769531 C 345.53125 77.769531 345.554688 77.746094 345.578125 77.722656 C 345.578125 77.652344 345.578125 77.582031 345.578125 77.515625 C 345.554688 77.46875 345.53125 77.445312 345.53125 77.398438 C 345.53125 77.398438 345.554688 77.375 345.578125 77.351562 C 345.578125 77.285156 345.578125 77.214844 345.578125 77.144531 C 345.554688 77.097656 345.53125 77.078125 345.53125 77.03125 C 345.53125 77.03125 345.554688 77.007812 345.578125 76.984375 C 345.578125 76.914062 345.578125 76.847656 345.578125 76.777344 C 345.554688 76.730469 345.53125 76.707031 345.53125 76.660156 C 345.53125 76.660156 345.554688 76.636719 345.578125 76.617188 C 345.578125 76.546875 345.578125 76.476562 345.578125 76.40625 C 345.554688 76.363281 345.53125 76.339844 345.53125 76.292969 C 345.53125 76.292969 345.554688 76.269531 345.578125 76.246094 C 345.578125 76.175781 345.578125 76.109375 345.578125 76.039062 C 345.554688 75.992188 345.53125 75.96875 345.53125 75.921875 C 345.53125 75.921875 345.554688 75.902344 345.578125 75.878906 C 345.578125 75.808594 345.578125 75.738281 345.578125 75.667969 C 345.554688 75.625 345.53125 75.601562 345.53125 75.554688 C 345.53125 75.554688 345.554688 75.53125 345.578125 75.507812 C 345.578125 75.4375 345.578125 75.371094 345.578125 75.300781 C 345.554688 75.253906 345.53125 75.230469 345.53125 75.1875 C 345.53125 75.1875 345.554688 75.164062 345.578125 75.140625 C 345.578125 75.070312 345.578125 75 345.578125 74.933594 C 345.554688 74.886719 345.53125 74.863281 345.53125 74.816406 C 345.53125 74.816406 345.554688 74.792969 345.578125 74.769531 C 345.578125 74.703125 345.578125 74.632812 345.578125 74.5625 C 345.554688 74.515625 345.53125 74.492188 345.53125 74.449219 C 345.53125 74.449219 345.554688 74.425781 345.578125 74.402344 C 345.578125 74.332031 345.578125 74.261719 345.578125 74.195312 C 345.554688 74.148438 345.53125 74.125 345.53125 74.078125 C 345.53125 74.078125 345.554688 74.054688 345.578125 74.03125 C 345.578125 73.964844 345.578125 73.894531 345.578125 73.824219 C 345.554688 73.777344 345.53125 73.757812 345.53125 73.710938 C 345.53125 73.710938 345.554688 73.6875 345.578125 73.664062 C 345.578125 73.59375 345.578125 73.527344 345.578125 73.457031 C 345.554688 73.410156 345.53125 73.386719 345.53125 73.339844 C 345.53125 73.339844 345.554688 73.316406 345.578125 73.292969 C 345.578125 73.226562 345.578125 73.15625 345.578125 73.085938 C 345.554688 73.042969 345.53125 73.019531 345.53125 72.972656 C 345.53125 72.972656 345.554688 72.949219 345.578125 72.925781 C 345.578125 72.855469 345.578125 72.789062 345.578125 72.71875 C 345.554688 72.671875 345.53125 72.648438 345.53125 72.601562 C 345.53125 72.601562 345.554688 72.582031 345.578125 72.558594 C 345.578125 72.488281 345.578125 72.417969 345.578125 72.347656 C 345.554688 72.304688 345.53125 72.28125 345.53125 72.234375 C 345.53125 72.234375 345.554688 72.210938 345.578125 72.1875 C 345.578125 72.117188 345.578125 72.050781 345.578125 71.980469 C 345.554688 71.933594 345.53125 71.910156 345.53125 71.867188 C 345.53125 71.867188 345.554688 71.84375 345.578125 71.820312 C 345.578125 71.75 345.578125 71.679688 345.578125 71.613281 C 345.554688 71.566406 345.53125 71.542969 345.53125 71.496094 C 345.53125 71.496094 345.554688 71.472656 345.578125 71.449219 C 345.578125 71.382812 345.578125 71.3125 345.578125 71.242188 C 345.554688 71.195312 345.53125 71.171875 345.53125 71.128906 C 345.53125 71.128906 345.554688 71.105469 345.578125 71.082031 C 345.578125 71.011719 345.578125 70.941406 345.578125 70.875 C 345.554688 70.828125 345.53125 70.804688 345.53125 70.757812 C 345.53125 70.757812 345.554688 70.734375 345.578125 70.710938 C 345.578125 70.644531 345.578125 70.574219 345.578125 70.503906 C 345.554688 70.457031 345.53125 70.4375 345.53125 70.390625 C 345.53125 70.390625 345.554688 70.367188 345.578125 70.34375 C 345.578125 70.273438 345.578125 70.207031 345.578125 70.136719 C 345.554688 70.089844 345.53125 70.066406 345.53125 70.019531 C 345.53125 70.019531 345.554688 69.996094 345.578125 69.972656 C 345.578125 69.90625 345.578125 69.835938 345.578125 69.765625 C 345.554688 69.722656 345.53125 69.699219 345.53125 69.652344 C 345.53125 69.652344 345.554688 69.628906 345.578125 69.605469 C 345.578125 69.535156 345.578125 69.46875 345.578125 69.398438 C 345.554688 69.351562 345.53125 69.328125 345.53125 69.28125 C 345.53125 69.28125 345.554688 69.257812 345.578125 69.238281 C 345.578125 69.167969 345.578125 69.097656 345.578125 69.027344 C 345.554688 68.984375 345.53125 68.960938 345.53125 68.914062 C 345.53125 68.914062 345.554688 68.890625 345.578125 68.867188 C 345.578125 68.796875 345.578125 68.730469 345.578125 68.660156 C 345.554688 68.613281 345.53125 68.589844 345.53125 68.542969 C 345.53125 68.542969 345.554688 68.523438 345.578125 68.5 C 345.578125 68.429688 345.578125 68.359375 345.578125 68.292969 C 345.554688 68.246094 345.53125 68.222656 345.53125 68.175781 C 345.53125 68.175781 345.554688 68.152344 345.578125 68.128906 C 345.578125 68.0625 345.578125 67.992188 345.578125 67.921875 C 345.554688 67.875 345.53125 67.851562 345.53125 67.808594 C 345.53125 67.808594 345.554688 67.785156 345.578125 67.761719 C 345.578125 67.691406 345.578125 67.621094 345.578125 67.554688 C 345.554688 67.507812 345.53125 67.484375 345.53125 67.4375 C 345.53125 67.4375 345.554688 67.414062 345.578125 67.390625 C 345.578125 67.324219 345.578125 67.253906 345.578125 67.183594 C 345.554688 67.136719 345.53125 67.117188 345.53125 67.070312 C 345.53125 67.070312 345.554688 67.046875 345.578125 67.023438 C 345.578125 66.953125 345.578125 66.882812 345.578125 66.816406 C 345.554688 66.769531 345.53125 66.746094 345.53125 66.699219 C 345.53125 66.699219 345.554688 66.675781 345.578125 66.652344 C 345.578125 66.585938 345.578125 66.515625 345.578125 66.445312 C 345.554688 66.402344 345.53125 66.378906 345.53125 66.332031 C 345.53125 66.332031 345.554688 66.308594 345.578125 66.285156 C 345.578125 66.214844 345.578125 66.148438 345.578125 66.078125 C 345.554688 66.03125 345.53125 66.007812 345.53125 65.960938 C 345.53125 65.960938 345.554688 65.9375 345.578125 65.917969 C 345.578125 65.847656 345.578125 65.777344 345.578125 65.707031 C 345.554688 65.664062 345.53125 65.640625 345.53125 65.59375 C 345.53125 65.59375 345.554688 65.570312 345.578125 65.546875 C 345.578125 65.476562 345.578125 65.410156 345.578125 65.339844 C 345.554688 65.292969 345.53125 65.269531 345.53125 65.222656 C 345.53125 65.222656 345.554688 65.203125 345.578125 65.179688 C 345.578125 65.109375 345.578125 65.039062 345.578125 64.972656 C 345.554688 64.925781 345.53125 64.902344 345.53125 64.855469 C 345.53125 64.855469 345.554688 64.832031 345.578125 64.808594 C 345.578125 64.742188 345.578125 64.671875 345.578125 64.601562 C 345.554688 64.554688 345.53125 64.53125 345.53125 64.488281 C 345.53125 64.488281 345.554688 64.464844 345.578125 64.441406 C 345.578125 64.371094 345.578125 64.300781 345.578125 64.234375 C 345.554688 64.1875 345.53125 64.164062 345.53125 64.117188 C 345.53125 64.117188 345.554688 64.09375 345.578125 64.070312 C 345.578125 64.003906 345.578125 63.933594 345.578125 63.863281 C 345.554688 63.816406 345.53125 63.792969 345.53125 63.75 C 345.53125 63.75 345.554688 63.726562 345.578125 63.703125 C 345.578125 63.632812 345.578125 63.5625 345.578125 63.496094 C 345.554688 63.449219 345.53125 63.425781 345.53125 63.378906 C 345.53125 63.378906 345.554688 63.355469 345.578125 63.332031 C 345.578125 63.265625 345.578125 63.195312 345.578125 63.125 C 345.554688 63.078125 345.53125 63.058594 345.53125 63.011719 C 345.53125 63.011719 345.554688 62.988281 345.578125 62.964844 C 345.578125 62.894531 345.578125 62.828125 345.578125 62.757812 C 345.554688 62.710938 345.53125 62.6875 345.53125 62.640625 C 345.53125 62.640625 345.554688 62.617188 345.578125 62.597656 C 345.578125 62.527344 345.578125 62.457031 345.578125 62.386719 C 345.554688 62.34375 345.53125 62.320312 345.53125 62.273438 C 345.53125 62.273438 345.554688 62.25 345.578125 62.226562 C 345.578125 62.15625 345.578125 62.089844 345.578125 62.019531 C 345.554688 61.972656 345.53125 61.949219 345.53125 61.902344 C 345.53125 61.902344 345.554688 61.882812 345.578125 61.859375 C 345.578125 61.789062 345.578125 61.71875 345.578125 61.652344 C 345.554688 61.605469 345.53125 61.582031 345.53125 61.535156 C 345.53125 61.535156 345.554688 61.511719 345.578125 61.488281 C 345.578125 61.417969 345.578125 61.351562 345.578125 61.28125 C 345.554688 61.234375 345.53125 61.210938 345.53125 61.167969 C 345.53125 61.167969 345.554688 61.144531 345.578125 61.121094 C 345.578125 61.050781 345.578125 60.980469 345.578125 60.914062 C 345.554688 60.867188 345.53125 60.84375 345.53125 60.796875 C 345.53125 60.796875 345.554688 60.773438 345.578125 60.75 C 345.578125 60.683594 345.578125 60.613281 345.578125 60.542969 C 345.554688 60.496094 345.53125 60.472656 345.53125 60.429688 C 345.53125 60.429688 345.554688 60.40625 345.578125 60.382812 C 345.578125 60.3125 345.578125 60.242188 345.578125 60.175781 C 345.554688 60.128906 345.53125 60.105469 345.53125 60.058594 C 345.53125 60.058594 345.554688 60.035156 345.578125 60.011719 C 345.578125 59.945312 345.578125 59.875 345.578125 59.804688 C 345.554688 59.757812 345.53125 59.738281 345.53125 59.691406 C 345.53125 59.691406 345.554688 59.667969 345.578125 59.644531 C 345.578125 59.574219 345.578125 59.507812 345.578125 59.4375 C 345.554688 59.390625 345.53125 59.367188 345.53125 59.320312 C 345.53125 59.320312 345.554688 59.296875 345.578125 59.277344 C 345.578125 59.207031 345.578125 59.136719 345.578125 59.066406 C 345.554688 59.023438 345.53125 59 345.53125 58.953125 C 345.53125 58.953125 345.554688 58.929688 345.578125 58.90625 C 345.578125 58.835938 345.578125 58.769531 345.578125 58.699219 C 345.554688 58.652344 345.53125 58.628906 345.53125 58.582031 C 345.53125 58.582031 345.554688 58.5625 345.578125 58.539062 C 345.578125 58.46875 345.578125 58.398438 345.578125 58.328125 C 345.554688 58.285156 345.53125 58.261719 345.53125 58.214844 C 345.53125 58.214844 345.554688 58.191406 345.578125 58.167969 C 345.578125 58.097656 345.578125 58.03125 345.578125 57.960938 C 345.554688 57.914062 345.53125 57.890625 345.53125 57.847656 C 345.53125 57.847656 345.554688 57.824219 345.578125 57.800781 C 345.578125 57.730469 345.578125 57.660156 345.578125 57.59375 C 345.554688 57.546875 345.53125 57.523438 345.53125 57.476562 C 345.53125 57.476562 345.554688 57.453125 345.578125 57.429688 C 345.578125 57.363281 345.578125 57.292969 345.578125 57.222656 C 345.554688 57.175781 345.53125 57.152344 345.53125 57.109375 C 345.53125 57.109375 345.554688 57.085938 345.578125 57.0625 C 345.578125 56.992188 345.578125 56.921875 345.578125 56.855469 C 345.554688 56.808594 345.53125 56.785156 345.53125 56.738281 C 345.53125 56.738281 345.554688 56.714844 345.578125 56.691406 C 345.578125 56.625 345.578125 56.554688 345.578125 56.484375 C 345.554688 56.4375 345.53125 56.417969 345.53125 56.371094 C 345.53125 56.371094 345.554688 56.347656 345.578125 56.324219 C 345.578125 56.253906 345.578125 56.1875 345.578125 56.117188 C 345.554688 56.09375 345.53125 56.046875 345.53125 56.023438 C 345.484375 61.722656 345.507812 61.699219 345.53125 61.699219 Z M 122.566406 110.167969 C 122.796875 132.808594 104.390625 151.972656 81.140625 151.996094 C 58.445312 152.039062 39.765625 133.457031 39.695312 110.789062 C 39.625 88.214844 57.847656 69.355469 80.867188 69.238281 C 104.34375 69.101562 122.335938 88.167969 122.566406 110.167969 Z M 297.304688 151.996094 C 274.261719 151.972656 255.765625 133.292969 255.855469 110.375 C 255.949219 88.101562 274.214844 69.007812 297.695312 69.238281 C 320.875 69.445312 339.097656 88.605469 338.703125 111.296875 C 338.382812 133.5 320.183594 151.996094 297.304688 151.996094 Z M 297.304688 151.996094 " fill-opacity="1" fill-rule="nonzero"/><path fill="#ffffff" d="M 29.640625 171.132812 C 29.640625 172.886719 29.570312 174.613281 29.730469 176.34375 C 29.960938 178.925781 31.113281 181.046875 33.050781 182.753906 C 35.058594 184.507812 37.457031 185.246094 40.109375 185.246094 C 138.433594 185.246094 236.78125 185.246094 335.105469 185.246094 C 336.488281 185.246094 337.828125 185.058594 339.097656 184.53125 C 342.601562 183.101562 344.699219 180.515625 345.324219 176.757812 C 345.601562 175.167969 345.4375 173.578125 345.460938 171.984375 C 345.484375 170.742188 345.578125 170.925781 344.402344 170.925781 C 239.917969 170.925781 135.414062 170.925781 30.929688 170.925781 C 30.515625 170.925781 30.125 170.949219 29.707031 170.949219 C 29.707031 170.996094 29.683594 171.0625 29.640625 171.132812 Z M 29.640625 171.132812 " fill-opacity="1" fill-rule="nonzero"/><path fill="#ffffff" d="M 31.046875 54.042969 C 135.367188 54.042969 239.6875 54.042969 344.007812 54.042969 C 344.445312 54.042969 344.886719 54.066406 345.324219 54.066406 C 345.394531 54.042969 345.4375 53.996094 345.507812 53.972656 C 345.484375 53.027344 345.507812 52.082031 345.507812 51.136719 C 345.507812 50.191406 345.484375 49.246094 345.371094 48.300781 C 344.769531 43.367188 340.296875 39.769531 335.660156 39.792969 C 236.964844 39.816406 138.25 39.816406 39.558594 39.792969 C 38.335938 39.792969 37.179688 40 36.050781 40.390625 C 32.566406 41.613281 29.9375 45.121094 29.683594 48.808594 C 29.570312 50.398438 29.640625 51.992188 29.617188 53.605469 C 29.730469 53.71875 29.707031 53.882812 29.707031 54.019531 C 30.167969 54.042969 30.609375 54.042969 31.046875 54.042969 Z M 31.046875 54.042969 " fill-opacity="1" fill-rule="nonzero"/><path fill="#ffffff" d="M 123.742188 163.429688 C 123.695312 163.453125 123.628906 163.476562 123.628906 163.5 C 123.628906 163.523438 123.628906 163.546875 123.648438 163.570312 C 123.671875 163.59375 123.695312 163.59375 123.742188 163.570312 C 123.742188 163.546875 123.742188 163.476562 123.742188 163.429688 Z M 123.742188 163.429688 " fill-opacity="1" fill-rule="nonzero"/><path fill="#ffffff" d="M 297.28125 84.433594 C 282.957031 84.386719 271.054688 96.101562 271.054688 110.652344 C 271.078125 125.039062 282.796875 136.777344 297.234375 136.820312 C 311.648438 136.867188 323.503906 125.039062 323.503906 110.652344 C 323.527344 96.171875 311.742188 84.410156 297.28125 84.433594 Z M 297.28125 84.433594 " fill-opacity="1" fill-rule="nonzero"/><path fill="#ffffff" d="M 81.117188 84.410156 C 66.910156 84.410156 54.871094 95.984375 54.917969 110.71875 C 54.964844 125.085938 66.820312 136.84375 81.210938 136.777344 C 95.671875 136.730469 107.390625 124.945312 107.367188 110.511719 C 107.296875 96.125 95.511719 84.410156 81.117188 84.410156 Z M 81.117188 84.410156 " fill-opacity="1" fill-rule="nonzero"/></svg>