<?xml version="1.0" encoding="utf-8"?>
<!-- Generator: Adobe Illustrator 25.0.1, SVG Export Plug-In . SVG Version: 6.00 Build 0)  -->
<svg version="1.1" id="Layer_1" xmlns="http://www.w3.org/2000/svg" xmlns:xlink="http://www.w3.org/1999/xlink" x="0px" y="0px"
	 viewBox="0 0 1408 1236" style="enable-background:new 0 0 1408 1236;" xml:space="preserve">
<style type="text/css">
	.st0{fill:#FFFFFF;}
</style>
<g>
	<path class="st0" d="M426.9,839.4c0.1,0.1,0.2,0.1,0.4,0c1.6,0,3.3,0.1,4.9,0.1c-1.6,0-3.3-0.1-4.9-0.1
		C427.1,839.5,427,839.5,426.9,839.4z"/>
	<path class="st0" d="M1388.9,397.6c-0.1-0.3-0.1-0.7-0.2-1c-0.1-0.3-0.3-0.6-0.5-0.8c-1.5,0.4-3,0.2-4.5,0.2
		c-73.2,0-146.4-0.1-219.6,0c-27.7,0-54.3,5.4-79.4,17.3c-18.9,8.9-35.8,21-51.5,34.7c-16.5,14.3-31.5,30.1-45.8,46.6
		c-27,31.1-53.9,62.3-80.8,93.5c-9.3,10.8-18.6,21.5-27.9,32.3c-2,2.4-2.4,2.1-0.1,4.9c26.9,32.2,53.8,64.3,80.7,96.5
		c7.8,9.4,15.9,18.6,23.4,28.2c11.3,14.4,11.8,35.3-2.7,49c-10.1,9.6-24.9,11.6-37.1,5.1c-4.6-2.5-8.6-5.7-11.9-9.7
		c-19.5-23.2-39-46.5-58.5-69.7c-13.1-15.6-26.2-31.3-39.3-46.9c-0.6-0.7-1.2-1.3-1.9-2.1c-3.1,2.9-5.6,6.2-8.3,9.3
		c-29.5,34.1-58.9,68.2-88.4,102.4c-5.2,6-11.4,10.7-19.2,12.8c-14.5,4-30.1-3.2-37.2-16.9c-7.7-14.7-3.4-30.8,4.7-40.4
		c14.4-17,29-33.8,43.6-50.7c19.4-22.5,38.8-45.1,58.1-67.6c2-2.3,2-2.3-0.1-4.8c-21.3-25.4-42.6-50.7-63.8-76.1c-3.4-4.1-3-3,0-6.7
		c13-16.1,25.9-32.1,38.9-48.2c0.8-0.9,1.3-2.1,2.9-2.7c23.1,27.7,46.2,55.4,69.5,83.5c2.7-3,5.1-5.8,7.6-8.7
		c21-24.6,42.5-48.9,63.1-73.8c11.7-14.1,22.8-28.6,34.7-42.4c11.4-13.2,23.3-25.8,36.9-36.7c1.2-0.9,2.4-1.9,3.6-2.8
		c3.6-2.8,7.3-5.4,11.2-7.6c0-0.5,0-1-0.1-1.5c-1.9,0-3.8,0.1-5.7,0.1c-319.5,0-639,0-958.5,0c-1.9,0-3.8-0.3-5.6,0.3c0,0,0,0,0,0
		c0,0.6,0.1,1.1,0.1,1.7c0,0.6,0.1,1.1,0.1,1.7c0,146.5,0,293,0,439.5c0.2,0,0.4,0.1,0.5,0.3c38.8,0,77.6,0,116.4,0
		s77.6,0,116.4-0.1c20,0,39.6-3.3,58.7-9.4c27.6-8.9,51.4-24.1,72.9-43.1c18.3-16.1,34.6-34.2,50.3-52.7
		c24.1-28.6,47.7-57.6,71.5-86.5c9.3-11.3,18.5-22.6,27.9-33.8c1.3-1.6,1.6-2.7-0.1-4c-0.3-0.2-0.5-0.6-0.7-0.9
		c-35.1-40.1-70.2-80.1-105.3-120.2c-3.9-4.4-6.7-9.5-8.4-15c-3.2-10.3-2.1-20.2,3.6-29.4c7.9-12.8,23.5-18.7,37.4-14.2
		c7.8,2.6,13.7,7.7,19,13.8c31.9,36.3,63.8,72.7,95.7,109c1.5,1.7,2.7,3.5,4.5,4.8c1.2-0.6,1.7-1.5,2.3-2.3
		c29.1-35.3,58.1-70.6,87.2-105.8c3.4-4.2,6.7-8.5,10.9-12c10.4-8.7,24.1-10.6,35.6-4.8c19.4,9.9,25.6,34.8,11,54
		c-11.6,15.2-24.2,29.7-36.3,44.5c-20.9,25.4-41.7,50.8-62.6,76.2c-2.2,2.6-2.2,2.7,0,5.2c7.5,8.5,15,17,22.4,25.5
		c14.6,16.7,29.3,33.3,43.9,50c2.1,2.4,2,2.4,0.2,4.6c-12.3,14.6-24.7,29.3-37.1,43.9c-1.8,2.1-3.3,4.4-5.7,6.3
		c-23.4-26.4-46.7-52.6-70.1-79c-4.4,5.4-8.5,10.3-12.6,15.3c-24.4,30-49.3,59.5-72.9,90.2c-12.5,16.3-25.6,32.1-40.3,46.5
		c-8.7,8.4-17.9,16.3-28.2,22.7c0,0.2,0,0.4,0,0.6c1.6,0,3.3,0.1,4.9,0.1c316.8,0,633.5,0,950.3,0c1.9,0,3.8,0,5.7,0l0.2,0
		c1-2,0.2-4.2,0.6-6.2c-0.1-0.2-0.2-0.3-0.2-0.5c0,0,0.1-0.1,0.2-0.2c0-0.3,0-0.6,0-0.9c-0.1-0.2-0.2-0.3-0.2-0.5
		c0,0,0.1-0.1,0.2-0.2c0-0.3,0-0.6,0-0.9c-0.1-0.2-0.2-0.3-0.2-0.5c0,0,0.1-0.1,0.2-0.2c0-0.3,0-0.6,0-0.9c-0.1-0.2-0.2-0.3-0.2-0.5
		c0,0,0.1-0.1,0.2-0.2c0-0.3,0-0.6,0-0.9c-0.1-0.2-0.2-0.3-0.2-0.5c0,0,0.1-0.1,0.2-0.2c0-0.3,0-0.6,0-0.9c-0.1-0.2-0.2-0.3-0.2-0.5
		c0,0,0.1-0.1,0.2-0.2c0-0.8,0-1.6,0-2.4c-0.1-0.2-0.2-0.3-0.2-0.5c0,0,0.1-0.1,0.2-0.2c0-0.8,0-1.6,0-2.4c-0.1-0.2-0.2-0.3-0.2-0.5
		c0,0,0.1-0.1,0.2-0.2c0-0.3,0-0.6,0-0.9c-0.1-0.2-0.2-0.3-0.2-0.5c0,0,0.1-0.1,0.2-0.2c0-0.3,0-0.6,0-0.9c-0.1-0.2-0.2-0.3-0.2-0.5
		c0,0,0.1-0.1,0.2-0.2c0-0.3,0-0.6,0-0.9c-0.1-0.2-0.2-0.3-0.2-0.5c0,0,0.1-0.1,0.2-0.2c0-0.3,0-0.6,0-0.9c-0.1-0.2-0.2-0.3-0.2-0.5
		c0,0,0.1-0.1,0.2-0.2c0-0.3,0-0.6,0-0.9c-0.1-0.2-0.2-0.3-0.2-0.5c0,0,0.1-0.1,0.2-0.2c0-0.3,0-0.6,0-0.9c-0.1-0.2-0.2-0.3-0.2-0.5
		c0,0,0.1-0.1,0.2-0.2c0-0.3,0-0.6,0-0.9c-0.1-0.2-0.2-0.3-0.2-0.5c0,0,0.1-0.1,0.2-0.2c0-0.3,0-0.6,0-0.9c-0.1-0.2-0.2-0.3-0.2-0.5
		c0,0,0.1-0.1,0.2-0.2c0-0.3,0-0.6,0-0.9c-0.1-0.2-0.2-0.3-0.2-0.5c0,0,0.1-0.1,0.2-0.2c0-0.3,0-0.6,0-0.9c-0.1-0.2-0.2-0.3-0.2-0.5
		c0,0,0.1-0.1,0.2-0.2c0-0.3,0-0.6,0-0.9c-0.1-0.2-0.2-0.3-0.2-0.5c0,0,0.1-0.1,0.2-0.2c0-0.3,0-0.6,0-0.9c-0.1-0.2-0.2-0.3-0.2-0.5
		c0,0,0.1-0.1,0.2-0.2c0-0.3,0-0.6,0-0.9c-0.1-0.2-0.2-0.3-0.2-0.5c0,0,0.1-0.1,0.2-0.2c0-0.8,0-1.6,0-2.4c-0.1-0.2-0.2-0.3-0.2-0.5
		c0,0,0.1-0.1,0.2-0.2c0-0.3,0-0.6,0-0.9c-0.1-0.2-0.2-0.3-0.2-0.5c0,0,0.1-0.1,0.2-0.2c0-0.3,0-0.6,0-0.9c-0.1-0.2-0.2-0.3-0.2-0.5
		c0,0,0.1-0.1,0.2-0.2c0-0.3,0-0.6,0-0.9c-0.1-0.2-0.2-0.3-0.2-0.5c0,0,0.1-0.1,0.2-0.2c0-0.3,0-0.6,0-0.9c-0.1-0.2-0.2-0.3-0.2-0.5
		c0,0,0.1-0.1,0.2-0.2c0-0.3,0-0.6,0-0.9c-0.1-0.2-0.2-0.3-0.2-0.5c0,0,0.1-0.1,0.2-0.2c0-0.3,0-0.6,0-0.9c-0.1-0.2-0.2-0.3-0.2-0.5
		c0,0,0.1-0.1,0.2-0.2c0-0.3,0-0.6,0-0.9c-0.1-0.2-0.2-0.3-0.2-0.5c0,0,0.1-0.1,0.2-0.2c0-0.3,0-0.6,0-0.9c-0.1-0.2-0.2-0.3-0.2-0.5
		c0,0,0.1-0.1,0.2-0.2c0-0.3,0-0.6,0-0.9c-0.1-0.2-0.2-0.3-0.2-0.5c0,0,0.1-0.1,0.2-0.2c0-0.3,0-0.6,0-0.9c-0.1-0.2-0.2-0.3-0.2-0.5
		c0,0,0.1-0.1,0.2-0.2c0-0.3,0-0.6,0-0.9c-0.1-0.2-0.2-0.3-0.2-0.5c0,0,0.1-0.1,0.2-0.2c0-0.3,0-0.6,0-0.9c-0.1-0.2-0.2-0.3-0.2-0.5
		c0,0,0.1-0.1,0.2-0.2c0-0.8,0-1.6,0-2.4c-0.1-0.2-0.2-0.3-0.2-0.5c0,0,0.1-0.1,0.2-0.2c0-0.3,0-0.6,0-0.9c-0.1-0.2-0.2-0.3-0.2-0.5
		c0,0,0.1-0.1,0.2-0.2c0-0.3,0-0.6,0-0.9c-0.1-0.2-0.2-0.3-0.2-0.5c0,0,0.1-0.1,0.2-0.2c0-0.3,0-0.6,0-0.9c-0.1-0.2-0.2-0.3-0.2-0.5
		c0,0,0.1-0.1,0.2-0.2c0-0.3,0-0.6,0-0.9c-0.1-0.2-0.2-0.3-0.2-0.5c0,0,0.1-0.1,0.2-0.2c0-0.3,0-0.6,0-0.9c-0.1-0.2-0.2-0.3-0.2-0.5
		c0,0,0.1-0.1,0.2-0.2c0-0.3,0-0.6,0-0.9c-0.1-0.2-0.2-0.3-0.2-0.5c0,0,0.1-0.1,0.2-0.2c0-0.3,0-0.6,0-0.9c-0.1-0.2-0.2-0.3-0.2-0.5
		c0,0,0.1-0.1,0.2-0.2c0-0.3,0-0.6,0-0.9c-0.1-0.2-0.2-0.3-0.2-0.5c0,0,0.1-0.1,0.2-0.2c0-0.3,0-0.6,0-0.9c-0.1-0.2-0.2-0.3-0.2-0.5
		c0,0,0.1-0.1,0.2-0.2c0-0.3,0-0.6,0-0.9c-0.1-0.2-0.2-0.3-0.2-0.5c0,0,0.1-0.1,0.2-0.2c0-0.3,0-0.6,0-0.9c-0.1-0.2-0.2-0.3-0.2-0.5
		c0,0,0.1-0.1,0.2-0.2c0-0.3,0-0.6,0-0.9c-0.1-0.2-0.2-0.3-0.2-0.5c0,0,0.1-0.1,0.2-0.2c0-0.3,0-0.6,0-0.9c-0.1-0.2-0.2-0.3-0.2-0.5
		c0,0,0.1-0.1,0.2-0.2c0-0.3,0-0.6,0-0.9c-0.1-0.2-0.2-0.3-0.2-0.5c0,0,0.1-0.1,0.2-0.2c0-0.3,0-0.6,0-0.9c-0.1-0.2-0.2-0.3-0.2-0.5
		c0,0,0.1-0.1,0.2-0.2c0-0.3,0-0.6,0-0.9c-0.1-0.2-0.2-0.3-0.2-0.5c0,0,0.1-0.1,0.2-0.2c0-0.3,0-0.6,0-0.9c-0.1-0.2-0.2-0.3-0.2-0.5
		c0,0,0.1-0.1,0.2-0.2c0-0.3,0-0.6,0-0.9c-0.1-0.2-0.2-0.3-0.2-0.5c0,0,0.1-0.1,0.2-0.2c0-0.3,0-0.6,0-0.9c-0.1-0.2-0.2-0.3-0.2-0.5
		c0,0,0.1-0.1,0.2-0.2c0-0.3,0-0.6,0-0.9c-0.1-0.2-0.2-0.3-0.2-0.5c0,0,0.1-0.1,0.2-0.2c0-0.3,0-0.6,0-0.9c-0.1-0.2-0.2-0.3-0.2-0.5
		c0,0,0.1-0.1,0.2-0.2c0-0.3,0-0.6,0-0.9c-0.1-0.2-0.2-0.3-0.2-0.5c0,0,0.1-0.1,0.2-0.2c0-0.3,0-0.6,0-0.9c-0.1-0.2-0.2-0.3-0.2-0.5
		c0,0,0.1-0.1,0.2-0.2c0-0.8,0-1.6,0-2.4c-0.1-0.2-0.2-0.3-0.2-0.5c0,0,0.1-0.1,0.2-0.2c0-0.3,0-0.6,0-0.9c-0.1-0.2-0.2-0.3-0.2-0.5
		c0,0,0.1-0.1,0.2-0.2c0-0.3,0-0.6,0-0.9c-0.1-0.2-0.2-0.3-0.2-0.5c0,0,0.1-0.1,0.2-0.2c0-0.3,0-0.6,0-0.9c-0.1-0.2-0.2-0.3-0.2-0.5
		c0,0,0.1-0.1,0.2-0.2c0-0.3,0-0.6,0-0.9c-0.1-0.2-0.2-0.3-0.2-0.5c0,0,0.1-0.1,0.2-0.2c0-0.3,0-0.6,0-0.9c-0.1-0.2-0.2-0.3-0.2-0.5
		c0,0,0.1-0.1,0.2-0.2c0-0.3,0-0.6,0-0.9c-0.1-0.2-0.2-0.3-0.2-0.5c0,0,0.1-0.1,0.2-0.2c0-0.3,0-0.6,0-0.9c-0.1-0.2-0.2-0.3-0.2-0.5
		c0,0,0.1-0.1,0.2-0.2c0-0.3,0-0.6,0-0.9c-0.1-0.2-0.2-0.3-0.2-0.5c0,0,0.1-0.1,0.2-0.2c0-0.3,0-0.6,0-0.9c-0.1-0.2-0.2-0.3-0.2-0.5
		c0,0,0.1-0.1,0.2-0.2c0-0.3,0-0.6,0-0.9c-0.1-0.2-0.2-0.3-0.2-0.5c0,0,0.1-0.1,0.2-0.2c0-0.3,0-0.6,0-0.9c-0.1-0.2-0.2-0.3-0.2-0.5
		c0,0,0.1-0.1,0.2-0.2c0-0.3,0-0.6,0-0.9c-0.1-0.2-0.2-0.3-0.2-0.5c0,0,0.1-0.1,0.2-0.2c0-0.3,0-0.6,0-0.9c-0.1-0.2-0.2-0.3-0.2-0.5
		c0,0,0.1-0.1,0.2-0.2c0-0.3,0-0.6,0-0.9c-0.1-0.2-0.2-0.3-0.2-0.5c0,0,0.1-0.1,0.2-0.2c0-0.3,0-0.6,0-0.9c-0.1-0.2-0.2-0.3-0.2-0.5
		c0,0,0.1-0.1,0.2-0.2c0-0.3,0-0.6,0-0.9c-0.1-0.2-0.2-0.3-0.2-0.5c0,0,0.1-0.1,0.2-0.2c0-0.3,0-0.6,0-0.9c-0.1-0.2-0.2-0.3-0.2-0.5
		c0,0,0.1-0.1,0.2-0.2c0-0.3,0-0.6,0-0.9c-0.1-0.2-0.2-0.3-0.2-0.5c0,0,0.1-0.1,0.2-0.2c0-0.3,0-0.6,0-0.9c-0.1-0.2-0.2-0.3-0.2-0.5
		c0,0,0.1-0.1,0.2-0.2c0-0.3,0-0.6,0-0.9c-0.1-0.2-0.2-0.3-0.2-0.5c0,0,0.1-0.1,0.2-0.2c0-0.3,0-0.6,0-0.9c-0.1-0.2-0.2-0.3-0.2-0.5
		c0,0,0.1-0.1,0.2-0.2c0-0.3,0-0.6,0-0.9c-0.1-0.2-0.2-0.3-0.2-0.5c0,0,0.1-0.1,0.2-0.2c0-0.3,0-0.6,0-0.9c-0.1-0.2-0.2-0.3-0.2-0.5
		c0,0,0.1-0.1,0.2-0.2c0-0.3,0-0.6,0-0.9c-0.1-0.2-0.2-0.3-0.2-0.5c0,0,0.1-0.1,0.2-0.2c0-0.3,0-0.6,0-0.9c-0.1-0.2-0.2-0.3-0.2-0.5
		c0,0,0.1-0.1,0.2-0.2c0-0.3,0-0.6,0-0.9c-0.1-0.2-0.2-0.3-0.2-0.5c0,0,0.1-0.1,0.2-0.2c0-0.3,0-0.6,0-0.9c-0.1-0.2-0.2-0.3-0.2-0.5
		c0,0,0.1-0.1,0.2-0.2c0-0.3,0-0.6,0-0.9c-0.1-0.2-0.2-0.3-0.2-0.5c0,0,0.1-0.1,0.2-0.2c0-0.3,0-0.6,0-0.9c-0.1-0.2-0.2-0.3-0.2-0.5
		c0,0,0.1-0.1,0.2-0.2c0-0.3,0-0.6,0-0.9c-0.1-0.2-0.2-0.3-0.2-0.5c0,0,0.1-0.1,0.2-0.2c0-0.3,0-0.6,0-0.9c-0.1-0.2-0.2-0.3-0.2-0.5
		c0,0,0.1-0.1,0.2-0.2c0-0.3,0-0.6,0-0.9c-0.1-0.2-0.2-0.3-0.2-0.5c0,0,0.1-0.1,0.2-0.2c0-0.3,0-0.6,0-0.9c-0.1-0.2-0.2-0.3-0.2-0.5
		c0,0,0.1-0.1,0.2-0.2c0-0.3,0-0.6,0-0.9c-0.1-0.2-0.2-0.3-0.2-0.5c0,0,0.1-0.1,0.2-0.2c0-0.3,0-0.6,0-0.9c-0.1-0.2-0.2-0.3-0.2-0.5
		c0,0,0.1-0.1,0.2-0.2c0-0.3,0-0.6,0-0.9c-0.1-0.2-0.2-0.3-0.2-0.5c0,0,0.1-0.1,0.2-0.2c0-0.3,0-0.6,0-0.9c-0.1-0.2-0.2-0.3-0.2-0.5
		c0,0,0.1-0.1,0.2-0.2c0-0.3,0-0.6,0-0.9c-0.1-0.2-0.2-0.3-0.2-0.5c0,0,0.1-0.1,0.2-0.2c0-0.3,0-0.6,0-0.9c-0.1-0.2-0.2-0.3-0.2-0.5
		c0,0,0.1-0.1,0.2-0.2c0-0.3,0-0.6,0-0.9c-0.1-0.2-0.2-0.3-0.2-0.5c0,0,0.1-0.1,0.2-0.2c0-0.3,0-0.6,0-0.9c-0.1-0.2-0.2-0.3-0.2-0.5
		c0,0,0.1-0.1,0.2-0.2c0-0.3,0-0.6,0-0.9c-0.1-0.2-0.2-0.3-0.2-0.5c0,0,0.1-0.1,0.2-0.2c0-0.3,0-0.6,0-0.9c-0.1-0.2-0.2-0.3-0.2-0.5
		c0,0,0.1-0.1,0.2-0.2c0-0.3,0-0.6,0-0.9c-0.1-0.2-0.2-0.3-0.2-0.5c0,0,0.1-0.1,0.2-0.2c0-0.3,0-0.6,0-0.9c-0.1-0.2-0.2-0.3-0.2-0.5
		c0,0,0.1-0.1,0.2-0.2c0-0.3,0-0.6,0-0.9c-0.1-0.2-0.2-0.3-0.2-0.5c0,0,0.1-0.1,0.2-0.2c0-0.3,0-0.6,0-0.9c-0.1-0.2-0.2-0.3-0.2-0.5
		c0,0,0.1-0.1,0.2-0.2c0-0.3,0-0.6,0-0.9c-0.1-0.2-0.2-0.3-0.2-0.5c0,0,0.1-0.1,0.2-0.2c0-0.3,0-0.6,0-0.9c-0.1-0.2-0.2-0.3-0.2-0.5
		c0,0,0.1-0.1,0.2-0.2c0-0.3,0-0.6,0-0.9c-0.1-0.2-0.2-0.3-0.2-0.5c0,0,0.1-0.1,0.2-0.2c0-0.3,0-0.6,0-0.9c-0.1-0.2-0.2-0.3-0.2-0.5
		c0,0,0.1-0.1,0.2-0.2c0-0.3,0-0.6,0-0.9c-0.1-0.2-0.2-0.3-0.2-0.5c0,0,0.1-0.1,0.2-0.2c0-0.3,0-0.6,0-0.9c-0.1-0.2-0.2-0.3-0.2-0.5
		c0,0,0.1-0.1,0.2-0.2c0-0.3,0-0.6,0-0.9c-0.1-0.2-0.2-0.3-0.2-0.5c0,0,0.1-0.1,0.2-0.2c0-0.3,0-0.6,0-0.9c-0.1-0.2-0.2-0.3-0.2-0.5
		c0,0,0.1-0.1,0.2-0.2c0-0.3,0-0.6,0-0.9c-0.1-0.2-0.2-0.3-0.2-0.5c0,0,0.1-0.1,0.2-0.2c0-0.3,0-0.6,0-0.9c-0.1-0.2-0.2-0.3-0.2-0.5
		c0,0,0.1-0.1,0.2-0.2c0-0.3,0-0.6,0-0.9c-0.1-0.2-0.2-0.3-0.2-0.5c0,0,0.1-0.1,0.2-0.2c0-0.3,0-0.6,0-0.9c-0.1-0.2-0.2-0.3-0.2-0.5
		c0,0,0.1-0.1,0.2-0.2c0-0.3,0-0.6,0-0.9c-0.1-0.2-0.2-0.3-0.2-0.5c0,0,0.1-0.1,0.2-0.2c0-0.3,0-0.6,0-0.9c-0.1-0.2-0.2-0.3-0.2-0.5
		c0,0,0.1-0.1,0.2-0.2c0-0.3,0-0.6,0-0.9c-0.1-0.2-0.2-0.3-0.2-0.5c0,0,0.1-0.1,0.2-0.2c0-0.3,0-0.6,0-0.9c-0.1-0.2-0.2-0.3-0.2-0.5
		c0,0,0.1-0.1,0.2-0.2c0-0.3,0-0.6,0-0.9c-0.1-0.2-0.2-0.3-0.2-0.5c0,0,0.1-0.1,0.2-0.2c0-0.3,0-0.6,0-0.9c-0.1-0.2-0.2-0.3-0.2-0.5
		c0,0,0.1-0.1,0.2-0.2c0-0.3,0-0.6,0-0.9c-0.1-0.2-0.2-0.3-0.2-0.5c0,0,0.1-0.1,0.2-0.2c0-0.3,0-0.6,0-0.9c-0.1-0.2-0.2-0.3-0.2-0.5
		c0,0,0.1-0.1,0.2-0.2c0-0.3,0-0.6,0-0.9c-0.1-0.2-0.2-0.3-0.2-0.5c0,0,0.1-0.1,0.2-0.2c0-0.3,0-0.6,0-0.9c-0.1-0.2-0.2-0.3-0.2-0.5
		c0,0,0.1-0.1,0.2-0.2c0-0.3,0-0.6,0-0.9c-0.1-0.2-0.2-0.3-0.2-0.5c0,0,0.1-0.1,0.2-0.2c0-0.3,0-0.6,0-0.9c-0.1-0.2-0.2-0.3-0.2-0.5
		c0,0,0.1-0.1,0.2-0.2c0-0.3,0-0.6,0-0.9c-0.1-0.2-0.2-0.3-0.2-0.5c0,0,0.1-0.1,0.2-0.2c0-0.3,0-0.6,0-0.9c-0.1-0.2-0.2-0.3-0.2-0.5
		c0,0,0.1-0.1,0.2-0.2c0-0.3,0-0.6,0-0.9c-0.1-0.2-0.2-0.3-0.2-0.5c0,0,0.1-0.1,0.2-0.2c0-0.3,0-0.6,0-0.9c-0.1-0.2-0.2-0.3-0.2-0.5
		c0,0,0.1-0.1,0.2-0.2c0-0.3,0-0.6,0-0.9c-0.1-0.2-0.2-0.3-0.2-0.5c0,0,0.1-0.1,0.2-0.2c0-0.3,0-0.6,0-0.9c-0.1-0.2-0.2-0.3-0.2-0.5
		c0,0,0.1-0.1,0.2-0.2c0-0.3,0-0.6,0-0.9c-0.1-0.2-0.2-0.3-0.2-0.5c0,0,0.1-0.1,0.2-0.2c0-0.3,0-0.6,0-0.9c-0.1-0.2-0.2-0.3-0.2-0.5
		c0,0,0.1-0.1,0.2-0.2c0-0.3,0-0.6,0-0.9c-0.1-0.2-0.2-0.3-0.2-0.5c0,0,0.1-0.1,0.2-0.2c0-0.3,0-0.6,0-0.9c-0.1-0.2-0.2-0.3-0.2-0.5
		c0,0,0.1-0.1,0.2-0.2c0-0.3,0-0.6,0-0.9c-0.1-0.2-0.2-0.3-0.2-0.5c0,0,0.1-0.1,0.2-0.2c0-0.3,0-0.6,0-0.9c-0.1-0.2-0.2-0.3-0.2-0.5
		c0,0,0.1-0.1,0.2-0.2c0-0.3,0-0.6,0-0.9c-0.1-0.2-0.2-0.3-0.2-0.5c0,0,0.1-0.1,0.2-0.2c0-0.3,0-0.6,0-0.9c-0.1-0.2-0.2-0.3-0.2-0.5
		c0,0,0.1-0.1,0.2-0.2c0-0.3,0-0.6,0-0.9c-0.1-0.2-0.2-0.3-0.2-0.5c0,0,0.1-0.1,0.2-0.2c0-0.3,0-0.6,0-0.9c-0.1-0.2-0.2-0.3-0.2-0.5
		c0,0,0.1-0.1,0.2-0.2c0-0.3,0-0.6,0-0.9c-0.1-0.2-0.2-0.3-0.2-0.5c0,0,0.1-0.1,0.2-0.2c0-0.3,0-0.6,0-0.9c-0.1-0.2-0.2-0.3-0.2-0.5
		c0,0,0.1-0.1,0.2-0.2c0-0.3,0-0.6,0-0.9c-0.1-0.2-0.2-0.3-0.2-0.5c0,0,0.1-0.1,0.2-0.2c0-0.3,0-0.6,0-0.9c-0.1-0.2-0.2-0.3-0.2-0.5
		c0,0,0.1-0.1,0.2-0.2c0-0.3,0-0.6,0-0.9c-0.1-0.2-0.2-0.3-0.2-0.5c0,0,0.1-0.1,0.2-0.2c0-0.3,0-0.6,0-0.9c-0.1-0.2-0.2-0.3-0.2-0.5
		c0,0,0.1-0.1,0.2-0.2c0-0.3,0-0.6,0-0.9c-0.1-0.2-0.2-0.3-0.2-0.5c0,0,0.1-0.1,0.2-0.2c0-0.3,0-0.6,0-0.9c-0.1-0.2-0.2-0.3-0.2-0.5
		c0,0,0.1-0.1,0.2-0.2c0-0.3,0-0.6,0-0.9c-0.1-0.2-0.2-0.3-0.2-0.5c0,0,0.1-0.1,0.2-0.2c0-0.3,0-0.6,0-0.9c-0.1-0.2-0.2-0.3-0.2-0.5
		c0,0,0.1-0.1,0.2-0.2c0-0.3,0-0.6,0-0.9c-0.1-0.2-0.2-0.3-0.2-0.5c0,0,0.1-0.1,0.2-0.2c0-0.3,0-0.6,0-0.9c-0.1-0.2-0.2-0.3-0.2-0.5
		c0,0,0.1-0.1,0.2-0.2c0-0.3,0-0.6,0-0.9c-0.1-0.2-0.2-0.3-0.2-0.5c0,0,0.1-0.1,0.2-0.2c0-0.3,0-0.6,0-0.9c-0.1-0.2-0.2-0.3-0.2-0.5
		c0,0,0.1-0.1,0.2-0.2c0-0.3,0-0.6,0-0.9c-0.1-0.2-0.2-0.3-0.2-0.5c0,0,0.1-0.1,0.2-0.2c0-0.3,0-0.6,0-0.9c-0.1-0.2-0.2-0.3-0.2-0.5
		c0,0,0.1-0.1,0.2-0.2c0-0.3,0-0.6,0-0.9c-0.1-0.2-0.2-0.3-0.2-0.5c0,0,0.1-0.1,0.2-0.2c0-0.3,0-0.6,0-0.9c-0.1-0.2-0.2-0.3-0.2-0.5
		c0,0,0.1-0.1,0.2-0.2c0-0.3,0-0.6,0-0.9c-0.1-0.2-0.2-0.3-0.2-0.5c0,0,0.1-0.1,0.2-0.2c0-0.3,0-0.6,0-0.9c-0.1-0.2-0.2-0.3-0.2-0.5
		c0,0,0.1-0.1,0.2-0.2c0-0.3,0-0.6,0-0.9c-0.1-0.2-0.2-0.3-0.2-0.5c0,0,0.1-0.1,0.2-0.2c0-0.3,0-0.6,0-0.9c-0.1-0.2-0.2-0.3-0.2-0.5
		c0,0,0.1-0.1,0.2-0.2c0-0.3,0-0.6,0-0.9c-0.1-0.2-0.2-0.3-0.2-0.5c0,0,0.1-0.1,0.2-0.2c0-0.3,0-0.6,0-0.9c-0.1-0.2-0.2-0.3-0.2-0.5
		c0,0,0.1-0.1,0.2-0.2c0-0.3,0-0.6,0-0.9c-0.1-0.2-0.2-0.3-0.2-0.5c0,0,0.1-0.1,0.2-0.2c0-0.3,0-0.6,0-0.9c-0.1-0.2-0.2-0.3-0.2-0.5
		c0,0,0.1-0.1,0.2-0.2c0-0.3,0-0.6,0-0.9c-0.1-0.2-0.2-0.3-0.2-0.5c0,0,0.1-0.1,0.2-0.2c0-0.3,0-0.6,0-0.9c-0.1-0.2-0.2-0.3-0.2-0.5
		c0,0,0.1-0.1,0.2-0.2c0-0.3,0-0.6,0-0.9c-0.1-0.2-0.2-0.3-0.2-0.5c0,0,0.1-0.1,0.2-0.2c0-0.3,0-0.6,0-0.9c-0.1-0.2-0.2-0.3-0.2-0.5
		c0,0,0.1-0.1,0.2-0.2c0-0.3,0-0.6,0-0.9c-0.1-0.2-0.2-0.3-0.2-0.5c0,0,0.1-0.1,0.2-0.2c0-0.3,0-0.6,0-0.9c-0.1-0.2-0.2-0.3-0.2-0.5
		c0,0,0.1-0.1,0.2-0.2c0-0.3,0-0.6,0-0.9c-0.1-0.2-0.2-0.3-0.2-0.5c0,0,0.1-0.1,0.2-0.2c0-0.3,0-0.6,0-0.9c-0.1-0.2-0.2-0.3-0.2-0.5
		c0,0,0.1-0.1,0.2-0.2c0-0.3,0-0.6,0-0.9c-0.1-0.2-0.2-0.3-0.2-0.5c0,0,0.1-0.1,0.2-0.2c0-0.3,0-0.6,0-0.9c-0.1-0.2-0.2-0.3-0.2-0.5
		c0,0,0.1-0.1,0.2-0.2c0-0.3,0-0.6,0-0.9c-0.1-0.2-0.2-0.3-0.2-0.5c0,0,0.1-0.1,0.2-0.2c0-0.3,0-0.6,0-0.9c-0.1-0.2-0.2-0.3-0.2-0.5
		c0,0,0.1-0.1,0.2-0.2c0-1.3,0-2.6,0-3.9c-0.1-0.2-0.2-0.3-0.2-0.5c0,0,0.1-0.1,0.2-0.2c0-0.3,0-0.6,0-0.9c-0.1-0.2-0.2-0.3-0.2-0.5
		c0,0,0.1-0.1,0.2-0.2c0-0.3,0-0.6,0-0.9c-0.1-0.2-0.2-0.3-0.2-0.5c0,0,0.1-0.1,0.2-0.2c0-0.3,0-0.6,0-0.9c-0.1-0.2-0.2-0.3-0.2-0.5
		c0,0,0.1-0.1,0.2-0.2c0-0.3,0-0.6,0-0.9c-0.1-0.2-0.2-0.3-0.2-0.5c0,0,0.1-0.1,0.2-0.2c0-0.3,0-0.6,0-0.9c-0.1-0.2-0.2-0.3-0.2-0.5
		c0,0,0.1-0.1,0.2-0.2c0-0.3,0-0.6,0-0.9c-0.1-0.2-0.2-0.3-0.2-0.5c0,0,0.1-0.1,0.2-0.2c0-0.3,0-0.6,0-0.9c-0.1-0.2-0.2-0.3-0.2-0.5
		c0,0,0.1-0.1,0.2-0.2c0-0.3,0-0.6,0-0.9c-0.1-0.2-0.2-0.3-0.2-0.5c0,0,0.1-0.1,0.2-0.2c0-0.3,0-0.6,0-0.9c-0.1-0.2-0.2-0.3-0.2-0.5
		c0,0,0.1-0.1,0.2-0.2c0-0.3,0-0.6,0-0.9c-0.1-0.2-0.2-0.3-0.2-0.5c0,0,0.1-0.1,0.2-0.2c0-0.3,0-0.6,0-0.9c-0.1-0.2-0.2-0.3-0.2-0.5
		c0,0,0.1-0.1,0.2-0.2c0-0.3,0-0.6,0-0.9c-0.1-0.2-0.2-0.3-0.2-0.5c0,0,0.1-0.1,0.2-0.2c0-0.3,0-0.6,0-0.9c-0.1-0.2-0.2-0.3-0.2-0.5
		c0,0,0.1-0.1,0.2-0.2c0-0.3,0-0.6,0-0.9c-0.1-0.2-0.2-0.3-0.2-0.5c0,0,0.1-0.1,0.2-0.2c0-0.3,0-0.6,0-0.9c-0.1-0.2-0.2-0.3-0.2-0.5
		c0,0,0.1-0.1,0.2-0.2c0-0.3,0-0.6,0-0.9c-0.1-0.2-0.2-0.3-0.2-0.5c0,0,0.1-0.1,0.2-0.2c0-0.3,0-0.6,0-0.9c-0.1-0.2-0.2-0.3-0.2-0.5
		c0,0,0.1-0.1,0.2-0.2c0-0.3,0-0.6,0-0.9c-0.1-0.2-0.2-0.3-0.2-0.5c0,0,0.1-0.1,0.2-0.2c0-0.3,0-0.6,0-0.9c-0.1-0.2-0.2-0.3-0.2-0.5
		c0,0,0.1-0.1,0.2-0.2c0-0.3,0-0.6,0-0.9c-0.1-0.2-0.2-0.3-0.2-0.5c0,0,0.1-0.1,0.2-0.2c0-0.3,0-0.6,0-0.9c-0.1-0.2-0.2-0.3-0.2-0.5
		c0,0,0.1-0.1,0.2-0.2c0-0.3,0-0.6,0-0.9c-0.1-0.2-0.2-0.3-0.2-0.5c0,0,0.1-0.1,0.2-0.2c0-0.3,0-0.6,0-0.9c-0.1-0.2-0.2-0.3-0.2-0.5
		c0,0,0.1-0.1,0.2-0.2c0-0.3,0-0.6,0-0.9c-0.1-0.2-0.2-0.3-0.2-0.5c0,0,0.1-0.1,0.2-0.2c0-0.3,0-0.6,0-0.9c-0.1-0.2-0.2-0.3-0.2-0.5
		c0,0,0.1-0.1,0.2-0.2c0-0.3,0-0.6,0-0.9c-0.1-0.2-0.2-0.3-0.2-0.5c0,0,0.1-0.1,0.2-0.2c0-0.3,0-0.6,0-0.9c-0.1-0.2-0.2-0.3-0.2-0.5
		c0,0,0.1-0.1,0.2-0.2c0-0.3,0-0.6,0-0.9c-0.1-0.2-0.2-0.3-0.2-0.5c0,0,0.1-0.1,0.2-0.2c0-0.3,0-0.6,0-0.9c-0.1-0.2-0.2-0.3-0.2-0.5
		c0,0,0.1-0.1,0.2-0.2c0-0.3,0-0.6,0-0.9c-0.1-0.2-0.2-0.3-0.2-0.5c0,0,0.1-0.1,0.2-0.2c0-0.3,0-0.6,0-0.9c-0.1-0.2-0.2-0.3-0.2-0.5
		c0,0,0.1-0.1,0.2-0.2c0-0.3,0-0.6,0-0.9c-0.1-0.2-0.2-0.3-0.2-0.5c0,0,0.1-0.1,0.2-0.2c0-0.3,0-0.6,0-0.9c-0.1-0.2-0.2-0.3-0.2-0.5
		c0,0,0.1-0.1,0.2-0.2c0-0.3,0-0.6,0-0.9c-0.1-0.2-0.2-0.3-0.2-0.5c0,0,0.1-0.1,0.2-0.2c0-0.3,0-0.6,0-0.9c-0.1-0.2-0.2-0.3-0.2-0.5
		c0,0,0.1-0.1,0.2-0.2c0-0.3,0-0.6,0-0.9c-0.1-0.2-0.2-0.3-0.2-0.5c0,0,0.1-0.1,0.2-0.2c0-0.3,0-0.6,0-0.9c-0.1-0.2-0.2-0.3-0.2-0.5
		c0,0,0.1-0.1,0.2-0.2c0-0.3,0-0.6,0-0.9c-0.1-0.2-0.2-0.3-0.2-0.5c0,0,0.1-0.1,0.2-0.2c0-0.3,0-0.6,0-0.9c-0.1-0.2-0.2-0.3-0.2-0.5
		c0,0,0.1-0.1,0.2-0.2c0-0.3,0-0.6,0-0.9c-0.1-0.2-0.2-0.3-0.2-0.5c0,0,0.1-0.1,0.2-0.2c0-0.3,0-0.6,0-0.9c-0.1-0.2-0.2-0.3-0.2-0.5
		c0,0,0.1-0.1,0.2-0.2c0-0.3,0-0.6,0-0.9c-0.1-0.2-0.2-0.3-0.2-0.5c0,0,0.1-0.1,0.2-0.2c0-0.3,0-0.6,0-0.9c-0.1-0.2-0.2-0.3-0.2-0.5
		c0,0,0.1-0.1,0.2-0.2c0-0.3,0-0.6,0-0.9c-0.1-0.2-0.2-0.3-0.2-0.5c0,0,0.1-0.1,0.2-0.2c0-0.3,0-0.6,0-0.9c-0.1-0.2-0.2-0.3-0.2-0.5
		c0,0,0.1-0.1,0.2-0.2c0-0.3,0-0.6,0-0.9c-0.1-0.2-0.2-0.3-0.2-0.5c0,0,0.1-0.1,0.2-0.2c0-0.3,0-0.6,0-0.9c-0.1-0.2-0.2-0.3-0.2-0.5
		c0,0,0.1-0.1,0.2-0.2c0-0.3,0-0.6,0-0.9c-0.1-0.2-0.2-0.3-0.2-0.5c0,0,0.1-0.1,0.2-0.2c0-0.3,0-0.6,0-0.9c-0.1-0.2-0.2-0.3-0.2-0.5
		c0,0,0.1-0.1,0.2-0.2c0-0.3,0-0.6,0-0.9c-0.1-0.2-0.2-0.3-0.2-0.5c0,0,0.1-0.1,0.2-0.2c0-0.3,0-0.6,0-0.9c-0.1-0.2-0.2-0.3-0.2-0.5
		c0,0,0.1-0.1,0.2-0.2c0-0.3,0-0.6,0-0.9c-0.1-0.2-0.2-0.3-0.2-0.5c0,0,0.1-0.1,0.2-0.2c0-0.3,0-0.6,0-0.9c-0.1-0.2-0.2-0.3-0.2-0.5
		c0,0,0.1-0.1,0.2-0.2c0-0.3,0-0.6,0-0.9c-0.1-0.2-0.2-0.3-0.2-0.5c0,0,0.1-0.1,0.2-0.2c0-0.3,0-0.6,0-0.9c-0.1-0.2-0.2-0.3-0.2-0.5
		c0,0,0.1-0.1,0.2-0.2c0-0.3,0-0.6,0-0.9c-0.1-0.2-0.2-0.3-0.2-0.5c0,0,0.1-0.1,0.2-0.2c0-0.3,0-0.6,0-0.9c-0.1-0.2-0.2-0.3-0.2-0.5
		c0,0,0.1-0.1,0.2-0.2c0-0.3,0-0.6,0-0.9c-0.1-0.2-0.2-0.3-0.2-0.5c0,0,0.1-0.1,0.2-0.2c0-0.3,0-0.6,0-0.9c-0.1-0.2-0.2-0.3-0.2-0.5
		c0,0,0.1-0.1,0.2-0.2c0-0.3,0-0.6,0-0.9c-0.1-0.2-0.2-0.3-0.2-0.5c0,0,0.1-0.1,0.2-0.2c0-0.3,0-0.6,0-0.9c-0.1-0.2-0.2-0.3-0.2-0.5
		c0,0,0.1-0.1,0.2-0.2c0-0.3,0-0.6,0-0.9c-0.1-0.2-0.2-0.3-0.2-0.5c0,0,0.1-0.1,0.2-0.2c0-0.3,0-0.6,0-0.9c-0.1-0.2-0.2-0.3-0.2-0.5
		c0,0,0.1-0.1,0.2-0.2c0-0.3,0-0.6,0-0.9c-0.1-0.2-0.2-0.3-0.2-0.5c0,0,0.1-0.1,0.2-0.2c0-0.3,0-0.6,0-0.9c-0.1-0.2-0.2-0.3-0.2-0.5
		c0,0,0.1-0.1,0.2-0.2c0-0.3,0-0.6,0-0.9c-0.1-0.2-0.2-0.3-0.2-0.5c0,0,0.1-0.1,0.2-0.2c0-0.3,0-0.6,0-0.9c-0.1-0.2-0.2-0.3-0.2-0.5
		c0,0,0.1-0.1,0.2-0.2c0-0.3,0-0.6,0-0.9c-0.1-0.2-0.2-0.3-0.2-0.5c0,0,0.1-0.1,0.2-0.2c0-0.3,0-0.6,0-0.9c-0.1-0.2-0.2-0.3-0.2-0.5
		c0,0,0.1-0.1,0.2-0.2c0-0.3,0-0.6,0-0.9c-0.1-0.2-0.2-0.3-0.2-0.5c0,0,0.1-0.1,0.2-0.2c0-0.3,0-0.6,0-0.9c-0.1-0.2-0.2-0.3-0.2-0.5
		c0,0,0.1-0.1,0.2-0.2c0-0.3,0-0.6,0-0.9c-0.1-0.2-0.2-0.3-0.2-0.5c0,0,0.1-0.1,0.2-0.2c0-0.3,0-0.6,0-0.9c-0.1-0.2-0.2-0.3-0.2-0.5
		c0,0,0.1-0.1,0.2-0.2c0-0.3,0-0.6,0-0.9c-0.1-0.2-0.2-0.3-0.2-0.5c0,0,0.1-0.1,0.2-0.2c0-0.3,0-0.6,0-0.9c-0.1-0.2-0.2-0.3-0.2-0.5
		c0,0,0.1-0.1,0.2-0.2c0-0.3,0-0.6,0-0.9c-0.1-0.2-0.2-0.3-0.2-0.5c0,0,0.1-0.1,0.2-0.2c0-0.3,0-0.6,0-0.9c-0.1-0.2-0.2-0.3-0.2-0.5
		c0,0,0.1-0.1,0.2-0.2c0-0.3,0-0.6,0-0.9c-0.1-0.2-0.2-0.3-0.2-0.5c0,0,0.1-0.1,0.2-0.2c0-0.3,0-0.6,0-0.9c-0.1-0.2-0.2-0.3-0.2-0.5
		c0,0,0.1-0.1,0.2-0.2c0-0.3,0-0.6,0-0.9c-0.1-0.2-0.2-0.3-0.2-0.5c0,0,0.1-0.1,0.2-0.2c0-0.3,0-0.6,0-0.9c-0.1-0.2-0.2-0.3-0.2-0.5
		c0,0,0.1-0.1,0.2-0.2c0-0.3,0-0.6,0-0.9c-0.1-0.2-0.2-0.3-0.2-0.5c0,0,0.1-0.1,0.2-0.2c0-0.3,0-0.6,0-0.9c-0.1-0.2-0.2-0.3-0.2-0.5
		c0,0,0.1-0.1,0.2-0.2c0-0.3,0-0.6,0-0.9c-0.1-0.2-0.2-0.3-0.2-0.5c0,0,0.1-0.1,0.2-0.2c0-0.3,0-0.6,0-0.9c-0.1-0.2-0.2-0.3-0.2-0.5
		c0,0,0.1-0.1,0.2-0.2c0-0.3,0-0.6,0-0.9c-0.1-0.2-0.2-0.3-0.2-0.5c0,0,0.1-0.1,0.2-0.2c0-0.3,0-0.6,0-0.9c-0.1-0.2-0.2-0.3-0.2-0.5
		c0,0,0.1-0.1,0.2-0.2c0-0.3,0-0.6,0-0.9c-0.1-0.2-0.2-0.3-0.2-0.5c0,0,0.1-0.1,0.2-0.2c0-0.3,0-0.6,0-0.9c-0.1-0.2-0.2-0.3-0.2-0.5
		c0,0,0.1-0.1,0.2-0.2c0-0.3,0-0.6,0-0.9c-0.1-0.2-0.2-0.3-0.2-0.5c0,0,0.1-0.1,0.2-0.2c0-0.3,0-0.6,0-0.9c-0.1-0.2-0.2-0.3-0.2-0.5
		c0,0,0.1-0.1,0.2-0.2c0-0.3,0-0.6,0-0.9c-0.1-0.2-0.2-0.3-0.2-0.5c0,0,0.1-0.1,0.2-0.2c0-0.3,0-0.6,0-0.9c-0.1-0.2-0.2-0.3-0.2-0.5
		c0,0,0.1-0.1,0.2-0.2c0-0.3,0-0.6,0-0.9c-0.1-0.2-0.2-0.3-0.2-0.5c0,0,0.1-0.1,0.2-0.2c0-0.3,0-0.6,0-0.9c-0.1-0.2-0.2-0.3-0.2-0.5
		c0,0,0.1-0.1,0.2-0.2c0-0.3,0-0.6,0-0.9c-0.1-0.2-0.2-0.3-0.2-0.5c0,0,0.1-0.1,0.2-0.2c0-0.3,0-0.6,0-0.9c-0.1-0.1-0.2-0.3-0.2-0.4
		C1388.7,397.7,1388.8,397.6,1388.9,397.6z M422.2,607.8c1,98.2-78.8,181.3-179.6,181.4c-98.4,0.2-179.4-80.4-179.7-178.7
		c-0.3-97.9,78.7-179.7,178.5-180.2C343.2,429.7,421.2,512.4,422.2,607.8z M1179.8,789.2c-99.9-0.1-180.1-81.1-179.7-180.5
		c0.4-96.6,79.6-179.4,181.4-178.4c100.5,0.9,179.5,84,177.8,182.4C1357.9,709,1279,789.2,1179.8,789.2z"/>
	<path class="st0" d="M19.3,872.2c0,7.6-0.3,15.1,0.4,22.6c1,11.2,6,20.4,14.4,27.8c8.7,7.6,19.1,10.8,30.6,10.8
		c426.3,0,852.7,0,1279,0c6,0,11.8-0.8,17.3-3.1c15.2-6.2,24.3-17.4,27-33.7c1.2-6.9,0.5-13.8,0.6-20.7c0.1-5.4,0.5-4.6-4.6-4.6
		c-453,0-906.1,0-1359.1,0c-1.8,0-3.5,0.1-5.3,0.1C19.6,871.6,19.5,871.9,19.3,872.2C19.3,872.2,19.3,872.2,19.3,872.2z"/>
	<path class="st0" d="M25.4,364.4c452.3,0,904.6,0,1356.9,0c1.9,0,3.8,0.1,5.7,0.1c0.3-0.1,0.5-0.3,0.8-0.4v0c-0.1-4.1,0-8.2,0-12.3
		s-0.1-8.2-0.6-12.3c-2.6-21.4-22-37-42.1-36.9c-427.9,0.1-855.9,0.1-1283.8,0c-5.3,0-10.3,0.9-15.2,2.6
		c-15.1,5.3-26.5,20.5-27.6,36.5c-0.5,6.9-0.2,13.8-0.3,20.8c0.5,0.5,0.4,1.2,0.4,1.8C21.6,364.4,23.5,364.4,25.4,364.4z"/>
	<path class="st0" d="M427.3,838.8c-0.2,0.1-0.5,0.2-0.5,0.3c0,0.1,0,0.2,0.1,0.3c0.1,0.1,0.2,0.1,0.4,0
		C427.3,839.3,427.3,839,427.3,838.8z"/>
	<path class="st0" d="M1179.7,496.2c-62.1-0.2-113.7,50.6-113.7,113.7c0.1,62.4,50.9,113.3,113.5,113.5
		c62.5,0.2,113.9-51.1,113.9-113.5C1293.5,547.1,1242.4,496.1,1179.7,496.2z"/>
	<path class="st0" d="M242.5,496.1c-61.6,0-113.8,50.2-113.6,114.1c0.2,62.3,51.6,113.3,114,113c62.7-0.2,113.5-51.3,113.4-113.9
		C356,546.9,304.9,496.1,242.5,496.1z"/>
</g>
</svg>
