<svg height="496pt" viewBox="0 0 496 496" width="496pt" xmlns="http://www.w3.org/2000/svg"><path d="m488 248c0 132.546875-107.453125 240-240 240s-240-107.453125-240-240 107.453125-240 240-240 240 107.453125 240 240zm0 0" fill="#0E6782"/><path d="m304 264c0 44.183594-35.816406 80-80 80s-80-35.816406-80-80 35.816406-80 80-80 80 35.816406 80 80zm0 0" fill="#f5f7fa"/><path d="m224 344c44.160156 0 80-35.839844 80-80s-35.839844-80-80-80-80 35.839844-80 80 35.839844 80 80 80zm-90.238281-13.761719c-13.683594-18.558593-21.761719-41.519531-21.761719-66.238281 0-14.640625 2.800781-28.71875 8-41.519531 16.480469-41.359375 56.878906-70.480469 104-70.480469 41.441406 0 77.601562 22.480469 96.960938 56 9.597656 16.480469 15.039062 35.601562 15.039062 56 0 61.839844-50.160156 112-112 112-20.640625 0-40-5.601562-56.640625-15.359375-13.199219-7.761719-24.640625-18.160156-33.597656-30.402344zm0 0" fill="#FFD502"/><path d="m464.558594 351.441406 9.441406 9.4375-8.71875 13.121094c3.199219 5.359375 5.679688 11.28125 7.277344 17.601562l15.441406 3.039063v26.71875l-15.441406 3.039063c-1.597656 6.320312-4.078125 12.242187-7.277344 17.601562l8.71875 13.121094-18.878906 18.878906-13.121094-8.71875c-5.359375 3.199219-11.28125 5.679688-17.601562 7.277344l-3.039063 15.441406h-26.71875l-3.039063-15.441406c-6.320312-1.597656-12.242187-4.078125-17.601562-7.277344l-13.121094 8.71875-9.4375-9.441406-9.441406-9.4375 8.71875-13.121094c-3.199219-5.359375-5.679688-11.28125-7.277344-17.601562l-15.441406-3.039063v-26.71875l15.441406-3.039063c1.597656-6.320312 4.078125-12.242187 7.277344-17.601562l-8.71875-13.121094 18.878906-18.878906 13.121094 8.71875c5.359375-3.199219 11.28125-5.679688 17.601562-7.277344l3.039063-15.441406h26.71875l3.039063 15.441406c6.320312 1.597656 12.242187 4.078125 17.601562 7.277344l13.121094-8.71875zm-24.558594 56.558594c0-17.679688-14.320312-32-32-32s-32 14.320312-32 32 14.320312 32 32 32 32-14.320312 32-32zm0 0" fill="#FFD502"/><path d="m488 64v144h-32v-144zm0 0" fill="#CD2F1D"/><path d="m440 408c0 17.671875-14.328125 32-32 32s-32-14.328125-32-32 14.328125-32 32-32 32 14.328125 32 32zm0 0" fill="#f5f7fa"/><path d="m424 128v80h-32v-80zm0 0" fill="#E01C06"/><path d="m408 69.121094v58.878906h-16v80h-32v-48h-32v48h-7.039062c-19.359376-33.519531-55.519532-56-96.960938-56-47.121094 0-87.519531 29.121094-104 70.480469v-214.480469h288zm-176 34.878906v-64h-80v64zm0 0" fill="#f5f7fa"/><path d="m328 160h32v48h-32zm0 0" fill="#E01C06"/><path d="m152 40h80v64h-80zm0 0" fill="#E01C06"/><path d="m167.359375 360.640625-27.359375 27.359375-32-32 25.761719-25.761719c8.957031 12.242188 20.398437 22.640625 33.597656 30.402344zm0 0" fill="#f5f7fa"/><path d="m342 455.121094 8.71875-13.121094c-3.199219-5.359375-5.679688-11.28125-7.277344-17.601562l-15.441406-3.039063v-13.359375h-48l-32 32h-144l-.078125.078125c14.796875 11.042969 30.878906 20.480469 48.078125 27.921875 15.039062 6.640625 30.878906 11.679688 47.359375 15.039062 15.679687 3.28125 32 4.960938 48.640625 4.960938s32.960938-1.679688 48.640625-4.960938c19.199219-3.917968 37.597656-10.160156 54.800781-18.480468zm0 0" fill="#E01C06"/><path d="m140 388-93.359375 93.359375c-4.242187 4.242187-10 6.640625-16 6.640625-6.242187 0-11.921875-2.558594-16-6.640625-4.082031-4.078125-6.640625-9.757813-6.640625-16 0-6 2.398438-11.757813 6.640625-16l93.359375-93.359375zm0 0" fill="#EEA20A"/><g fill="#232323"><path d="m408 368c-22.054688 0-40 17.945312-40 40s17.945312 40 40 40 40-17.945312 40-40-17.945312-40-40-40zm0 64c-13.230469 0-24-10.769531-24-24s10.769531-24 24-24 24 10.769531 24 24-10.769531 24-24 24zm0 0"/><path d="m216 256h16v16h-16zm0 0"/><path d="m248 256h16v16h-16zm0 0"/><path d="m184 256h16v16h-16zm0 0"/><path d="m240 32h-96v80h96zm-16 64h-64v-48h64zm0 0"/><path d="m256 32h128v16h-128zm0 0"/><path d="m256 64h128v16h-128zm0 0"/><path d="m369.265625 96h14.734375v16h-14.734375zm0 0"/><path d="m256 96h96.167969v16h-96.167969zm0 0"/><path d="m496 56h-48v45.632812c-9.480469-12.9375-20.144531-24.96875-32-35.898437v-65.734375h-304v40.703125c-70.175781 46.089844-112 123.191406-112 207.296875 0 55.144531 18.585938 108.96875 52.359375 152.328125l-43.390625 43.390625c-5.785156 5.785156-8.96875 13.472656-8.96875 21.648438 0 16.898437 13.742188 30.632812 30.625 30.632812 8.183594 0 15.871094-3.183594 21.65625-8.976562l43.390625-43.382813c43.351563 33.773437 97.191406 52.359375 152.328125 52.359375 35.519531 0 69.679688-7.40625 101.695312-21.855469l10.144532 10.144531 14.535156-9.6875c3.3125 1.671876 6.761719 3.101563 10.296875 4.261719l3.433594 17.136719h39.796875l3.425781-17.136719c3.535156-1.167969 6.984375-2.589843 10.296875-4.261719l14.535156 9.6875 28.144532-28.128906-9.695313-14.535156c1.671875-3.320312 3.101563-6.769531 4.261719-10.304688l17.128906-3.433593v-39.78125l-17.136719-3.433594c-1.167969-3.535156-2.589843-6.984375-4.261719-10.304687l9.695313-14.535157-10.144531-10.136719c14.441406-32.023437 21.847656-66.191406 21.847656-101.695312 0-10.726562-.902344-21.425781-2.265625-32h2.265625zm-32 16h16v128h-16zm-16 58.496094v69.503906h-16v-80h-16v-32c12.273438 12.878906 22.960938 27.136719 32 42.496094zm-59.894531 189.503906-3.425781 17.136719c-3.535157 1.167969-6.984376 2.589843-10.296876 4.261719l-14.535156-9.6875-28.144531 28.128906 9.695313 14.535156c-1.671876 3.320312-3.101563 6.769531-4.261719 10.304688l-17.136719 3.433593v11.886719h-43.3125l-32 32h-137.375l32.6875-32.6875 14.34375 14.34375 11.3125-11.3125-14.34375-14.34375 17.535156-17.535156c16.535156 8.597656 35.265625 13.535156 55.152344 13.535156 66.167969 0 120-53.832031 120-120 0-17.070312-3.640625-33.289062-10.089844-48h66.089844v104zm-228.105469 128h32v25c-10.929688-2.71875-21.59375-6.320312-32-10.585938zm-16 7.144531c-4.503906-2.257812-8.960938-4.59375-13.3125-7.144531h13.3125zm64-7.144531h32v31.65625c-10.761719-.375-21.464844-1.304688-32-3.152344zm48-4.6875 27.3125-27.3125h4.6875v60.566406c-10.503906 1.816406-21.183594 2.859375-32 3.21875zm-32-283.3125c57.34375 0 104 46.65625 104 104s-46.65625 104-104 104-104-46.65625-104-104 46.65625-104 104-104zm128 40h-16v-32h16zm-197.191406 161.878906-14.808594 14.808594-20.6875-20.6875 13.832031-13.832031c6.390625 7.417969 13.664063 14.03125 21.664063 19.710937zm261.191406-225.878906v64h-16v-64zm-16-120v104h-16v80h-16v-48h-48v40.304688c-21.902344-29.257813-56.71875-48.304688-96-48.304688s-74.097656 19.046875-96 48.304688v-176.304688zm-384 232c0-75.128906 35.625-144.351562 96-187.984375v161.257813c-5.089844 13.292968-8 27.664062-8 42.726562 0 24.0625 7.183594 46.449219 19.433594 65.257812l-15.433594 15.429688-14.34375-14.34375-11.3125 11.3125 14.34375 14.34375-32.816406 32.816406c-30.816406-40.28125-47.871094-89.90625-47.871094-140.816406zm24.96875 227.71875c-2.730469 2.722656-6.488281 4.28125-10.34375 4.28125-8.066406 0-14.625-6.558594-14.625-14.632812 0-3.902344 1.519531-7.582032 4.28125-10.34375l87.71875-87.710938 20.6875 20.6875zm263.03125-2.574219v-57.144531h16v11.886719l17.136719 3.433593c1.167969 3.535157 2.589843 6.984376 4.261719 10.304688l-9.695313 14.535156 5.890625 5.886719c-10.945312 4.601563-22.160156 8.265625-33.59375 11.097656zm176-71.921875v13.546875l-13.96875 2.796875-1.230469 4.890625c-1.394531 5.453125-3.542969 10.664063-6.417969 15.472657l-2.589843 4.335937 7.910156 11.855469-9.574219 9.582031-11.855468-7.902344-4.335938 2.582031c-4.808594 2.863282-10.015625 5.015626-15.480469 6.410157l-4.890625 1.238281-2.789062 13.96875h-13.546875l-2.789063-13.96875-4.890625-1.238281c-5.460937-1.386719-10.671875-3.546875-15.480469-6.410157l-4.335937-2.582031-11.855469 7.902344-9.574218-9.582031 7.910156-11.855469-2.589844-4.335937c-2.863281-4.816407-5.023438-10.019532-6.417969-15.472657l-1.230469-4.890625-13.976562-2.789062v-13.546875l13.96875-2.796875 1.230469-4.890625c1.394531-5.453125 3.542969-10.664063 6.417969-15.472657l2.589843-4.335937-7.910156-11.855469 9.574219-9.582031 11.855468 7.902344 4.335938-2.582031c4.808594-2.863282 10.015625-5.015626 15.480469-6.410157l4.890625-1.238281 2.789062-13.96875h13.546875l2.789063 13.96875 4.890625 1.238281c5.460937 1.386719 10.671875 3.546875 15.480469 6.410157l4.335937 2.582031 11.855469-7.902344 9.574218 9.582031-7.910156 11.855469 2.589844 4.335937c2.863281 4.816407 5.023438 10.019532 6.417969 15.472657l1.230469 4.890625zm0-153.222656c0 31.175781-6.054688 61.257812-17.960938 89.601562l-5.886718-5.890624-14.535156 9.6875c-3.3125-1.671876-6.761719-3.101563-10.296876-4.261719l-3.425781-17.136719h-11.894531v-104h61.625c1.453125 10.550781 2.375 21.265625 2.375 32zm0 0"/><path d="m224 352c48.519531 0 88-39.480469 88-88s-39.480469-88-88-88-88 39.480469-88 88 39.480469 88 88 88zm0-160c39.703125 0 72 32.304688 72 72s-32.296875 72-72 72-72-32.304688-72-72 32.296875-72 72-72zm0 0"/></g></svg>