<?xml version="1.0" encoding="utf-8"?>
<!-- Generator: Adobe Illustrator 25.0.1, SVG Export Plug-In . SVG Version: 6.00 Build 0)  -->
<svg version="1.1" id="Layer_1" xmlns="http://www.w3.org/2000/svg" xmlns:xlink="http://www.w3.org/1999/xlink" x="0px" y="0px"
	 viewBox="0 0 1408 1236" style="enable-background:new 0 0 1408 1236;" xml:space="preserve">
<style type="text/css">
	.st0{fill:#FFFFFF;}
</style>
<g>
	<path class="st0" d="M703.6,1194.1c-195.8,0-391.6,0-587.5,0c-6.3,0-6.3,0-6.3-6.3c0-379.9,0-759.8,0-1139.7c0-6.1,0-6.1,6-6.1
		c392,0,784,0,1175.9,0c6.3,0,6.3,0,6.3,6.4c0,379.7,0,759.5,0,1139.2c0,6.6,0,6.6-6.6,6.6C1095.6,1194.1,899.6,1194.1,703.6,1194.1
		z M704.2,48.2c-194,0-388,0-581.9,0c-7.2,0-6.1-1-6.1,6.1c0,375.7,0,751.5,0,1127.2c0,7.3-1,6.3,6.4,6.3c387.6,0,775.3,0,1162.9,0
		c7.4,0,6.4,0.9,6.4-6.4c0-375.6,0-751.1,0-1126.7c0-6.5,0-6.5-6.7-6.5C1091.5,48.2,897.8,48.2,704.2,48.2z"/>
	<path class="st0" d="M1272.1,67.8c0,2.4,0,4.2,0,6c0,362.8,0,725.6,0,1088.5c0,5.7,0,5.7-5.9,5.7c-374.9,0-749.8,0-1124.6,0
		c-5.7,0-5.7,0-5.7-5.5c0-363,0-726,0-1089c0-0.8,0.1-1.7,0-2.5c-0.4-2.8,1-3.5,3.5-3.3c1.2,0.1,2.3,0,3.5,0c374,0,748.1,0,1122.1,0
		C1267.1,67.8,1269.3,67.8,1272.1,67.8z M702.1,130.3c-144.2,0-288.4,0-432.6,0c-2.7,0-5.4,0-8,0.1c-14.3,0.9-26,10.5-29.8,24.4
		c-1.6,6-1.1,12-0.6,18c0.8,8.8,1.7,17.7,2.6,26.5c1.8,19.7,3.6,39.3,5.4,59c2.2,23.3,4.5,46.7,6.6,70c1.8,19.7,3.6,39.3,5.4,59
		c2.2,23.2,4.4,46.3,6.6,69.5c2.2,23.3,4.2,46.7,6.4,70c2.5,26.8,5.1,53.7,7.6,80.5c2.2,23.3,4.2,46.7,6.4,70
		c3.2,33.8,6.4,67.7,9.6,101.5c3,32.2,6,64.3,9,96.5c3,32.3,6.1,64.7,9.1,97c2.8,30.5,5.6,61,8.4,91.5c0.4,4.8,1.4,9.6,3.3,14.1
		c6.9,16.4,22.3,26.5,40.8,26.5c49.1,0,98.2,0,147.2,0c14.6,0,29.1,0,43.7,0c4,0,4,0,4,4.1c0,11.4,0,22.8,0,34.2
		c0,7.1-1.2,6.2,6,6.2c91.5,0,182.9,0,274.4,0c0.8,0,1.7,0,2.5,0c3.5-0.1,3.5-0.1,3.5-3.6c0-11.7,0-23.4,0-35.2c0-6.6-1-5.7,5.9-5.7
		c65.3,0,130.6,0,196,0c1.7,0,3.4,0,5,0c21.3-0.6,38.7-16,41.5-37.2c1.7-12.9,2.6-26,3.9-39c1.5-15.7,2.9-31.3,4.4-47
		c1.8-19.5,3.8-39,5.6-58.5c1.8-19.5,3.6-39,5.4-58.5c2.5-26.5,5.1-53,7.6-79.5c2.5-26.7,4.9-53.3,7.4-80c3.2-33.7,6.5-67.3,9.6-101
		c2.5-26.8,4.9-53.7,7.5-80.5c3.2-33.7,6.5-67.3,9.6-101c2.5-26.8,4.9-53.7,7.4-80.5c2.8-30.2,5.8-60.3,8.6-90.5
		c2.7-28,5.2-56,7.9-84c1.6-16.6-8.4-31.2-24.5-35.7c-4.4-1.2-8.9-1.2-13.5-1.2C990.9,130.3,846.5,130.3,702.1,130.3z"/>
	<path class="st0" d="M977.3,234.1c-1.5,1.9-3.2,2.2-4.6,2.9C867.2,286.9,778,357.3,705.2,448.5c-2.6,3.2-5.1,4.5-9.2,4.5
		c-104.7-0.1-209.4-0.1-314.1-0.1c-7.2,0-6.2,0.6-6.2-6.1c0-69,0-138,0-207c0-6.3-0.7-5.6,5.6-5.6c196.8,0,393.6,0,590.4,0
		C973.4,234.1,975,234.1,977.3,234.1z"/>
	<path class="st0" d="M1040.9,230.5c0,2.5,0,4,0,5.5c0,74,0,148.1,0,222.1c0,0.7-0.1,1.4,0,2c0.5,2.6-1,3.5-3.1,4.2
		c-9.2,3-18.3,6.5-27.2,10.3c-27,11.5-52,26.1-73.7,46c-24.7,22.5-42.7,49.6-55.9,80.1c-6.9,16-12.3,32.5-16.9,49.3
		c-1.1,4.1-1.1,4.2-5.2,4.2c-78.2,0-156.5,0-234.7,0c-1.1,0-2.3,0.3-3.9-0.8c29.6-93.3,78.3-175.4,145.2-246.9
		C842.1,324.6,933.4,265.6,1040.9,230.5z"/>
	<path class="st0" d="M698.4,1127.9c-40.2,0-80.4,0-120.6,0c-6.9,0-5.9,0.8-6-5.7c-0.5-32.5-0.3-65,0.8-97.5
		c0.9-27.6,3.1-55.1,6.6-82.6c3.6-28.6,8.3-56.9,12.6-85.4c0.1-1,0.5-2,0.6-3c0.1-1.8,1.2-2.2,2.7-2.1c1,0,2,0,3,0
		c77.2,0,154.4,0,231.6,0c0.5,0,1,0,1.5,0c3.8,0.1,3.9,0.1,3.6,3.9c-1.1,11.7-2.3,23.3-3.4,35c-1.3,13.8-2.5,27.7-3.7,41.5
		c-4.4,53.7-2.7,107.5-2.7,161.2c0,10,0.1,20.1,0.1,30.1c0,4.9,0.5,4.5-4.6,4.5C779.8,1127.9,739.1,1127.9,698.4,1127.9z"/>
	<path class="st0" d="M969.9,669.5c-0.4,3.5-0.8,6.5-0.5,9.5c0.7,5.9,5.2,7.9,10,4.3c1.5-1.1,2.8-2.4,4.2-3.6
		c7.1-6.1,15.1-10.4,24.5-11.8c9.7-1.4,18.7,0.7,26.5,6.6c7.3,5.5,11,12.8,11,22c-0.1,45.1,0,90.1,0,135.2c0,0.8,0,1.7,0,2.5
		c0.1,1.4-0.5,2.2-2,2.2c-0.7,0-1.3,0-2,0c-14.9,0-29.8,0-44.7,0c-4.8,0-4.2-0.1-4.2-4.5c0-35.7,0-71.4,0-107c0-1.2-0.1-2.4,0-3.5
		c0.4-4.6-1-8.3-5.5-10.2c-5-2-9.9-1.7-14.2,1.6c-1.6,1.3-2.6,3.1-2.6,5.2c0,1.7-0.1,3.3-0.1,5c0,35.5,0,71,0,106.5
		c0,0.8,0,1.7,0,2.5c0,4.3,0,4.3-4.4,4.4c-14.4,0-28.8,0-43.2,0c-5.2,0-4.6,0.4-4.6-4.6c0-42,0-84.1,0-126.1c0-11.1,0-22.1,0-33.2
		c0-1.9,0.1-3.1,2.6-3.1C936.9,669.5,953.2,669.5,969.9,669.5z"/>
	<path class="st0" d="M740,768.8c4.1-19.8,8.3-39.4,12.4-59c2.6-12.4,5.3-24.9,7.8-37.3c0.4-1.9,0.8-3,3-3c10.9,0.1,21.7,0,33.1,0
		c-1.4,7.5-2.7,14.7-4.1,21.8c-8.3,42.3-16.6,84.7-24.9,127c-1,4.9-2.1,9.8-2.9,14.8c-0.4,2.4-1.1,3.4-3.8,3.4
		c-20.1-0.1-40.2-0.1-60.3,0c-2.2,0-3.1-0.5-3.5-2.9c-3.6-25.2-7.3-50.3-11-75.5c-3.9-26.1-7.8-52.3-11.7-78.4
		c-0.5-3.1-0.8-6.3-1.2-9.3c0.7-0.9,1.6-0.8,2.4-0.8c14.6,0,29.1,0,43.7-0.1c2.6,0,3.7,0.6,4.2,3.4c4.9,30.5,10,61.1,15.1,91.6
		C738.6,765.9,738.6,767.5,740,768.8z"/>
	<path class="st0" d="M570.3,753.2c0-25.8,0-51.6,0-77.4c0-0.8,0-1.7,0-2.5c0-3.8-0.2-3.8,3.9-3.8c28.3,0,56.6,0,84.9,0
		c3.7,0,3.7,0.1,3.7,3.9c0,9.9,0,19.8,0,29.6c0,3.5-0.1,3.6-3.5,3.6c-10.5,0-21.1,0-31.6,0c-4.9,0-4.8-0.5-4.7,4.5
		c0,7.4,0,14.7,0,22.1c0,3.4,0.1,3.5,3.7,3.5c10.7,0,21.4,0,32.2,0c4,0,4.1,0,4.1,4.1c0,8.2,0,16.4,0,24.6c0,3.5-0.1,3.6-3.5,3.6
		c-10.7,0-21.4,0-32.2,0c-4.2,0-4.2,0-4.2,4c0,6.7,0,13.4,0,20.1c0,4.4,0,4.4,4.3,4.5c10.4,0,20.8,0,31.1,0c4.4,0,4.4,0,4.4,4.2
		c0,10.2,0,20.4,0,30.6c0,3.7-0.1,3.8-3.4,3.8c-28.6,0-57.3,0-85.9,0c-3.5,0-3.2-0.1-3.2-3.9C570.3,806.1,570.3,779.6,570.3,753.2z"
		/>
	<path class="st0" d="M362,753c0-25.8,0-51.6,0-77.4c0-1.2,0-2.3,0-3.5c-0.1-1.8,0.5-2.9,2.6-2.6c0.8,0.1,1.7,0,2.5,0
		c27.5,0,54.9,0,82.4,0c1,0,2,0.1,3,0c1.7-0.1,2.4,0.6,2.4,2.3c-0.1,2.8,0,5.7,0,8.5c0,7.4,0,14.7,0,22.1c0,4.4,0.5,4.2-4.4,4.2
		c-10.6,0-21.1,0-31.7,0c-4,0-4,0-4.1,4.1c0,7.5,0.1,15.1-0.1,22.6c-0.1,2.6,0.6,3.5,3.3,3.4c10.7-0.1,21.4-0.1,32.2-0.1
		c5,0,4.7-0.5,4.7,4.5c0,7.9,0,15.7,0,23.6c0,4.2,0,4.2-4.4,4.3c-10.6,0-21.1,0-31.7,0c-4,0-4,0.1-4.1,4.2c0,7,0.1,14.1-0.1,21.1
		c-0.1,2.7,1,3.4,3.5,3.4c10.9-0.1,21.8-0.1,32.7,0c4,0,4,0.1,4,4.1c0,10.4-0.1,20.8,0.1,31.2c0,2.6-0.7,3.4-3.3,3.4
		c-28.8-0.1-57.6,0-86.4-0.1c-3.1,0-3.1-0.1-3.1-4c0-23.8,0-47.6,0-71.4C362,758.4,362,755.7,362,753z"/>
	<path class="st0" d="M806.1,753c0-25.8,0-51.6,0-77.3c0-1.2,0.1-2.3,0-3.5c-0.1-1.8,0.5-2.9,2.5-2.7c1,0.1,2,0,3,0
		c27.3,0,54.6,0,81.9,0c0.8,0,1.7,0.1,2.5,0c2.6-0.3,3.1,0.9,3,3.2c-0.1,8.7,0,17.4,0,26.1c0,7.9,0,7.9-7.8,7.9
		c-9.5,0-19.1,0-28.6,0c-3.7,0-3.7,0.1-3.7,3.4c0,7.9,0.1,15.7-0.1,23.6c0,2.4,0.7,3.1,3.1,3.1c10.9-0.1,21.8,0,32.6-0.1
		c4.7,0,4.5-0.4,4.5,4.2c0,8,0,16.1,0,24.1c0,4.1,0.3,4-4.2,4c-10.5,0-21.1,0-31.6,0c-4.3,0-4.3,0-4.3,4.4c0,7,0.1,14.1-0.1,21.1
		c0,2.4,0.7,3.2,3.2,3.2c10.9-0.1,21.8-0.1,32.6,0c4.3,0,4.4,0,4.4,4.3c0,10,0,20.1,0,30.1c0,4.3,0.5,4.2-4.4,4.2
		c-28.1,0-56.2,0-84.4,0c-4.5,0-4.1,0.1-4.1-4.1c0-24.3,0-48.5,0-72.8C806.1,757.4,806.1,755.2,806.1,753z"/>
	<path class="st0" d="M475.1,752.9c0-26,0-51.9,0-77.9c0-1.2,0-2.3,0-3.5c0-1.5,0.7-2.1,2.1-2c2.2,0,4.4,0,6.5,0
		c13.2,0,26.5,0,39.7,0c4.5,0,4.5,0,4.5,4.7c0,39.4,0,78.7,0,118.1c0,6.2-0.5,5.5,5.3,5.5c7.7,0,15.4,0.1,23.1,0
		c2.3,0,3.3,0.4,3.2,3c-0.1,10.9-0.1,21.8,0,32.7c0,2.4-0.6,3.2-3.1,3.1c-5-0.2-10-0.1-15.1-0.1c-20.3,0-40.5,0-60.8,0
		c-1.2,0-2.3,0-3.5,0c-1.5,0-2.1-0.6-2.1-2.1c0.1-1.2,0-2.3,0-3.5C475.1,804.8,475.1,778.9,475.1,752.9z"/>
	<path class="st0" d="M850.7,893.6c0-14.8,12-26.7,26.9-26.6c14.7,0.1,26.4,11.9,26.5,26.5c0,14.8-12,26.9-26.7,26.9
		C862.7,920.5,850.7,908.4,850.7,893.6z M878,915.6c11.9-0.1,21.6-10,21.6-21.9c0-12.1-10.2-22.1-22.2-21.9
		c-12.2,0.2-21.8,10.3-21.6,22.4C856.2,906.1,866.1,915.7,878,915.6z"/>
	<path class="st0" d="M882,896.1c2.8,4.4,5.4,8.4,8.1,12.7c-3.2,1.1-5.1,0.5-6.6-2.2c-1.5-3-3.5-5.7-5.2-8.6c-0.9-1.5-2.1-2-3.7-2
		c-1.8,0-2.8,0.4-2.8,2.5c0.1,2.8,0,5.7,0,8.5c0,1.8-0.8,2.3-2.4,2.3c-1.7,0-2.4-0.7-2.4-2.4c0-8.5,0-17.1,0-25.6
		c0-1.9,0.7-2.7,2.7-2.6c3.7,0.1,7.4-0.1,11,0.2c5.6,0.4,8.1,2.7,8.7,7.3c0.6,4.7-1.1,7.3-6.2,9.5C883,895.7,882.7,895.8,882,896.1z
		 M876.6,882.6c-4.5,0-4.5,0-4.6,3.5c-0.2,6.2-0.2,6.3,6.3,5.9c1-0.1,2-0.2,3-0.3c2.4-0.4,3.4-1.9,3.6-4.1c0.2-2.3-1.1-3.7-3.3-4.4
		C879.9,882.5,878.2,882.7,876.6,882.6z"/>
</g>
</svg>
