<svg xmlns="http://www.w3.org/2000/svg" xmlns:xlink="http://www.w3.org/1999/xlink" width="500" zoomAndPan="magnify" viewBox="0 0 375 374.999991" height="500" preserveAspectRatio="xMidYMid meet" version="1.0"><defs><clipPath id="38e53644aa"><path d="M 3.71875 228 L 367 228 L 367 279 L 3.71875 279 Z M 3.71875 228 " clip-rule="nonzero"/></clipPath><clipPath id="b244e86a2d"><path d="M 81 90.976562 L 290 90.976562 L 290 201 L 81 201 Z M 81 90.976562 " clip-rule="nonzero"/></clipPath></defs><g clip-path="url(#38e53644aa)"><path fill="#ffffff" d="M 263.925781 246.503906 L 263.925781 238.660156 L 300.609375 238.660156 L 300.609375 228.726562 L 250.828125 228.726562 L 250.828125 278.128906 L 300.609375 278.128906 L 300.609375 268.195312 L 263.925781 268.195312 L 263.925781 256.171875 L 295.105469 256.4375 L 295.105469 246.503906 Z M 366.113281 278.144531 L 343.339844 251.804688 L 364.019531 228.742188 L 347.78125 228.742188 L 335.371094 242.589844 L 323.414062 228.742188 L 307.15625 228.742188 L 326.585938 252.382812 L 303.5 278.144531 L 319.738281 278.144531 L 334.371094 261.832031 L 347.78125 278.144531 Z M 119.535156 228.726562 L 119.535156 277.878906 L 169.066406 277.878906 L 169.066406 268.210938 L 132.898438 268.210938 L 132.898438 228.726562 Z M 3.71875 228.726562 L 3.71875 238.660156 L 23.378906 238.660156 L 23.378906 278.128906 L 36.476562 278.128906 L 36.476562 238.675781 L 56.125 238.675781 L 56.125 228.742188 Z M 174.050781 228.726562 L 174.050781 278.128906 L 187.152344 278.128906 L 187.152344 238.675781 L 203.40625 278.144531 L 212.832031 278.144531 L 229.601562 238.675781 L 229.601562 278.144531 L 242.964844 278.144531 L 242.964844 228.726562 L 219.644531 228.726562 L 208.109375 257.214844 L 197.105469 228.726562 Z M 74.988281 246.503906 L 74.988281 238.660156 L 111.40625 238.660156 L 111.40625 228.726562 L 61.890625 228.726562 L 61.890625 278.128906 L 111.421875 278.128906 L 111.421875 268.195312 L 74.988281 268.195312 L 74.988281 256.171875 L 105.90625 256.4375 L 105.90625 246.503906 Z M 74.988281 246.503906 " fill-opacity="1" fill-rule="evenodd"/></g><g clip-path="url(#b244e86a2d)"><path fill="#ffffff" d="M 122.988281 126.035156 L 157 125.660156 L 157 166.613281 L 214.316406 166.613281 L 214.316406 126.035156 L 247.589844 126.035156 L 289.371094 200.5625 L 255.71875 200.5625 L 234.289062 166.613281 L 185.476562 200.546875 L 137.039062 166.253906 L 115.222656 200.5625 L 81.585938 200.5625 Z M 289.386719 125.675781 L 289.386719 90.992188 L 81.585938 90.992188 L 81.585938 125.675781 L 115.238281 125.675781 L 119.300781 117.925781 L 164.785156 117.925781 L 164.785156 158.503906 L 206.5625 158.503906 L 206.5625 117.925781 L 251.296875 117.925781 L 255.734375 125.675781 Z M 289.386719 125.675781 " fill-opacity="1" fill-rule="evenodd"/></g></svg>